<svg xmlns="http://www.w3.org/2000/svg" width="1080" height="1350" viewBox="0 0 1080 1350"><defs><linearGradient id="bg" x1="0" y1="0" x2="1" y2="1"><stop offset="0%" stop-color="#07101f"/><stop offset="55%" stop-color="#0d1c39"/><stop offset="100%" stop-color="#12214a"/></linearGradient><linearGradient id="cyan" x1="0" y1="0" x2="1" y2="0"><stop offset="0%" stop-color="#2dd4bf"/><stop offset="100%" stop-color="#5eead4"/></linearGradient><linearGradient id="blue" x1="0" y1="0" x2="1" y2="1"><stop offset="0%" stop-color="#12284a"/><stop offset="100%" stop-color="#1a3f6f"/></linearGradient><linearGradient id="purple" x1="0" y1="0" x2="1" y2="1"><stop offset="0%" stop-color="#2a2358"/><stop offset="100%" stop-color="#40308a"/></linearGradient><linearGradient id="amber" x1="0" y1="0" x2="1" y2="1"><stop offset="0%" stop-color="#4f3519"/><stop offset="100%" stop-color="#825927"/></linearGradient><linearGradient id="red" x1="0" y1="0" x2="1" y2="1"><stop offset="0%" stop-color="#5b2323"/><stop offset="100%" stop-color="#8c3131"/></linearGradient><linearGradient id="note" x1="0" y1="0" x2="1" y2="1"><stop offset="0%" stop-color="#10233f"/><stop offset="100%" stop-color="#163255"/></linearGradient><filter id="shadow" x="-20%" y="-20%" width="140%" height="140%"><feDropShadow dx="0" dy="16" stdDeviation="18" flood-color="#020617" flood-opacity="0.35"/></filter><marker id="arrow" markerWidth="14" markerHeight="14" refX="11" refY="4" orient="auto"><path d="M0,0 L11,4 L0,8 Z" fill="#9bdcff"/></marker><style>.title{font:700 44px Segoe UI,Arial,sans-serif;fill:#eef4ff}.subtitle{font:22px Segoe UI,Arial,sans-serif;fill:#b7c4dd}.section{font:700 18px Segoe UI,Arial,sans-serif;fill:#053233;letter-spacing:.9px}.boxTitle{font:700 28px Segoe UI,Arial,sans-serif;fill:#f8fbff}.boxSub{font:600 18px Segoe UI,Arial,sans-serif;fill:#cad7ec}.body{font:17px Segoe UI,Arial,sans-serif;fill:#d7e0f2}.small{font:15px Segoe UI,Arial,sans-serif;fill:#c8d4e8}.label{font:700 15px Segoe UI,Arial,sans-serif;fill:#9edcff}</style></defs><rect width="100%" height="100%" fill="url(#bg)"/><circle cx="935" cy="120" r="215" fill="#38bdf8" opacity="0.06"/><circle cx="140" cy="1180" r="170" fill="#14b8a6" opacity="0.05"/><text x="56" y="78" class="title">Control Plane Deep Dive</text><text x="56" y="112" class="subtitle">Jira lifecycle, lock handling, GitOps commits, and ArgoCD handoff</text><g filter="url(#shadow)"><path d="M56 142 L320 142 L346 160 L320 178 L56 178 L74 160 Z" fill="url(#cyan)"/></g><text x="80" y="166" class="section">DEPLOYMENT CONTROL PLANE</text><g filter="url(#shadow)"><rect x="56" y="225" width="160" height="130" rx="24" fill="url(#blue)" stroke="#3c5f8e" stroke-width="1.8"/></g><text x="80" y="267" class="boxTitle">Jira Ticket</text><text x="80" y="293" class="boxSub">request + metadata</text><rect x="80" y="309" width="48" height="48" rx="12" fill="#f8fbff" opacity="0.97"/><text x="92" y="340" style="font:700 18px Segoe UI,Arial,sans-serif;fill:#0d1c39">JR</text><text x="140" y="341" class="body">ticket_received</text><g filter="url(#shadow)"><rect x="236" y="225" width="210" height="130" rx="24" fill="url(#blue)" stroke="#3c5f8e" stroke-width="1.8"/></g><text x="260" y="267" class="boxTitle">GitHub Actions</text><text x="260" y="293" class="boxSub">workflow_dispatch</text><rect x="260" y="309" width="48" height="48" rx="12" fill="#f8fbff" opacity="0.97"/><text x="272" y="340" style="font:700 18px Segoe UI,Arial,sans-serif;fill:#0d1c39">CI</text><text x="320" y="341" class="body">runner handoff</text><g filter="url(#shadow)"><rect x="470" y="200" width="360" height="280" rx="24" fill="url(#purple)" stroke="#5f4aa8" stroke-width="1.8"/></g><text x="494" y="242" class="boxTitle">deployment-poc</text><text x="494" y="268" class="boxSub">control plane</text><rect x="494" y="284" width="48" height="48" rx="12" fill="#f8fbff" opacity="0.97"/><text x="506" y="315" style="font:700 18px Segoe UI,Arial,sans-serif;fill:#0d1c39">CP</text><text x="554" y="316" class="body">- resolve latest tags</text><text x="554" y="340" class="body">- acquire deployment lock</text><text x="554" y="364" class="body">- create GitOps commit</text><text x="554" y="388" class="body">- post Jira lifecycle</text><g filter="url(#shadow)"><rect x="854" y="225" width="170" height="130" rx="24" fill="url(#blue)" stroke="#3c5f8e" stroke-width="1.8"/></g><text x="878" y="267" class="boxTitle">Runner</text><text x="878" y="293" class="boxSub">self-hosted</text><rect x="878" y="309" width="48" height="48" rx="12" fill="#f8fbff" opacity="0.97"/><text x="890" y="340" style="font:700 18px Segoe UI,Arial,sans-serif;fill:#0d1c39">RN</text><text x="938" y="341" class="body">workflow host</text><g filter="url(#shadow)"><rect x="760" y="430" width="264" height="148" rx="24" fill="url(#amber)" stroke="#8a6130" stroke-width="1.8"/></g><text x="784" y="472" class="boxTitle">leninkart-infra</text><text x="784" y="498" class="boxSub">dev branch</text><rect x="784" y="514" width="48" height="48" rx="12" fill="#f8fbff" opacity="0.97"/><text x="796" y="545" style="font:700 18px Segoe UI,Arial,sans-serif;fill:#0d1c39">GI</text><text x="844" y="546" class="body">values-dev.yaml</text><text x="844" y="570" class="body">GitOps state</text><g filter="url(#shadow)"><rect x="760" y="640" width="264" height="148" rx="24" fill="url(#amber)" stroke="#8a6130" stroke-width="1.8"/></g><text x="784" y="682" class="boxTitle">ArgoCD</text><text x="784" y="708" class="boxSub">desired state sync</text><rect x="784" y="724" width="48" height="48" rx="12" fill="#f8fbff" opacity="0.97"/><text x="796" y="755" style="font:700 18px Segoe UI,Arial,sans-serif;fill:#0d1c39">AR</text><text x="844" y="756" class="body">auto reconciliation</text><path d="M216 290 L236 290" stroke="#9bdcff" stroke-width="4" fill="none" marker-end="url(#arrow)"/><path d="M446 290 L470 290" stroke="#9bdcff" stroke-width="4" fill="none" marker-end="url(#arrow)"/><path d="M830 290 L854 290" stroke="#9bdcff" stroke-width="4" fill="none" marker-end="url(#arrow)"/><path d="M650 480 L650 620 L760 620" stroke="#9bdcff" stroke-width="4" fill="none" marker-end="url(#arrow)"/><text x="665" y="612" class="label">GitOps commit</text><path d="M892 578 L892 640" stroke="#9bdcff" stroke-width="4" fill="none" marker-end="url(#arrow)"/><text x="748" y="608" class="small">GitOps Source of Truth</text><g filter="url(#shadow)"><rect x="70" y="560" width="620" height="430" rx="24" fill="url(#note)" stroke="#3c5f8e" stroke-width="1.8"/></g><text x="96" y="607" class="boxTitle">Jira Lifecycle</text><text x="96" y="635" class="boxSub">stage-wise deployment visibility</text><circle cx="112" cy="686" r="8" fill="#5eead4"/><text x="136" y="692" class="body">ticket_received</text><circle cx="112" cy="724" r="8" fill="#5eead4"/><text x="136" y="730" class="body">lock_acquired</text><circle cx="112" cy="762" r="8" fill="#5eead4"/><text x="136" y="768" class="body">deployment_started</text><circle cx="112" cy="800" r="8" fill="#5eead4"/><text x="136" y="806" class="body">argocd_sync_started</text><circle cx="112" cy="838" r="8" fill="#5eead4"/><text x="136" y="844" class="body">argocd_sync_in_progress</text><circle cx="112" cy="876" r="8" fill="#5eead4"/><text x="136" y="882" class="body">argocd_final_verification</text><circle cx="112" cy="914" r="8" fill="#5eead4"/><text x="136" y="920" class="body">argocd_synced_healthy</text><circle cx="112" cy="952" r="8" fill="#5eead4"/><text x="136" y="958" class="body">completed / failed</text><text x="96" y="970" class="small">deployment-poc owns version resolution, lock handling, GitOps commits, and Jira feedback.</text></svg>