<?xml version="1.0" encoding="UTF-8" standalone="no"?>
<!DOCTYPE svg PUBLIC "-//W3C//DTD SVG 1.1//EN"
 "http://www.w3.org/Graphics/SVG/1.1/DTD/svg11.dtd">
<!-- Generated by graphviz version 14.1.4 (20260321.0153)
 -->
<!-- Title: LeninKartPlatformFinal Pages: 1 -->
<svg width="7142pt" height="4939pt"
 viewBox="0.00 0.00 7142.00 4939.00" xmlns="http://www.w3.org/2000/svg" xmlns:xlink="http://www.w3.org/1999/xlink">
<g id="graph0" class="graph" transform="scale(2.36111 2.36111) rotate(0) translate(32.4 2059.54)">
<title>LeninKartPlatformFinal</title>
<polygon fill="white" stroke="none" points="-32.4,32.4 -32.4,-2059.54 2992.4,-2059.54 2992.4,32.4 -32.4,32.4"/>
<text xml:space="preserve" text-anchor="middle" x="1480" y="-1994.64" font-family="Segoe UI Semibold" font-size="30.00">LeninKart Platform Architecture</text>
<g id="clust1" class="cluster">
<title>cluster_request</title>
<path fill="#f7f9fb" stroke="#d5dce3" d="M20,-1789.44C20,-1789.44 265,-1789.44 265,-1789.44 271,-1789.44 277,-1795.44 277,-1801.44 277,-1801.44 277,-1957.89 277,-1957.89 277,-1963.89 271,-1969.89 265,-1969.89 265,-1969.89 20,-1969.89 20,-1969.89 14,-1969.89 8,-1963.89 8,-1957.89 8,-1957.89 8,-1801.44 8,-1801.44 8,-1795.44 14,-1789.44 20,-1789.44"/>
<text xml:space="preserve" text-anchor="middle" x="142.5" y="-1937.39" font-family="Segoe UI Semibold" font-size="30.00">Request / Entry</text>
</g>
<g id="clust3" class="cluster">
<title>cluster_control</title>
<path fill="#f7f9fb" stroke="#d5dce3" d="M145,-1216.2C145,-1216.2 1229,-1216.2 1229,-1216.2 1235,-1216.2 1241,-1222.2 1241,-1228.2 1241,-1228.2 1241,-1763.69 1241,-1763.69 1241,-1769.69 1235,-1775.69 1229,-1775.69 1229,-1775.69 145,-1775.69 145,-1775.69 139,-1775.69 133,-1769.69 133,-1763.69 133,-1763.69 133,-1228.2 133,-1228.2 133,-1222.2 139,-1216.2 145,-1216.2"/>
<text xml:space="preserve" text-anchor="middle" x="687" y="-1743.19" font-family="Segoe UI Semibold" font-size="30.00">CI / Control Plane</text>
</g>
<g id="clust8" class="cluster">
<title>cluster_gitops</title>
<path fill="#f7f9fb" stroke="#d5dce3" d="M1240,-1027.76C1240,-1027.76 1708,-1027.76 1708,-1027.76 1714,-1027.76 1720,-1033.76 1720,-1039.76 1720,-1039.76 1720,-1190.45 1720,-1190.45 1720,-1196.45 1714,-1202.45 1708,-1202.45 1708,-1202.45 1240,-1202.45 1240,-1202.45 1234,-1202.45 1228,-1196.45 1228,-1190.45 1228,-1190.45 1228,-1039.76 1228,-1039.76 1228,-1033.76 1234,-1027.76 1240,-1027.76"/>
<text xml:space="preserve" text-anchor="middle" x="1474" y="-1169.95" font-family="Segoe UI Semibold" font-size="30.00">GitOps / Reconciliation</text>
</g>
<g id="clust10" class="cluster">
<title>cluster_runtime</title>
<path fill="#f7f9fb" stroke="#d5dce3" d="M850,-8C850,-8 1710,-8 1710,-8 1716,-8 1722,-14 1722,-20 1722,-20 1722,-922.29 1722,-922.29 1722,-928.29 1716,-934.29 1710,-934.29 1710,-934.29 850,-934.29 850,-934.29 844,-934.29 838,-928.29 838,-922.29 838,-922.29 838,-20 838,-20 838,-14 844,-8 850,-8"/>
<text xml:space="preserve" text-anchor="middle" x="1280" y="-901.79" font-family="Segoe UI Semibold" font-size="30.00">Kubernetes Runtime &#45; k3d&#45;leninkart&#45;dev</text>
</g>
<g id="clust17" class="cluster">
<title>cluster_external</title>
<path fill="#f7f9fb" stroke="#d5dce3" d="M1742,-566.84C1742,-566.84 2022,-566.84 2022,-566.84 2028,-566.84 2034,-572.84 2034,-578.84 2034,-578.84 2034,-728.09 2034,-728.09 2034,-734.09 2028,-740.09 2022,-740.09 2022,-740.09 1742,-740.09 1742,-740.09 1736,-740.09 1730,-734.09 1730,-728.09 1730,-728.09 1730,-578.84 1730,-578.84 1730,-572.84 1736,-566.84 1742,-566.84"/>
<text xml:space="preserve" text-anchor="middle" x="1882" y="-707.59" font-family="Segoe UI Semibold" font-size="30.00">External Runtime</text>
</g>
<g id="clust19" class="cluster">
<title>cluster_validation</title>
<path fill="#f7f9fb" stroke="#d5dce3" d="M2250,-30.68C2250,-30.68 2480,-30.68 2480,-30.68 2486,-30.68 2492,-36.68 2492,-42.68 2492,-42.68 2492,-359.85 2492,-359.85 2492,-365.85 2486,-371.85 2480,-371.85 2480,-371.85 2250,-371.85 2250,-371.85 2244,-371.85 2238,-365.85 2238,-359.85 2238,-359.85 2238,-42.68 2238,-42.68 2238,-36.68 2244,-30.68 2250,-30.68"/>
<text xml:space="preserve" text-anchor="middle" x="2365" y="-339.35" font-family="Segoe UI Semibold" font-size="30.00">Validation / Proof</text>
</g>
<g id="clust21" class="cluster">
<title>cluster_observability</title>
<path fill="#f7f9fb" stroke="#d5dce3" d="M2512,-194.28C2512,-194.28 2940,-194.28 2940,-194.28 2946,-194.28 2952,-200.28 2952,-206.28 2952,-206.28 2952,-356.97 2952,-356.97 2952,-362.97 2946,-368.97 2940,-368.97 2940,-368.97 2512,-368.97 2512,-368.97 2506,-368.97 2500,-362.97 2500,-356.97 2500,-356.97 2500,-206.28 2500,-206.28 2500,-200.28 2506,-194.28 2512,-194.28"/>
<text xml:space="preserve" text-anchor="middle" x="2726" y="-336.47" font-family="Segoe UI Semibold" font-size="30.00">Observability</text>
</g>
<!-- operator -->
<g id="node1" class="node">
<title>operator</title>
<path fill="white" stroke="#b8c2cc" d="M83.6,-1882.04C83.6,-1882.04 28.4,-1882.04 28.4,-1882.04 22.4,-1882.04 16.4,-1876.04 16.4,-1870.04 16.4,-1870.04 16.4,-1840.04 16.4,-1840.04 16.4,-1834.04 22.4,-1828.04 28.4,-1828.04 28.4,-1828.04 83.6,-1828.04 83.6,-1828.04 89.6,-1828.04 95.6,-1834.04 95.6,-1840.04 95.6,-1840.04 95.6,-1870.04 95.6,-1870.04 95.6,-1876.04 89.6,-1882.04 83.6,-1882.04"/>
<text xml:space="preserve" text-anchor="middle" x="56" y="-1852.27" font-family="Segoe UI" font-size="12.00">Operator</text>
</g>
<!-- jira -->
<g id="node2" class="node">
<title>jira</title>
<path fill="white" stroke="#b8c2cc" d="M256.6,-1912.64C256.6,-1912.64 165.4,-1912.64 165.4,-1912.64 159.4,-1912.64 153.4,-1906.64 153.4,-1900.64 153.4,-1900.64 153.4,-1809.44 153.4,-1809.44 153.4,-1803.44 159.4,-1797.44 165.4,-1797.44 165.4,-1797.44 256.6,-1797.44 256.6,-1797.44 262.6,-1797.44 268.6,-1803.44 268.6,-1809.44 268.6,-1809.44 268.6,-1900.64 268.6,-1900.64 268.6,-1906.64 262.6,-1912.64 256.6,-1912.64"/>
<image xlink:href="D:\Projects\Services\architecture\icons\jira.png" width="115.2px" height="115.2px" preserveAspectRatio="xMinYMin meet" x="153.4" y="-1912.64"/>
<text xml:space="preserve" text-anchor="middle" x="211" y="-1821.09" font-family="Segoe UI" font-size="13.00">Jira Ticket</text>
<text xml:space="preserve" text-anchor="middle" x="211" y="-1803.09" font-family="Segoe UI" font-size="13.00">deploy request</text>
</g>
<!-- operator&#45;&gt;jira -->
<g id="edge1" class="edge">
<title>operator&#45;&gt;jira</title>
<path fill="none" stroke="#4b5b6b" stroke-width="1.4" d="M95.92,-1855C95.92,-1855 141.98,-1855 141.98,-1855"/>
<polygon fill="#4b5b6b" stroke="#4b5b6b" stroke-width="1.4" points="141.98,-1858.15 150.98,-1855 141.98,-1851.85 141.98,-1858.15"/>
</g>
<!-- service_ci -->
<g id="node3" class="node">
<title>service_ci</title>
<path fill="white" stroke="#b8c2cc" d="M269.2,-1718.44C269.2,-1718.44 152.8,-1718.44 152.8,-1718.44 146.8,-1718.44 140.8,-1712.44 140.8,-1706.44 140.8,-1706.44 140.8,-1613.8 140.8,-1613.8 140.8,-1607.8 146.8,-1601.8 152.8,-1601.8 152.8,-1601.8 269.2,-1601.8 269.2,-1601.8 275.2,-1601.8 281.2,-1607.8 281.2,-1613.8 281.2,-1613.8 281.2,-1706.44 281.2,-1706.44 281.2,-1712.44 275.2,-1718.44 269.2,-1718.44"/>
<image xlink:href="D:\Projects\Services\architecture\icons\githubactions.png" width="116.64px" height="116.64px" preserveAspectRatio="xMinYMin meet" x="152.68" y="-1718.44"/>
<text xml:space="preserve" text-anchor="middle" x="211" y="-1625.45" font-family="Segoe UI" font-size="13.00">Service CI</text>
<text xml:space="preserve" text-anchor="middle" x="211" y="-1607.45" font-family="Segoe UI" font-size="13.00">frontend / product / order</text>
</g>
<!-- jira&#45;&gt;service_ci -->
<!-- deploy_workflow -->
<g id="node9" class="node">
<title>deploy_workflow</title>
<path fill="white" stroke="#b8c2cc" d="M1037.2,-1519.92C1037.2,-1519.92 938.8,-1519.92 938.8,-1519.92 932.8,-1519.92 926.8,-1513.92 926.8,-1507.92 926.8,-1507.92 926.8,-1422.48 926.8,-1422.48 926.8,-1416.48 932.8,-1410.48 938.8,-1410.48 938.8,-1410.48 1037.2,-1410.48 1037.2,-1410.48 1043.2,-1410.48 1049.2,-1416.48 1049.2,-1422.48 1049.2,-1422.48 1049.2,-1507.92 1049.2,-1507.92 1049.2,-1513.92 1043.2,-1519.92 1037.2,-1519.92"/>
<image xlink:href="D:\Projects\Services\architecture\icons\githubactions.png" width="109.44px" height="109.44px" preserveAspectRatio="xMinYMin meet" x="933.28" y="-1519.92"/>
<text xml:space="preserve" text-anchor="middle" x="988" y="-1434.13" font-family="Segoe UI" font-size="13.00">Deploy Workflow</text>
<text xml:space="preserve" text-anchor="middle" x="988" y="-1416.13" font-family="Segoe UI" font-size="13.00">workflow_dispatch</text>
</g>
<!-- jira&#45;&gt;deploy_workflow -->
<g id="edge50" class="edge">
<title>jira&#45;&gt;deploy_workflow</title>
<path fill="none" stroke="#2f5b8a" stroke-width="2.1" d="M268.82,-1855C444.46,-1855 959.8,-1855 959.8,-1855 959.8,-1855 959.8,-1532.4 959.8,-1532.4"/>
<polygon fill="#2f5b8a" stroke="#2f5b8a" stroke-width="2.1" points="962.95,-1532.4 959.8,-1523.4 956.65,-1532.4 962.95,-1532.4"/>
</g>
<!-- sonar -->
<g id="node4" class="node">
<title>sonar</title>
<path fill="white" stroke="#b8c2cc" d="M424.6,-1714.84C424.6,-1714.84 351.4,-1714.84 351.4,-1714.84 345.4,-1714.84 339.4,-1708.84 339.4,-1702.84 339.4,-1702.84 339.4,-1617.4 339.4,-1617.4 339.4,-1611.4 345.4,-1605.4 351.4,-1605.4 351.4,-1605.4 424.6,-1605.4 424.6,-1605.4 430.6,-1605.4 436.6,-1611.4 436.6,-1617.4 436.6,-1617.4 436.6,-1702.84 436.6,-1702.84 436.6,-1708.84 430.6,-1714.84 424.6,-1714.84"/>
<image xlink:href="D:\Projects\Services\architecture\icons\sonarqube.png" width="97.2px" height="97.2px" preserveAspectRatio="xMinYMin meet" x="339.4" y="-1714.84"/>
<text xml:space="preserve" text-anchor="middle" x="388" y="-1629.05" font-family="Segoe UI" font-size="13.00">SonarQube</text>
<text xml:space="preserve" text-anchor="middle" x="388" y="-1611.05" font-family="Segoe UI" font-size="13.00">quality</text>
</g>
<!-- service_ci&#45;&gt;sonar -->
<g id="edge2" class="edge">
<title>service_ci&#45;&gt;sonar</title>
<path fill="none" stroke="#4b5b6b" stroke-width="1.4" d="M281.46,-1660C281.46,-1660 327.89,-1660 327.89,-1660"/>
<polygon fill="#4b5b6b" stroke="#4b5b6b" stroke-width="1.4" points="327.89,-1663.15 336.89,-1660 327.89,-1656.85 327.89,-1663.15"/>
</g>
<!-- gitleaks -->
<g id="node5" class="node">
<title>gitleaks</title>
<path fill="white" stroke="#b8c2cc" d="M579.6,-1714.84C579.6,-1714.84 506.4,-1714.84 506.4,-1714.84 500.4,-1714.84 494.4,-1708.84 494.4,-1702.84 494.4,-1702.84 494.4,-1617.4 494.4,-1617.4 494.4,-1611.4 500.4,-1605.4 506.4,-1605.4 506.4,-1605.4 579.6,-1605.4 579.6,-1605.4 585.6,-1605.4 591.6,-1611.4 591.6,-1617.4 591.6,-1617.4 591.6,-1702.84 591.6,-1702.84 591.6,-1708.84 585.6,-1714.84 579.6,-1714.84"/>
<image xlink:href="D:\Projects\Services\architecture\icons\gitleaks.png" width="97.2px" height="97.2px" preserveAspectRatio="xMinYMin meet" x="494.4" y="-1714.84"/>
<text xml:space="preserve" text-anchor="middle" x="543" y="-1629.05" font-family="Segoe UI" font-size="13.00">Secrets Gate</text>
<text xml:space="preserve" text-anchor="middle" x="543" y="-1611.05" font-family="Segoe UI" font-size="13.00">gitleaks</text>
</g>
<!-- sonar&#45;&gt;gitleaks -->
<g id="edge3" class="edge">
<title>sonar&#45;&gt;gitleaks</title>
<path fill="none" stroke="#4b5b6b" stroke-width="1.4" d="M437.04,-1660C437.04,-1660 482.89,-1660 482.89,-1660"/>
<polygon fill="#4b5b6b" stroke="#4b5b6b" stroke-width="1.4" points="482.89,-1663.15 491.89,-1660 482.89,-1656.85 482.89,-1663.15"/>
</g>
<!-- trivy -->
<g id="node6" class="node">
<title>trivy</title>
<path fill="white" stroke="#b8c2cc" d="M734.6,-1714.84C734.6,-1714.84 661.4,-1714.84 661.4,-1714.84 655.4,-1714.84 649.4,-1708.84 649.4,-1702.84 649.4,-1702.84 649.4,-1617.4 649.4,-1617.4 649.4,-1611.4 655.4,-1605.4 661.4,-1605.4 661.4,-1605.4 734.6,-1605.4 734.6,-1605.4 740.6,-1605.4 746.6,-1611.4 746.6,-1617.4 746.6,-1617.4 746.6,-1702.84 746.6,-1702.84 746.6,-1708.84 740.6,-1714.84 734.6,-1714.84"/>
<image xlink:href="D:\Projects\Services\architecture\icons\trivy.png" width="97.2px" height="97.2px" preserveAspectRatio="xMinYMin meet" x="649.4" y="-1714.84"/>
<text xml:space="preserve" text-anchor="middle" x="698" y="-1629.05" font-family="Segoe UI" font-size="13.00">Trivy</text>
<text xml:space="preserve" text-anchor="middle" x="698" y="-1611.05" font-family="Segoe UI" font-size="13.00">fs + image</text>
</g>
<!-- gitleaks&#45;&gt;trivy -->
<g id="edge4" class="edge">
<title>gitleaks&#45;&gt;trivy</title>
<path fill="none" stroke="#4b5b6b" stroke-width="1.4" d="M592.04,-1660C592.04,-1660 637.89,-1660 637.89,-1660"/>
<polygon fill="#4b5b6b" stroke="#4b5b6b" stroke-width="1.4" points="637.89,-1663.15 646.89,-1660 637.89,-1656.85 637.89,-1663.15"/>
</g>
<!-- dockerhub -->
<g id="node7" class="node">
<title>dockerhub</title>
<path fill="white" stroke="#b8c2cc" d="M919,-1714.84C919,-1714.84 817,-1714.84 817,-1714.84 811,-1714.84 805,-1708.84 805,-1702.84 805,-1702.84 805,-1617.4 805,-1617.4 805,-1611.4 811,-1605.4 817,-1605.4 817,-1605.4 919,-1605.4 919,-1605.4 925,-1605.4 931,-1611.4 931,-1617.4 931,-1617.4 931,-1702.84 931,-1702.84 931,-1708.84 925,-1714.84 919,-1714.84"/>
<image xlink:href="D:\Projects\Services\architecture\icons\docker.png" width="109.44px" height="109.44px" preserveAspectRatio="xMinYMin meet" x="813.28" y="-1714.84"/>
<text xml:space="preserve" text-anchor="middle" x="868" y="-1629.05" font-family="Segoe UI" font-size="13.00">Docker Images</text>
<text xml:space="preserve" text-anchor="middle" x="868" y="-1611.05" font-family="Segoe UI" font-size="13.00">DockerHub tags</text>
</g>
<!-- trivy&#45;&gt;dockerhub -->
<g id="edge5" class="edge">
<title>trivy&#45;&gt;dockerhub</title>
<path fill="none" stroke="#4b5b6b" stroke-width="1.4" d="M746.72,-1660C746.72,-1660 793.56,-1660 793.56,-1660"/>
<polygon fill="#4b5b6b" stroke="#4b5b6b" stroke-width="1.4" points="793.56,-1663.15 802.56,-1660 793.56,-1656.85 793.56,-1663.15"/>
</g>
<!-- latest_tags -->
<g id="node8" class="node">
<title>latest_tags</title>
<path fill="white" stroke="#b8c2cc" d="M1113.4,-1692.52C1113.4,-1692.52 1000.6,-1692.52 1000.6,-1692.52 994.6,-1692.52 988.6,-1686.52 988.6,-1680.52 988.6,-1680.52 988.6,-1639.72 988.6,-1639.72 988.6,-1633.72 994.6,-1627.72 1000.6,-1627.72 1000.6,-1627.72 1113.4,-1627.72 1113.4,-1627.72 1119.4,-1627.72 1125.4,-1633.72 1125.4,-1639.72 1125.4,-1639.72 1125.4,-1680.52 1125.4,-1680.52 1125.4,-1686.52 1119.4,-1692.52 1113.4,-1692.52"/>
<text xml:space="preserve" text-anchor="middle" x="1057" y="-1665.97" font-family="Segoe UI" font-size="12.00">latest_tags.yaml</text>
<text xml:space="preserve" text-anchor="middle" x="1057" y="-1648.72" font-family="Segoe UI" font-size="12.00">latest&#45;dev metadata</text>
</g>
<!-- dockerhub&#45;&gt;latest_tags -->
<g id="edge6" class="edge">
<title>dockerhub&#45;&gt;latest_tags</title>
<path fill="none" stroke="#4b5b6b" stroke-width="1.4" d="M931.46,-1660C931.46,-1660 977.07,-1660 977.07,-1660"/>
<polygon fill="#4b5b6b" stroke="#4b5b6b" stroke-width="1.4" points="977.07,-1663.15 986.07,-1660 977.07,-1656.85 977.07,-1663.15"/>
</g>
<!-- deployment_poc -->
<g id="node11" class="node">
<title>deployment_poc</title>
<path fill="white" stroke="#b8c2cc" d="M856.8,-1522.8C856.8,-1522.8 733.2,-1522.8 733.2,-1522.8 727.2,-1522.8 721.2,-1516.8 721.2,-1510.8 721.2,-1510.8 721.2,-1419.6 721.2,-1419.6 721.2,-1413.6 727.2,-1407.6 733.2,-1407.6 733.2,-1407.6 856.8,-1407.6 856.8,-1407.6 862.8,-1407.6 868.8,-1413.6 868.8,-1419.6 868.8,-1419.6 868.8,-1510.8 868.8,-1510.8 868.8,-1516.8 862.8,-1522.8 856.8,-1522.8"/>
<image xlink:href="D:\Projects\Services\architecture\icons\orchestrator_custom.png" width="115.2px" height="115.2px" preserveAspectRatio="xMinYMin meet" x="737.4" y="-1522.8"/>
<text xml:space="preserve" text-anchor="middle" x="795" y="-1431.25" font-family="Segoe UI" font-size="13.00">deployment&#45;poc</text>
<text xml:space="preserve" text-anchor="middle" x="795" y="-1413.25" font-family="Segoe UI" font-size="13.00">orchestration</text>
</g>
<!-- latest_tags&#45;&gt;deployment_poc -->
<g id="edge51" class="edge">
<title>latest_tags&#45;&gt;deployment_poc</title>
<path fill="none" stroke="#2f5b8a" stroke-width="2.1" d="M1018.9,-1627.45C1018.9,-1598.9 1018.9,-1562 1018.9,-1562 1018.9,-1562 836.9,-1562 836.9,-1562 836.9,-1562 836.9,-1535.36 836.9,-1535.36"/>
<polygon fill="#2f5b8a" stroke="#2f5b8a" stroke-width="2.1" points="840.05,-1535.36 836.9,-1526.36 833.75,-1535.36 840.05,-1535.36"/>
</g>
<!-- runner -->
<g id="node10" class="node">
<title>runner</title>
<path fill="white" stroke="#b8c2cc" d="M1221,-1519.92C1221,-1519.92 1119,-1519.92 1119,-1519.92 1113,-1519.92 1107,-1513.92 1107,-1507.92 1107,-1507.92 1107,-1422.48 1107,-1422.48 1107,-1416.48 1113,-1410.48 1119,-1410.48 1119,-1410.48 1221,-1410.48 1221,-1410.48 1227,-1410.48 1233,-1416.48 1233,-1422.48 1233,-1422.48 1233,-1507.92 1233,-1507.92 1233,-1513.92 1227,-1519.92 1221,-1519.92"/>
<image xlink:href="D:\Projects\Services\architecture\icons\runner_custom.png" width="109.44px" height="109.44px" preserveAspectRatio="xMinYMin meet" x="1115.28" y="-1519.92"/>
<text xml:space="preserve" text-anchor="middle" x="1170" y="-1434.13" font-family="Segoe UI" font-size="13.00">Self&#45;hosted Runner</text>
<text xml:space="preserve" text-anchor="middle" x="1170" y="-1416.13" font-family="Segoe UI" font-size="13.00">Windows runner</text>
</g>
<!-- deploy_workflow&#45;&gt;runner -->
<g id="edge7" class="edge">
<title>deploy_workflow&#45;&gt;runner</title>
<path fill="none" stroke="#4b5b6b" stroke-width="1.4" d="M1049.62,-1465C1049.62,-1465 1095.47,-1465 1095.47,-1465"/>
<polygon fill="#4b5b6b" stroke="#4b5b6b" stroke-width="1.4" points="1095.47,-1468.15 1104.47,-1465 1095.47,-1461.85 1095.47,-1468.15"/>
</g>
<!-- runner&#45;&gt;deployment_poc -->
<g id="edge8" class="edge">
<title>runner&#45;&gt;deployment_poc</title>
<path fill="none" stroke="#4b5b6b" stroke-width="1.4" d="M1129.84,-1410.09C1129.84,-1399.69 1129.84,-1392 1129.84,-1392 1129.84,-1392 863.2,-1392 863.2,-1392 863.2,-1392 863.2,-1396.05 863.2,-1396.05"/>
<polygon fill="#4b5b6b" stroke="#4b5b6b" stroke-width="1.4" points="860.05,-1396.05 863.2,-1405.05 866.35,-1396.05 860.05,-1396.05"/>
</g>
<!-- lock_mgr -->
<g id="node12" class="node">
<title>lock_mgr</title>
<path fill="white" stroke="#b8c2cc" d="M562.8,-1328.6C562.8,-1328.6 475.2,-1328.6 475.2,-1328.6 469.2,-1328.6 463.2,-1322.6 463.2,-1316.6 463.2,-1316.6 463.2,-1236.2 463.2,-1236.2 463.2,-1230.2 469.2,-1224.2 475.2,-1224.2 475.2,-1224.2 562.8,-1224.2 562.8,-1224.2 568.8,-1224.2 574.8,-1230.2 574.8,-1236.2 574.8,-1236.2 574.8,-1316.6 574.8,-1316.6 574.8,-1322.6 568.8,-1328.6 562.8,-1328.6"/>
<image xlink:href="D:\Projects\Services\architecture\icons\lock_custom.png" width="104.4px" height="104.4px" preserveAspectRatio="xMinYMin meet" x="466.8" y="-1328.6"/>
<text xml:space="preserve" text-anchor="middle" x="519" y="-1247.85" font-family="Segoe UI" font-size="13.00">Lock Manager</text>
<text xml:space="preserve" text-anchor="middle" x="519" y="-1229.85" font-family="Segoe UI" font-size="13.00">acquire / release</text>
</g>
<!-- deployment_poc&#45;&gt;lock_mgr -->
<g id="edge9" class="edge">
<title>deployment_poc&#45;&gt;lock_mgr</title>
<path fill="none" stroke="#7a8794" stroke-width="1.4" stroke-dasharray="5,2" d="M742.1,-1407.37C742.1,-1367.62 742.1,-1322 742.1,-1322 742.1,-1322 586.42,-1322 586.42,-1322"/>
<polygon fill="#7a8794" stroke="#7a8794" stroke-width="1.4" points="586.42,-1318.85 577.42,-1322 586.42,-1325.15 586.42,-1318.85"/>
</g>
<!-- rollback_logic -->
<g id="node13" class="node">
<title>rollback_logic</title>
<path fill="white" stroke="#b8c2cc" d="M262.6,-1328.6C262.6,-1328.6 153.4,-1328.6 153.4,-1328.6 147.4,-1328.6 141.4,-1322.6 141.4,-1316.6 141.4,-1316.6 141.4,-1236.2 141.4,-1236.2 141.4,-1230.2 147.4,-1224.2 153.4,-1224.2 153.4,-1224.2 262.6,-1224.2 262.6,-1224.2 268.6,-1224.2 274.6,-1230.2 274.6,-1236.2 274.6,-1236.2 274.6,-1316.6 274.6,-1316.6 274.6,-1322.6 268.6,-1328.6 262.6,-1328.6"/>
<image xlink:href="D:\Projects\Services\architecture\icons\rollback_custom.png" width="104.4px" height="104.4px" preserveAspectRatio="xMinYMin meet" x="155.8" y="-1328.6"/>
<text xml:space="preserve" text-anchor="middle" x="208" y="-1247.85" font-family="Segoe UI" font-size="13.00">Rollback Logic</text>
<text xml:space="preserve" text-anchor="middle" x="208" y="-1229.85" font-family="Segoe UI" font-size="13.00">previous stable</text>
</g>
<!-- deployment_poc&#45;&gt;rollback_logic -->
<g id="edge10" class="edge">
<title>deployment_poc&#45;&gt;rollback_logic</title>
<path fill="none" stroke="#7a8794" stroke-width="1.4" stroke-dasharray="5,2" d="M720.95,-1484C563.15,-1484 208,-1484 208,-1484 208,-1484 208,-1340.17 208,-1340.17"/>
<polygon fill="#7a8794" stroke="#7a8794" stroke-width="1.4" points="211.15,-1340.17 208,-1331.17 204.85,-1340.17 211.15,-1340.17"/>
</g>
<!-- lifecycle_received -->
<g id="node14" class="node">
<title>lifecycle_received</title>
<path fill="white" stroke="#b8c2cc" d="M393,-1315.28C393,-1315.28 345,-1315.28 345,-1315.28 339,-1315.28 333,-1309.28 333,-1303.28 333,-1303.28 333,-1249.52 333,-1249.52 333,-1243.52 339,-1237.52 345,-1237.52 345,-1237.52 393,-1237.52 393,-1237.52 399,-1237.52 405,-1243.52 405,-1249.52 405,-1249.52 405,-1303.28 405,-1303.28 405,-1309.28 399,-1315.28 393,-1315.28"/>
<image xlink:href="D:\Projects\Services\architecture\icons\step_ticket.png" width="72px" height="72px" preserveAspectRatio="xMinYMin meet" x="333" y="-1315.28"/>
<text xml:space="preserve" text-anchor="middle" x="369" y="-1242.27" font-family="Segoe UI" font-size="10.00">Ticket</text>
</g>
<!-- deployment_poc&#45;&gt;lifecycle_received -->
<g id="edge16" class="edge">
<title>deployment_poc&#45;&gt;lifecycle_received</title>
<path fill="none" stroke="#7a8794" stroke-width="1.4" stroke-dasharray="5,2" d="M720.93,-1446C597.05,-1446 361.27,-1446 361.27,-1446 361.27,-1446 361.27,-1326.85 361.27,-1326.85"/>
<polygon fill="#7a8794" stroke="#7a8794" stroke-width="1.4" points="364.42,-1326.85 361.27,-1317.85 358.12,-1326.85 364.42,-1326.85"/>
</g>
<!-- ci_gitops_anchor -->
<!-- deployment_poc&#45;&gt;ci_gitops_anchor -->
<!-- deployment_poc&#45;&gt;ci_gitops_anchor -->
<g id="edge52" class="edge">
<title>deployment_poc&#45;&gt;ci_gitops_anchor</title>
<path fill="none" stroke="#2f5b8a" stroke-width="2.1" d="M857.6,-1407.2C857.6,-1390.16 857.6,-1376 857.6,-1376 857.6,-1376 1292,-1376 1292,-1376 1292,-1376 1292,-1285.52 1292,-1277.04"/>
</g>
<!-- infra_repo -->
<g id="node20" class="node">
<title>infra_repo</title>
<path fill="white" stroke="#b8c2cc" d="M1335.8,-1145.2C1335.8,-1145.2 1248.2,-1145.2 1248.2,-1145.2 1242.2,-1145.2 1236.2,-1139.2 1236.2,-1133.2 1236.2,-1133.2 1236.2,-1047.76 1236.2,-1047.76 1236.2,-1041.76 1242.2,-1035.76 1248.2,-1035.76 1248.2,-1035.76 1335.8,-1035.76 1335.8,-1035.76 1341.8,-1035.76 1347.8,-1041.76 1347.8,-1047.76 1347.8,-1047.76 1347.8,-1133.2 1347.8,-1133.2 1347.8,-1139.2 1341.8,-1145.2 1335.8,-1145.2"/>
<image xlink:href="D:\Projects\Services\architecture\icons\github.png" width="109.44px" height="109.44px" preserveAspectRatio="xMinYMin meet" x="1237.28" y="-1145.2"/>
<text xml:space="preserve" text-anchor="middle" x="1292" y="-1059.41" font-family="Segoe UI" font-size="13.00">leninkart&#45;infra</text>
<text xml:space="preserve" text-anchor="middle" x="1292" y="-1041.41" font-family="Segoe UI" font-size="13.00">dev branch</text>
</g>
<!-- rollback_logic&#45;&gt;infra_repo -->
<g id="edge62" class="edge">
<title>rollback_logic&#45;&gt;infra_repo</title>
<path fill="none" stroke="#c0392b" stroke-width="1.4" stroke-dasharray="5,2" d="M208,-1223.98C208,-1168.85 208,-1090 208,-1090 208,-1090 1224.88,-1090 1224.88,-1090"/>
<polygon fill="#c0392b" stroke="#c0392b" stroke-width="1.4" points="1224.88,-1093.15 1233.88,-1090 1224.88,-1086.85 1224.88,-1093.15"/>
</g>
<!-- lifecycle_lock -->
<g id="node15" class="node">
<title>lifecycle_lock</title>
<path fill="white" stroke="#b8c2cc" d="M693,-1315.28C693,-1315.28 645,-1315.28 645,-1315.28 639,-1315.28 633,-1309.28 633,-1303.28 633,-1303.28 633,-1249.52 633,-1249.52 633,-1243.52 639,-1237.52 645,-1237.52 645,-1237.52 693,-1237.52 693,-1237.52 699,-1237.52 705,-1243.52 705,-1249.52 705,-1249.52 705,-1303.28 705,-1303.28 705,-1309.28 699,-1315.28 693,-1315.28"/>
<image xlink:href="D:\Projects\Services\architecture\icons\step_lock.png" width="72px" height="72px" preserveAspectRatio="xMinYMin meet" x="633" y="-1315.28"/>
<text xml:space="preserve" text-anchor="middle" x="669" y="-1242.27" font-family="Segoe UI" font-size="10.00">Lock</text>
</g>
<!-- lifecycle_received&#45;&gt;lifecycle_lock -->
<g id="edge11" class="edge">
<title>lifecycle_received&#45;&gt;lifecycle_lock</title>
<path fill="none" stroke="#4b5b6b" stroke-width="1.4" d="M383.13,-1315.72C383.13,-1330.59 383.13,-1344 383.13,-1344 383.13,-1344 641.2,-1344 641.2,-1344 641.2,-1344 641.2,-1326.84 641.2,-1326.84"/>
<polygon fill="#4b5b6b" stroke="#4b5b6b" stroke-width="1.4" points="644.35,-1326.84 641.2,-1317.84 638.05,-1326.84 644.35,-1326.84"/>
</g>
<!-- lifecycle_deploy -->
<g id="node16" class="node">
<title>lifecycle_deploy</title>
<path fill="white" stroke="#b8c2cc" d="M823,-1315.28C823,-1315.28 775,-1315.28 775,-1315.28 769,-1315.28 763,-1309.28 763,-1303.28 763,-1303.28 763,-1249.52 763,-1249.52 763,-1243.52 769,-1237.52 775,-1237.52 775,-1237.52 823,-1237.52 823,-1237.52 829,-1237.52 835,-1243.52 835,-1249.52 835,-1249.52 835,-1303.28 835,-1303.28 835,-1309.28 829,-1315.28 823,-1315.28"/>
<image xlink:href="D:\Projects\Services\architecture\icons\step_deploy.png" width="72px" height="72px" preserveAspectRatio="xMinYMin meet" x="763" y="-1315.28"/>
<text xml:space="preserve" text-anchor="middle" x="799" y="-1242.27" font-family="Segoe UI" font-size="10.00">Deploy</text>
</g>
<!-- lifecycle_lock&#45;&gt;lifecycle_deploy -->
<g id="edge12" class="edge">
<title>lifecycle_lock&#45;&gt;lifecycle_deploy</title>
<path fill="none" stroke="#4b5b6b" stroke-width="1.4" d="M705.21,-1276C705.21,-1276 751.41,-1276 751.41,-1276"/>
<polygon fill="#4b5b6b" stroke="#4b5b6b" stroke-width="1.4" points="751.41,-1279.15 760.41,-1276 751.41,-1272.85 751.41,-1279.15"/>
</g>
<!-- lifecycle_sync -->
<g id="node17" class="node">
<title>lifecycle_sync</title>
<path fill="white" stroke="#b8c2cc" d="M953,-1315.28C953,-1315.28 905,-1315.28 905,-1315.28 899,-1315.28 893,-1309.28 893,-1303.28 893,-1303.28 893,-1249.52 893,-1249.52 893,-1243.52 899,-1237.52 905,-1237.52 905,-1237.52 953,-1237.52 953,-1237.52 959,-1237.52 965,-1243.52 965,-1249.52 965,-1249.52 965,-1303.28 965,-1303.28 965,-1309.28 959,-1315.28 953,-1315.28"/>
<image xlink:href="D:\Projects\Services\architecture\icons\step_sync.png" width="72px" height="72px" preserveAspectRatio="xMinYMin meet" x="893" y="-1315.28"/>
<text xml:space="preserve" text-anchor="middle" x="929" y="-1242.27" font-family="Segoe UI" font-size="10.00">Sync</text>
</g>
<!-- lifecycle_deploy&#45;&gt;lifecycle_sync -->
<g id="edge13" class="edge">
<title>lifecycle_deploy&#45;&gt;lifecycle_sync</title>
<path fill="none" stroke="#4b5b6b" stroke-width="1.4" d="M835.21,-1276C835.21,-1276 881.41,-1276 881.41,-1276"/>
<polygon fill="#4b5b6b" stroke="#4b5b6b" stroke-width="1.4" points="881.41,-1279.15 890.41,-1276 881.41,-1272.85 881.41,-1279.15"/>
</g>
<!-- lifecycle_verify -->
<g id="node18" class="node">
<title>lifecycle_verify</title>
<path fill="white" stroke="#b8c2cc" d="M1083,-1315.28C1083,-1315.28 1035,-1315.28 1035,-1315.28 1029,-1315.28 1023,-1309.28 1023,-1303.28 1023,-1303.28 1023,-1249.52 1023,-1249.52 1023,-1243.52 1029,-1237.52 1035,-1237.52 1035,-1237.52 1083,-1237.52 1083,-1237.52 1089,-1237.52 1095,-1243.52 1095,-1249.52 1095,-1249.52 1095,-1303.28 1095,-1303.28 1095,-1309.28 1089,-1315.28 1083,-1315.28"/>
<image xlink:href="D:\Projects\Services\architecture\icons\step_verify.png" width="72px" height="72px" preserveAspectRatio="xMinYMin meet" x="1023" y="-1315.28"/>
<text xml:space="preserve" text-anchor="middle" x="1059" y="-1242.27" font-family="Segoe UI" font-size="10.00">Verify</text>
</g>
<!-- lifecycle_sync&#45;&gt;lifecycle_verify -->
<g id="edge14" class="edge">
<title>lifecycle_sync&#45;&gt;lifecycle_verify</title>
<path fill="none" stroke="#4b5b6b" stroke-width="1.4" d="M965.21,-1276C965.21,-1276 1011.41,-1276 1011.41,-1276"/>
<polygon fill="#4b5b6b" stroke="#4b5b6b" stroke-width="1.4" points="1011.41,-1279.15 1020.41,-1276 1011.41,-1272.85 1011.41,-1279.15"/>
</g>
<!-- lifecycle_done -->
<g id="node19" class="node">
<title>lifecycle_done</title>
<path fill="white" stroke="#b8c2cc" d="M1221.32,-1315.28C1221.32,-1315.28 1164.68,-1315.28 1164.68,-1315.28 1158.68,-1315.28 1152.68,-1309.28 1152.68,-1303.28 1152.68,-1303.28 1152.68,-1249.52 1152.68,-1249.52 1152.68,-1243.52 1158.68,-1237.52 1164.68,-1237.52 1164.68,-1237.52 1221.32,-1237.52 1221.32,-1237.52 1227.32,-1237.52 1233.32,-1243.52 1233.32,-1249.52 1233.32,-1249.52 1233.32,-1303.28 1233.32,-1303.28 1233.32,-1309.28 1227.32,-1315.28 1221.32,-1315.28"/>
<image xlink:href="D:\Projects\Services\architecture\icons\step_done.png" width="77.76px" height="77.76px" preserveAspectRatio="xMinYMin meet" x="1154.12" y="-1315.28"/>
<text xml:space="preserve" text-anchor="middle" x="1193" y="-1242.27" font-family="Segoe UI" font-size="10.00">Done / Fail</text>
</g>
<!-- lifecycle_verify&#45;&gt;lifecycle_done -->
<g id="edge15" class="edge">
<title>lifecycle_verify&#45;&gt;lifecycle_done</title>
<path fill="none" stroke="#4b5b6b" stroke-width="1.4" d="M1095.26,-1276C1095.26,-1276 1141.34,-1276 1141.34,-1276"/>
<polygon fill="#4b5b6b" stroke="#4b5b6b" stroke-width="1.4" points="1141.34,-1279.15 1150.34,-1276 1141.34,-1272.85 1141.34,-1279.15"/>
</g>
<!-- desired_state -->
<g id="node21" class="node">
<title>desired_state</title>
<path fill="white" stroke="#b8c2cc" d="M1530.4,-1122.88C1530.4,-1122.88 1417.6,-1122.88 1417.6,-1122.88 1411.6,-1122.88 1405.6,-1116.88 1405.6,-1110.88 1405.6,-1110.88 1405.6,-1070.08 1405.6,-1070.08 1405.6,-1064.08 1411.6,-1058.08 1417.6,-1058.08 1417.6,-1058.08 1530.4,-1058.08 1530.4,-1058.08 1536.4,-1058.08 1542.4,-1064.08 1542.4,-1070.08 1542.4,-1070.08 1542.4,-1110.88 1542.4,-1110.88 1542.4,-1116.88 1536.4,-1122.88 1530.4,-1122.88"/>
<text xml:space="preserve" text-anchor="middle" x="1474" y="-1096.33" font-family="Segoe UI" font-size="12.00">Desired State</text>
<text xml:space="preserve" text-anchor="middle" x="1474" y="-1079.08" font-family="Segoe UI" font-size="12.00">values&#45;dev.yaml</text>
</g>
<!-- infra_repo&#45;&gt;desired_state -->
<g id="edge17" class="edge">
<title>infra_repo&#45;&gt;desired_state</title>
<path fill="none" stroke="#4b5b6b" stroke-width="1.4" d="M1348.09,-1090C1348.09,-1090 1394.15,-1090 1394.15,-1090"/>
<polygon fill="#4b5b6b" stroke="#4b5b6b" stroke-width="1.4" points="1394.15,-1093.15 1403.15,-1090 1394.15,-1086.85 1394.15,-1093.15"/>
</g>
<!-- argocd -->
<g id="node22" class="node">
<title>argocd</title>
<path fill="white" stroke="#b8c2cc" d="M1699.8,-1145.2C1699.8,-1145.2 1612.2,-1145.2 1612.2,-1145.2 1606.2,-1145.2 1600.2,-1139.2 1600.2,-1133.2 1600.2,-1133.2 1600.2,-1047.76 1600.2,-1047.76 1600.2,-1041.76 1606.2,-1035.76 1612.2,-1035.76 1612.2,-1035.76 1699.8,-1035.76 1699.8,-1035.76 1705.8,-1035.76 1711.8,-1041.76 1711.8,-1047.76 1711.8,-1047.76 1711.8,-1133.2 1711.8,-1133.2 1711.8,-1139.2 1705.8,-1145.2 1699.8,-1145.2"/>
<image xlink:href="D:\Projects\Services\architecture\icons\argocd.png" width="109.44px" height="109.44px" preserveAspectRatio="xMinYMin meet" x="1601.28" y="-1145.2"/>
<text xml:space="preserve" text-anchor="middle" x="1656" y="-1059.41" font-family="Segoe UI" font-size="13.00">ArgoCD</text>
<text xml:space="preserve" text-anchor="middle" x="1656" y="-1041.41" font-family="Segoe UI" font-size="13.00">sync + health</text>
</g>
<!-- desired_state&#45;&gt;argocd -->
<g id="edge18" class="edge">
<title>desired_state&#45;&gt;argocd</title>
<path fill="none" stroke="#4b5b6b" stroke-width="1.4" d="M1542.81,-1090C1542.81,-1090 1588.71,-1090 1588.71,-1090"/>
<polygon fill="#4b5b6b" stroke="#4b5b6b" stroke-width="1.4" points="1588.71,-1093.15 1597.71,-1090 1588.71,-1086.85 1588.71,-1093.15"/>
</g>
<!-- gitops_runtime_anchor -->
<!-- argocd&#45;&gt;gitops_runtime_anchor -->
<!-- argocd&#45;&gt;gitops_runtime_anchor -->
<g id="edge54" class="edge">
<title>argocd&#45;&gt;gitops_runtime_anchor</title>
<path fill="none" stroke="#2f5b8a" stroke-width="2.1" d="M1684.4,-1035.39C1684.4,-998.26 1684.4,-956 1684.4,-956 1684.4,-956 1661.08,-956 1656.7,-956"/>
</g>
<!-- k8s -->
<g id="node23" class="node">
<title>k8s</title>
<path fill="white" stroke="#b8c2cc" d="M1701.6,-877.04C1701.6,-877.04 1610.4,-877.04 1610.4,-877.04 1604.4,-877.04 1598.4,-871.04 1598.4,-865.04 1598.4,-865.04 1598.4,-773.84 1598.4,-773.84 1598.4,-767.84 1604.4,-761.84 1610.4,-761.84 1610.4,-761.84 1701.6,-761.84 1701.6,-761.84 1707.6,-761.84 1713.6,-767.84 1713.6,-773.84 1713.6,-773.84 1713.6,-865.04 1713.6,-865.04 1713.6,-871.04 1707.6,-877.04 1701.6,-877.04"/>
<image xlink:href="D:\Projects\Services\architecture\icons\kubernetes.png" width="115.2px" height="111.798px" preserveAspectRatio="xMinYMin meet" x="1598.4" y="-877.04"/>
<text xml:space="preserve" text-anchor="middle" x="1656" y="-785.49" font-family="Segoe UI" font-size="13.00">Kubernetes</text>
<text xml:space="preserve" text-anchor="middle" x="1656" y="-767.49" font-family="Segoe UI" font-size="13.00">k3d / k3s dev cluster</text>
</g>
<!-- ingress_nginx -->
<g id="node24" class="node">
<title>ingress_nginx</title>
<path fill="white" stroke="#b8c2cc" d="M1452.2,-876.32C1452.2,-876.32 1335.8,-876.32 1335.8,-876.32 1329.8,-876.32 1323.8,-870.32 1323.8,-864.32 1323.8,-864.32 1323.8,-774.56 1323.8,-774.56 1323.8,-768.56 1329.8,-762.56 1335.8,-762.56 1335.8,-762.56 1452.2,-762.56 1452.2,-762.56 1458.2,-762.56 1464.2,-768.56 1464.2,-774.56 1464.2,-774.56 1464.2,-864.32 1464.2,-864.32 1464.2,-870.32 1458.2,-876.32 1452.2,-876.32"/>
<image xlink:href="D:\Projects\Services\architecture\icons\nginx.png" width="113.76px" height="113.76px" preserveAspectRatio="xMinYMin meet" x="1337.12" y="-876.32"/>
<text xml:space="preserve" text-anchor="middle" x="1394" y="-786.21" font-family="Segoe UI" font-size="13.00">NGINX Ingress</text>
<text xml:space="preserve" text-anchor="middle" x="1394" y="-768.21" font-family="Segoe UI" font-size="13.00">HTTP :80 / HTTPS :443</text>
</g>
<!-- k8s&#45;&gt;ingress_nginx -->
<g id="edge19" class="edge">
<title>k8s&#45;&gt;ingress_nginx</title>
<path fill="none" stroke="#4b5b6b" stroke-width="1.4" d="M1598.18,-819C1598.18,-819 1475.38,-819 1475.38,-819"/>
<polygon fill="#4b5b6b" stroke="#4b5b6b" stroke-width="1.4" points="1475.38,-815.85 1466.38,-819 1475.38,-822.15 1475.38,-815.85"/>
</g>
<!-- kafka -->
<g id="node39" class="node">
<title>kafka</title>
<path fill="white" stroke="#b8c2cc" d="M2013.8,-682.84C2013.8,-682.84 1926.2,-682.84 1926.2,-682.84 1920.2,-682.84 1914.2,-676.84 1914.2,-670.84 1914.2,-670.84 1914.2,-586.84 1914.2,-586.84 1914.2,-580.84 1920.2,-574.84 1926.2,-574.84 1926.2,-574.84 2013.8,-574.84 2013.8,-574.84 2019.8,-574.84 2025.8,-580.84 2025.8,-586.84 2025.8,-586.84 2025.8,-670.84 2025.8,-670.84 2025.8,-676.84 2019.8,-682.84 2013.8,-682.84"/>
<image xlink:href="D:\Projects\Services\architecture\icons\kafka.png" width="108px" height="108px" preserveAspectRatio="xMinYMin meet" x="1916" y="-682.84"/>
<text xml:space="preserve" text-anchor="middle" x="1970" y="-616.49" font-family="Segoe UI" font-size="13.00">Kafka Runtime</text>
<text xml:space="preserve" text-anchor="middle" x="1970" y="-598.49" font-family="Segoe UI" font-size="13.00">kafka :9092</text>
<text xml:space="preserve" text-anchor="middle" x="1970" y="-580.49" font-family="Segoe UI" font-size="13.00">jmx :7071</text>
</g>
<!-- k8s&#45;&gt;kafka -->
<g id="edge61" class="edge">
<title>k8s&#45;&gt;kafka</title>
<path fill="none" stroke="#7f8c8d" stroke-width="1.2" stroke-dasharray="5,2" d="M1713.96,-791C1804.69,-791 1970,-791 1970,-791 1970,-791 1970,-694.1 1970,-694.1"/>
<polygon fill="#7f8c8d" stroke="#7f8c8d" stroke-width="1.2" points="1973.15,-694.1 1970,-685.1 1966.85,-694.1 1973.15,-694.1"/>
</g>
<!-- runtime_split_anchor -->
<!-- k8s&#45;&gt;runtime_split_anchor -->
<!-- k8s&#45;&gt;runtime_split_anchor -->
<g id="edge56" class="edge">
<title>k8s&#45;&gt;runtime_split_anchor</title>
<path fill="none" stroke="#2f5b8a" stroke-width="1.8" d="M1713.73,-819C1827.14,-819 2068.07,-819 2068.07,-819 2068.07,-819 2068.07,-629 2068.07,-629 2068.07,-629 2080.27,-629 2083.32,-629"/>
</g>
<!-- ingress_routes -->
<g id="node25" class="node">
<title>ingress_routes</title>
<path fill="white" stroke="#b8c2cc" d="M1433,-670.54C1433,-670.54 1277,-670.54 1277,-670.54 1271,-670.54 1265,-664.54 1265,-658.54 1265,-658.54 1265,-599.14 1265,-599.14 1265,-593.14 1271,-587.14 1277,-587.14 1277,-587.14 1433,-587.14 1433,-587.14 1439,-587.14 1445,-593.14 1445,-599.14 1445,-599.14 1445,-658.54 1445,-658.54 1445,-664.54 1439,-670.54 1433,-670.54"/>
<text xml:space="preserve" text-anchor="middle" x="1355" y="-651.94" font-family="Segoe UI" font-size="12.00">Ingress Routes</text>
<text xml:space="preserve" text-anchor="middle" x="1355" y="-634.69" font-family="Segoe UI" font-size="12.00">/ &#45;&gt; frontend</text>
<text xml:space="preserve" text-anchor="middle" x="1355" y="-617.44" font-family="Segoe UI" font-size="12.00">/api/products &#45;&gt; product</text>
<text xml:space="preserve" text-anchor="middle" x="1355" y="-600.19" font-family="Segoe UI" font-size="12.00">/api/orders &#45;&gt; order</text>
</g>
<!-- ingress_nginx&#45;&gt;ingress_routes -->
<g id="edge20" class="edge">
<title>ingress_nginx&#45;&gt;ingress_routes</title>
<path fill="none" stroke="#4b5b6b" stroke-width="1.4" d="M1384.4,-762.25C1384.4,-762.25 1384.4,-681.96 1384.4,-681.96"/>
<polygon fill="#4b5b6b" stroke="#4b5b6b" stroke-width="1.4" points="1387.55,-681.96 1384.4,-672.96 1381.25,-681.96 1387.55,-681.96"/>
</g>
<!-- frontend_svc -->
<g id="node26" class="node">
<title>frontend_svc</title>
<path fill="white" stroke="#b8c2cc" d="M1364.4,-495.84C1364.4,-495.84 1269.6,-495.84 1269.6,-495.84 1263.6,-495.84 1257.6,-489.84 1257.6,-483.84 1257.6,-483.84 1257.6,-405.6 1257.6,-405.6 1257.6,-399.6 1263.6,-393.6 1269.6,-393.6 1269.6,-393.6 1364.4,-393.6 1364.4,-393.6 1370.4,-393.6 1376.4,-399.6 1376.4,-405.6 1376.4,-405.6 1376.4,-483.84 1376.4,-483.84 1376.4,-489.84 1370.4,-495.84 1364.4,-495.84"/>
<image xlink:href="D:\Projects\Services\architecture\icons\service_frontend.png" width="102.24px" height="102.24px" preserveAspectRatio="xMinYMin meet" x="1265.88" y="-495.84"/>
<text xml:space="preserve" text-anchor="middle" x="1317" y="-417.25" font-family="Segoe UI" font-size="13.00">Frontend Service</text>
<text xml:space="preserve" text-anchor="middle" x="1317" y="-399.25" font-family="Segoe UI" font-size="13.00">ClusterIP :80</text>
</g>
<!-- ingress_routes&#45;&gt;frontend_svc -->
<g id="edge21" class="edge">
<title>ingress_routes&#45;&gt;frontend_svc</title>
<path fill="none" stroke="#4b5b6b" stroke-width="1.4" d="M1320.7,-587.06C1320.7,-587.06 1320.7,-507.31 1320.7,-507.31"/>
<polygon fill="#4b5b6b" stroke="#4b5b6b" stroke-width="1.4" points="1323.85,-507.31 1320.7,-498.31 1317.55,-507.31 1323.85,-507.31"/>
</g>
<!-- product_svc -->
<g id="node27" class="node">
<title>product_svc</title>
<path fill="white" stroke="#b8c2cc" d="M1701.92,-495.84C1701.92,-495.84 1602.08,-495.84 1602.08,-495.84 1596.08,-495.84 1590.08,-489.84 1590.08,-483.84 1590.08,-483.84 1590.08,-405.6 1590.08,-405.6 1590.08,-399.6 1596.08,-393.6 1602.08,-393.6 1602.08,-393.6 1701.92,-393.6 1701.92,-393.6 1707.92,-393.6 1713.92,-399.6 1713.92,-405.6 1713.92,-405.6 1713.92,-483.84 1713.92,-483.84 1713.92,-489.84 1707.92,-495.84 1701.92,-495.84"/>
<image xlink:href="D:\Projects\Services\architecture\icons\service_product.png" width="102.24px" height="102.24px" preserveAspectRatio="xMinYMin meet" x="1600.88" y="-495.84"/>
<text xml:space="preserve" text-anchor="middle" x="1652" y="-417.25" font-family="Segoe UI" font-size="13.00">Product Service</text>
<text xml:space="preserve" text-anchor="middle" x="1652" y="-399.25" font-family="Segoe UI" font-size="13.00">ClusterIP :8081</text>
</g>
<!-- ingress_routes&#45;&gt;product_svc -->
<g id="edge22" class="edge">
<title>ingress_routes&#45;&gt;product_svc</title>
<path fill="none" stroke="#4b5b6b" stroke-width="1.4" d="M1439.7,-586.76C1439.7,-544.62 1439.7,-486 1439.7,-486 1439.7,-486 1578.62,-486 1578.62,-486"/>
<polygon fill="#4b5b6b" stroke="#4b5b6b" stroke-width="1.4" points="1578.62,-489.15 1587.62,-486 1578.62,-482.85 1578.62,-489.15"/>
</g>
<!-- order_svc -->
<g id="node28" class="node">
<title>order_svc</title>
<path fill="white" stroke="#b8c2cc" d="M1017.92,-495.84C1017.92,-495.84 918.08,-495.84 918.08,-495.84 912.08,-495.84 906.08,-489.84 906.08,-483.84 906.08,-483.84 906.08,-405.6 906.08,-405.6 906.08,-399.6 912.08,-393.6 918.08,-393.6 918.08,-393.6 1017.92,-393.6 1017.92,-393.6 1023.92,-393.6 1029.92,-399.6 1029.92,-405.6 1029.92,-405.6 1029.92,-483.84 1029.92,-483.84 1029.92,-489.84 1023.92,-495.84 1017.92,-495.84"/>
<image xlink:href="D:\Projects\Services\architecture\icons\service_order.png" width="102.24px" height="102.24px" preserveAspectRatio="xMinYMin meet" x="916.88" y="-495.84"/>
<text xml:space="preserve" text-anchor="middle" x="968" y="-417.25" font-family="Segoe UI" font-size="13.00">Order Service</text>
<text xml:space="preserve" text-anchor="middle" x="968" y="-399.25" font-family="Segoe UI" font-size="13.00">ClusterIP :8080</text>
</g>
<!-- ingress_routes&#45;&gt;order_svc -->
<g id="edge23" class="edge">
<title>ingress_routes&#45;&gt;order_svc</title>
<path fill="none" stroke="#4b5b6b" stroke-width="1.4" d="M1264.84,-629C1157.91,-629 994,-629 994,-629 994,-629 994,-507.17 994,-507.17"/>
<polygon fill="#4b5b6b" stroke="#4b5b6b" stroke-width="1.4" points="997.15,-507.17 994,-498.17 990.85,-507.17 997.15,-507.17"/>
</g>
<!-- frontend -->
<g id="node29" class="node">
<title>frontend</title>
<path fill="white" stroke="#b8c2cc" d="M1252.8,-309.2C1252.8,-309.2 1165.2,-309.2 1165.2,-309.2 1159.2,-309.2 1153.2,-303.2 1153.2,-297.2 1153.2,-297.2 1153.2,-216.8 1153.2,-216.8 1153.2,-210.8 1159.2,-204.8 1165.2,-204.8 1165.2,-204.8 1252.8,-204.8 1252.8,-204.8 1258.8,-204.8 1264.8,-210.8 1264.8,-216.8 1264.8,-216.8 1264.8,-297.2 1264.8,-297.2 1264.8,-303.2 1258.8,-309.2 1252.8,-309.2"/>
<image xlink:href="D:\Projects\Services\architecture\icons\pod_frontend.png" width="104.4px" height="104.4px" preserveAspectRatio="xMinYMin meet" x="1156.8" y="-309.2"/>
<text xml:space="preserve" text-anchor="middle" x="1209" y="-228.45" font-family="Segoe UI" font-size="13.00">frontend</text>
<text xml:space="preserve" text-anchor="middle" x="1209" y="-210.45" font-family="Segoe UI" font-size="13.00">pod :80</text>
</g>
<!-- frontend_svc&#45;&gt;frontend -->
<g id="edge24" class="edge">
<title>frontend_svc&#45;&gt;frontend</title>
<path fill="none" stroke="#4b5b6b" stroke-width="1.4" d="M1261.2,-393.42C1261.2,-393.42 1261.2,-320.66 1261.2,-320.66"/>
<polygon fill="#4b5b6b" stroke="#4b5b6b" stroke-width="1.4" points="1264.35,-320.66 1261.2,-311.66 1258.05,-320.66 1264.35,-320.66"/>
</g>
<!-- product_api -->
<g id="node30" class="node">
<title>product_api</title>
<path fill="white" stroke="#b8c2cc" d="M1434.92,-309.2C1434.92,-309.2 1335.08,-309.2 1335.08,-309.2 1329.08,-309.2 1323.08,-303.2 1323.08,-297.2 1323.08,-297.2 1323.08,-216.8 1323.08,-216.8 1323.08,-210.8 1329.08,-204.8 1335.08,-204.8 1335.08,-204.8 1434.92,-204.8 1434.92,-204.8 1440.92,-204.8 1446.92,-210.8 1446.92,-216.8 1446.92,-216.8 1446.92,-297.2 1446.92,-297.2 1446.92,-303.2 1440.92,-309.2 1434.92,-309.2"/>
<image xlink:href="D:\Projects\Services\architecture\icons\pod_product.png" width="104.4px" height="104.4px" preserveAspectRatio="xMinYMin meet" x="1332.8" y="-309.2"/>
<text xml:space="preserve" text-anchor="middle" x="1385" y="-228.45" font-family="Segoe UI" font-size="13.00">product&#45;api</text>
<text xml:space="preserve" text-anchor="middle" x="1385" y="-210.45" font-family="Segoe UI" font-size="13.00">pod :8081</text>
</g>
<!-- product_svc&#45;&gt;product_api -->
<g id="edge25" class="edge">
<title>product_svc&#45;&gt;product_api</title>
<path fill="none" stroke="#4b5b6b" stroke-width="1.4" d="M1589.73,-404C1527.39,-404 1440.66,-404 1440.66,-404 1440.66,-404 1440.66,-320.77 1440.66,-320.77"/>
<polygon fill="#4b5b6b" stroke="#4b5b6b" stroke-width="1.4" points="1443.81,-320.77 1440.66,-311.77 1437.51,-320.77 1443.81,-320.77"/>
</g>
<!-- order_api -->
<g id="node31" class="node">
<title>order_api</title>
<path fill="white" stroke="#b8c2cc" d="M1082.92,-309.2C1082.92,-309.2 983.08,-309.2 983.08,-309.2 977.08,-309.2 971.08,-303.2 971.08,-297.2 971.08,-297.2 971.08,-216.8 971.08,-216.8 971.08,-210.8 977.08,-204.8 983.08,-204.8 983.08,-204.8 1082.92,-204.8 1082.92,-204.8 1088.92,-204.8 1094.92,-210.8 1094.92,-216.8 1094.92,-216.8 1094.92,-297.2 1094.92,-297.2 1094.92,-303.2 1088.92,-309.2 1082.92,-309.2"/>
<image xlink:href="D:\Projects\Services\architecture\icons\pod_order.png" width="104.4px" height="104.4px" preserveAspectRatio="xMinYMin meet" x="980.8" y="-309.2"/>
<text xml:space="preserve" text-anchor="middle" x="1033" y="-228.45" font-family="Segoe UI" font-size="13.00">order&#45;api</text>
<text xml:space="preserve" text-anchor="middle" x="1033" y="-210.45" font-family="Segoe UI" font-size="13.00">pod :8080</text>
</g>
<!-- order_svc&#45;&gt;order_api -->
<g id="edge26" class="edge">
<title>order_svc&#45;&gt;order_api</title>
<path fill="none" stroke="#4b5b6b" stroke-width="1.4" d="M1000.5,-393.42C1000.5,-393.42 1000.5,-320.66 1000.5,-320.66"/>
<polygon fill="#4b5b6b" stroke="#4b5b6b" stroke-width="1.4" points="1003.65,-320.66 1000.5,-311.66 997.35,-320.66 1003.65,-320.66"/>
</g>
<!-- postgres -->
<g id="node32" class="node">
<title>postgres</title>
<path fill="white" stroke="#b8c2cc" d="M1365.6,-120.4C1365.6,-120.4 1292.4,-120.4 1292.4,-120.4 1286.4,-120.4 1280.4,-114.4 1280.4,-108.4 1280.4,-108.4 1280.4,-28 1280.4,-28 1280.4,-22 1286.4,-16 1292.4,-16 1292.4,-16 1365.6,-16 1365.6,-16 1371.6,-16 1377.6,-22 1377.6,-28 1377.6,-28 1377.6,-108.4 1377.6,-108.4 1377.6,-114.4 1371.6,-120.4 1365.6,-120.4"/>
<image xlink:href="D:\Projects\Services\architecture\icons\postgres.png" width="97.2px" height="97.2px" preserveAspectRatio="xMinYMin meet" x="1280.4" y="-120.4"/>
<text xml:space="preserve" text-anchor="middle" x="1329" y="-39.65" font-family="Segoe UI" font-size="13.00">Postgres</text>
<text xml:space="preserve" text-anchor="middle" x="1329" y="-21.65" font-family="Segoe UI" font-size="13.00">db :5432</text>
</g>
<!-- product_api&#45;&gt;postgres -->
<g id="edge27" class="edge">
<title>product_api&#45;&gt;postgres</title>
<path fill="none" stroke="#4b5b6b" stroke-width="1.4" d="M1359.43,-204.41C1359.43,-204.41 1359.43,-131.96 1359.43,-131.96"/>
<polygon fill="#4b5b6b" stroke="#4b5b6b" stroke-width="1.4" points="1362.58,-131.96 1359.43,-122.96 1356.28,-131.96 1362.58,-131.96"/>
</g>
<!-- order_api&#45;&gt;postgres -->
<g id="edge28" class="edge">
<title>order_api&#45;&gt;postgres</title>
<path fill="none" stroke="#4b5b6b" stroke-width="1.4" d="M1073.15,-204.7C1073.15,-162.81 1073.15,-111 1073.15,-111 1073.15,-111 1268.85,-111 1268.85,-111"/>
<polygon fill="#4b5b6b" stroke="#4b5b6b" stroke-width="1.4" points="1268.85,-114.15 1277.85,-111 1268.85,-107.85 1268.85,-114.15"/>
</g>
<!-- vault -->
<g id="node33" class="node">
<title>vault</title>
<path fill="white" stroke="#b8c2cc" d="M931.6,-871.64C931.6,-871.64 858.4,-871.64 858.4,-871.64 852.4,-871.64 846.4,-865.64 846.4,-859.64 846.4,-859.64 846.4,-779.24 846.4,-779.24 846.4,-773.24 852.4,-767.24 858.4,-767.24 858.4,-767.24 931.6,-767.24 931.6,-767.24 937.6,-767.24 943.6,-773.24 943.6,-779.24 943.6,-779.24 943.6,-859.64 943.6,-859.64 943.6,-865.64 937.6,-871.64 931.6,-871.64"/>
<image xlink:href="D:\Projects\Services\architecture\icons\vault.png" width="97.2px" height="97.2px" preserveAspectRatio="xMinYMin meet" x="846.4" y="-871.64"/>
<text xml:space="preserve" text-anchor="middle" x="895" y="-790.89" font-family="Segoe UI" font-size="13.00">Vault</text>
<text xml:space="preserve" text-anchor="middle" x="895" y="-772.89" font-family="Segoe UI" font-size="13.00">svc :8200</text>
</g>
<!-- secretstore -->
<g id="node34" class="node">
<title>secretstore</title>
<path fill="white" stroke="#b8c2cc" d="M960,-100.6C960,-100.6 858,-100.6 858,-100.6 852,-100.6 846,-94.6 846,-88.6 846,-88.6 846,-47.8 846,-47.8 846,-41.8 852,-35.8 858,-35.8 858,-35.8 960,-35.8 960,-35.8 966,-35.8 972,-41.8 972,-47.8 972,-47.8 972,-88.6 972,-88.6 972,-94.6 966,-100.6 960,-100.6"/>
<text xml:space="preserve" text-anchor="middle" x="909" y="-74.05" font-family="Segoe UI" font-size="12.00">Secrets Store</text>
<text xml:space="preserve" text-anchor="middle" x="909" y="-56.8" font-family="Segoe UI" font-size="12.00">vault&#45;backend</text>
</g>
<!-- vault&#45;&gt;secretstore -->
<g id="edge29" class="edge">
<title>vault&#45;&gt;secretstore</title>
<path fill="none" stroke="#7f8c8d" stroke-width="1.4" stroke-dasharray="5,2" d="M876.24,-766.91C876.24,-766.91 876.24,-112.14 876.24,-112.14"/>
<polygon fill="#7f8c8d" stroke="#7f8c8d" stroke-width="1.4" points="879.39,-112.14 876.24,-103.14 873.09,-112.14 879.39,-112.14"/>
</g>
<!-- externalsecrets -->
<g id="node35" class="node">
<title>externalsecrets</title>
<path fill="white" stroke="#b8c2cc" d="M1154.4,-100.6C1154.4,-100.6 1041.6,-100.6 1041.6,-100.6 1035.6,-100.6 1029.6,-94.6 1029.6,-88.6 1029.6,-88.6 1029.6,-47.8 1029.6,-47.8 1029.6,-41.8 1035.6,-35.8 1041.6,-35.8 1041.6,-35.8 1154.4,-35.8 1154.4,-35.8 1160.4,-35.8 1166.4,-41.8 1166.4,-47.8 1166.4,-47.8 1166.4,-88.6 1166.4,-88.6 1166.4,-94.6 1160.4,-100.6 1154.4,-100.6"/>
<text xml:space="preserve" text-anchor="middle" x="1098" y="-74.05" font-family="Segoe UI" font-size="12.00">External Secrets</text>
<text xml:space="preserve" text-anchor="middle" x="1098" y="-56.8" font-family="Segoe UI" font-size="12.00">operator + sync</text>
</g>
<!-- secretstore&#45;&gt;externalsecrets -->
<g id="edge30" class="edge">
<title>secretstore&#45;&gt;externalsecrets</title>
<path fill="none" stroke="#7f8c8d" stroke-width="1.4" stroke-dasharray="5,2" d="M972.46,-68C972.46,-68 1018.07,-68 1018.07,-68"/>
<polygon fill="#7f8c8d" stroke="#7f8c8d" stroke-width="1.4" points="1018.07,-71.15 1027.07,-68 1018.07,-64.85 1018.07,-71.15"/>
</g>
<!-- externalsecrets&#45;&gt;product_api -->
<g id="edge31" class="edge">
<title>externalsecrets&#45;&gt;product_api</title>
<path fill="none" stroke="#7f8c8d" stroke-width="1.4" stroke-dasharray="5,2" d="M1159.8,-101.07C1159.8,-131.81 1159.8,-173 1159.8,-173 1159.8,-173 1341.25,-173 1341.25,-173 1341.25,-173 1341.25,-193.64 1341.25,-193.64"/>
<polygon fill="#7f8c8d" stroke="#7f8c8d" stroke-width="1.4" points="1338.1,-193.64 1341.25,-202.64 1344.4,-193.64 1338.1,-193.64"/>
</g>
<!-- externalsecrets&#45;&gt;order_api -->
<g id="edge32" class="edge">
<title>externalsecrets&#45;&gt;order_api</title>
<path fill="none" stroke="#7f8c8d" stroke-width="1.4" stroke-dasharray="5,2" d="M1051.37,-101.09C1051.37,-101.09 1051.37,-193.43 1051.37,-193.43"/>
<polygon fill="#7f8c8d" stroke="#7f8c8d" stroke-width="1.4" points="1048.22,-193.43 1051.37,-202.43 1054.52,-193.43 1048.22,-193.43"/>
</g>
<!-- promtail -->
<g id="node36" class="node">
<title>promtail</title>
<path fill="white" stroke="#b8c2cc" d="M1519.6,-475.32C1519.6,-475.32 1446.4,-475.32 1446.4,-475.32 1440.4,-475.32 1434.4,-469.32 1434.4,-463.32 1434.4,-463.32 1434.4,-426.12 1434.4,-426.12 1434.4,-420.12 1440.4,-414.12 1446.4,-414.12 1446.4,-414.12 1519.6,-414.12 1519.6,-414.12 1525.6,-414.12 1531.6,-420.12 1531.6,-426.12 1531.6,-426.12 1531.6,-463.32 1531.6,-463.32 1531.6,-469.32 1525.6,-475.32 1519.6,-475.32"/>
<text xml:space="preserve" text-anchor="middle" x="1483" y="-450.57" font-family="Segoe UI" font-size="12.00">Promtail</text>
<text xml:space="preserve" text-anchor="middle" x="1483" y="-433.32" font-family="Segoe UI" font-size="12.00">node logs</text>
</g>
<!-- traffic_generator -->
<g id="node37" class="node">
<title>traffic_generator</title>
<path fill="white" stroke="#b8c2cc" d="M1187.8,-475.32C1187.8,-475.32 1100.2,-475.32 1100.2,-475.32 1094.2,-475.32 1088.2,-469.32 1088.2,-463.32 1088.2,-463.32 1088.2,-426.12 1088.2,-426.12 1088.2,-420.12 1094.2,-414.12 1100.2,-414.12 1100.2,-414.12 1187.8,-414.12 1187.8,-414.12 1193.8,-414.12 1199.8,-420.12 1199.8,-426.12 1199.8,-426.12 1199.8,-463.32 1199.8,-463.32 1199.8,-469.32 1193.8,-475.32 1187.8,-475.32"/>
<text xml:space="preserve" text-anchor="middle" x="1144" y="-450.57" font-family="Segoe UI" font-size="12.00">Traffic Generator</text>
<text xml:space="preserve" text-anchor="middle" x="1144" y="-433.32" font-family="Segoe UI" font-size="12.00">3 load pods</text>
</g>
<!-- traffic_generator&#45;&gt;frontend -->
<g id="edge33" class="edge">
<title>traffic_generator&#45;&gt;frontend</title>
<path fill="none" stroke="#7f8c8d" stroke-width="1.4" stroke-dasharray="5,2" d="M1176.5,-413.72C1176.5,-413.72 1176.5,-320.47 1176.5,-320.47"/>
<polygon fill="#7f8c8d" stroke="#7f8c8d" stroke-width="1.4" points="1179.65,-320.47 1176.5,-311.47 1173.35,-320.47 1179.65,-320.47"/>
</g>
<!-- docker_compose -->
<g id="node38" class="node">
<title>docker_compose</title>
<path fill="white" stroke="#b8c2cc" d="M1844.4,-682.84C1844.4,-682.84 1749.6,-682.84 1749.6,-682.84 1743.6,-682.84 1737.6,-676.84 1737.6,-670.84 1737.6,-670.84 1737.6,-586.84 1737.6,-586.84 1737.6,-580.84 1743.6,-574.84 1749.6,-574.84 1749.6,-574.84 1844.4,-574.84 1844.4,-574.84 1850.4,-574.84 1856.4,-580.84 1856.4,-586.84 1856.4,-586.84 1856.4,-670.84 1856.4,-670.84 1856.4,-676.84 1850.4,-682.84 1844.4,-682.84"/>
<image xlink:href="D:\Projects\Services\architecture\icons\docker.png" width="108px" height="108px" preserveAspectRatio="xMinYMin meet" x="1743" y="-682.84"/>
<text xml:space="preserve" text-anchor="middle" x="1797" y="-598.49" font-family="Segoe UI" font-size="13.00">Docker Compose</text>
<text xml:space="preserve" text-anchor="middle" x="1797" y="-580.49" font-family="Segoe UI" font-size="13.00">host runtime</text>
</g>
<!-- docker_compose&#45;&gt;kafka -->
<g id="edge34" class="edge">
<title>docker_compose&#45;&gt;kafka</title>
<path fill="none" stroke="#4b5b6b" stroke-width="1.4" d="M1856.54,-629C1856.54,-629 1902.73,-629 1902.73,-629"/>
<polygon fill="#4b5b6b" stroke="#4b5b6b" stroke-width="1.4" points="1902.73,-632.15 1911.73,-629 1902.73,-625.85 1902.73,-632.15"/>
</g>
<!-- validation -->
<g id="node40" class="node">
<title>validation</title>
<path fill="white" stroke="#b8c2cc" d="M2048.6,-314.6C2048.6,-314.6 1939.4,-314.6 1939.4,-314.6 1933.4,-314.6 1927.4,-308.6 1927.4,-302.6 1927.4,-302.6 1927.4,-211.4 1927.4,-211.4 1927.4,-205.4 1933.4,-199.4 1939.4,-199.4 1939.4,-199.4 2048.6,-199.4 2048.6,-199.4 2054.6,-199.4 2060.6,-205.4 2060.6,-211.4 2060.6,-211.4 2060.6,-302.6 2060.6,-302.6 2060.6,-308.6 2054.6,-314.6 2048.6,-314.6"/>
<image xlink:href="D:\Projects\Services\architecture\icons\playwright_custom.png" width="115.2px" height="115.2px" preserveAspectRatio="xMinYMin meet" x="1936.4" y="-314.6"/>
<text xml:space="preserve" text-anchor="middle" x="1994" y="-223.05" font-family="Segoe UI" font-size="13.00">Validation Engine</text>
<text xml:space="preserve" text-anchor="middle" x="1994" y="-205.05" font-family="Segoe UI" font-size="13.00">project&#45;validation</text>
</g>
<!-- validation_report -->
<g id="node41" class="node">
<title>validation_report</title>
<path fill="white" stroke="#b8c2cc" d="M2426.6,-314.6C2426.6,-314.6 2299.4,-314.6 2299.4,-314.6 2293.4,-314.6 2287.4,-308.6 2287.4,-302.6 2287.4,-302.6 2287.4,-211.4 2287.4,-211.4 2287.4,-205.4 2293.4,-199.4 2299.4,-199.4 2299.4,-199.4 2426.6,-199.4 2426.6,-199.4 2432.6,-199.4 2438.6,-205.4 2438.6,-211.4 2438.6,-211.4 2438.6,-302.6 2438.6,-302.6 2438.6,-308.6 2432.6,-314.6 2426.6,-314.6"/>
<image xlink:href="D:\Projects\Services\architecture\icons\report_custom.png" width="115.2px" height="115.2px" preserveAspectRatio="xMinYMin meet" x="2305.4" y="-314.6"/>
<text xml:space="preserve" text-anchor="middle" x="2363" y="-223.05" font-family="Segoe UI" font-size="13.00">Validation Report</text>
<text xml:space="preserve" text-anchor="middle" x="2363" y="-205.05" font-family="Segoe UI" font-size="13.00">FINAL_E2E_REPORT</text>
</g>
<!-- validation&#45;&gt;validation_report -->
<g id="edge35" class="edge">
<title>validation&#45;&gt;validation_report</title>
<path fill="none" stroke="#4b5b6b" stroke-width="1.4" d="M2037.4,-314.88C2037.4,-329.43 2037.4,-341 2037.4,-341 2037.4,-341 2363,-341 2363,-341 2363,-341 2363,-326 2363,-326"/>
<polygon fill="#4b5b6b" stroke="#4b5b6b" stroke-width="1.4" points="2366.15,-326 2363,-317 2359.85,-326 2366.15,-326"/>
</g>
<!-- proof_scope -->
<g id="node42" class="node">
<title>proof_scope</title>
<path fill="white" stroke="#b8c2cc" d="M2444.39,-97.72C2444.39,-97.72 2257.61,-97.72 2257.61,-97.72 2251.61,-97.72 2245.61,-91.72 2245.61,-85.72 2245.61,-85.72 2245.61,-50.68 2245.61,-50.68 2245.61,-44.68 2251.61,-38.68 2257.61,-38.68 2257.61,-38.68 2444.39,-38.68 2444.39,-38.68 2450.39,-38.68 2456.39,-44.68 2456.39,-50.68 2456.39,-50.68 2456.39,-85.72 2456.39,-85.72 2456.39,-91.72 2450.39,-97.72 2444.39,-97.72"/>
<text xml:space="preserve" text-anchor="middle" x="2351" y="-65.25" font-family="Segoe UI" font-size="11.00">GitHub | GitOps | UI | Vault | Kafka | Obs</text>
</g>
<!-- validation&#45;&gt;proof_scope -->
<g id="edge36" class="edge">
<title>validation&#45;&gt;proof_scope</title>
<path fill="none" stroke="#7a8794" stroke-width="1.4" stroke-dasharray="5,2" d="M1994,-199.01C1994,-143.45 1994,-68 1994,-68 1994,-68 2234.22,-68 2234.22,-68"/>
<polygon fill="#7a8794" stroke="#7a8794" stroke-width="1.4" points="2234.22,-71.15 2243.22,-68 2234.22,-64.85 2234.22,-71.15"/>
</g>
<!-- prometheus -->
<g id="node43" class="node">
<title>prometheus</title>
<path fill="white" stroke="#b8c2cc" d="M2217.8,-311.72C2217.8,-311.72 2130.2,-311.72 2130.2,-311.72 2124.2,-311.72 2118.2,-305.72 2118.2,-299.72 2118.2,-299.72 2118.2,-214.28 2118.2,-214.28 2118.2,-208.28 2124.2,-202.28 2130.2,-202.28 2130.2,-202.28 2217.8,-202.28 2217.8,-202.28 2223.8,-202.28 2229.8,-208.28 2229.8,-214.28 2229.8,-214.28 2229.8,-299.72 2229.8,-299.72 2229.8,-305.72 2223.8,-311.72 2217.8,-311.72"/>
<image xlink:href="D:\Projects\Services\architecture\icons\prometheus.png" width="109.44px" height="109.44px" preserveAspectRatio="xMinYMin meet" x="2119.28" y="-311.72"/>
<text xml:space="preserve" text-anchor="middle" x="2174" y="-225.93" font-family="Segoe UI" font-size="13.00">Prometheus</text>
<text xml:space="preserve" text-anchor="middle" x="2174" y="-207.93" font-family="Segoe UI" font-size="13.00">metrics</text>
</g>
<!-- grafana -->
<g id="node46" class="node">
<title>grafana</title>
<path fill="white" stroke="#b8c2cc" d="M2932.2,-311.72C2932.2,-311.72 2851.8,-311.72 2851.8,-311.72 2845.8,-311.72 2839.8,-305.72 2839.8,-299.72 2839.8,-299.72 2839.8,-214.28 2839.8,-214.28 2839.8,-208.28 2845.8,-202.28 2851.8,-202.28 2851.8,-202.28 2932.2,-202.28 2932.2,-202.28 2938.2,-202.28 2944.2,-208.28 2944.2,-214.28 2944.2,-214.28 2944.2,-299.72 2944.2,-299.72 2944.2,-305.72 2938.2,-311.72 2932.2,-311.72"/>
<image xlink:href="D:\Projects\Services\architecture\icons\grafana.png" width="104.4px" height="104.4px" preserveAspectRatio="xMinYMin meet" x="2839.8" y="-311.72"/>
<text xml:space="preserve" text-anchor="middle" x="2892" y="-225.93" font-family="Segoe UI" font-size="13.00">Grafana</text>
<text xml:space="preserve" text-anchor="middle" x="2892" y="-207.93" font-family="Segoe UI" font-size="13.00">dashboards</text>
</g>
<!-- prometheus&#45;&gt;grafana -->
<g id="edge37" class="edge">
<title>prometheus&#45;&gt;grafana</title>
<path fill="none" stroke="#4b5b6b" stroke-width="1.4" d="M2172.6,-312C2172.6,-339.5 2172.6,-367 2172.6,-367 2172.6,-367 2892,-367 2892,-367 2892,-367 2892,-323.12 2892,-323.12"/>
<polygon fill="#4b5b6b" stroke="#4b5b6b" stroke-width="1.4" points="2895.15,-323.12 2892,-314.12 2888.85,-323.12 2895.15,-323.12"/>
</g>
<!-- loki -->
<g id="node44" class="node">
<title>loki</title>
<path fill="white" stroke="#b8c2cc" d="M2600.2,-311.72C2600.2,-311.72 2519.8,-311.72 2519.8,-311.72 2513.8,-311.72 2507.8,-305.72 2507.8,-299.72 2507.8,-299.72 2507.8,-214.28 2507.8,-214.28 2507.8,-208.28 2513.8,-202.28 2519.8,-202.28 2519.8,-202.28 2600.2,-202.28 2600.2,-202.28 2606.2,-202.28 2612.2,-208.28 2612.2,-214.28 2612.2,-214.28 2612.2,-299.72 2612.2,-299.72 2612.2,-305.72 2606.2,-311.72 2600.2,-311.72"/>
<image xlink:href="D:\Projects\Services\architecture\icons\loki.png" width="104.4px" height="61.6282px" preserveAspectRatio="xMinYMin meet" x="2507.8" y="-311.72"/>
<text xml:space="preserve" text-anchor="middle" x="2560" y="-225.93" font-family="Segoe UI" font-size="13.00">Loki</text>
<text xml:space="preserve" text-anchor="middle" x="2560" y="-207.93" font-family="Segoe UI" font-size="13.00">logs</text>
</g>
<!-- loki&#45;&gt;grafana -->
<g id="edge38" class="edge">
<title>loki&#45;&gt;grafana</title>
<path fill="none" stroke="#7f8c8d" stroke-width="1.4" stroke-dasharray="5,2" d="M2560,-202C2560,-174.5 2560,-147 2560,-147 2560,-147 2892,-147 2892,-147 2892,-147 2892,-190.88 2892,-190.88"/>
<polygon fill="#7f8c8d" stroke="#7f8c8d" stroke-width="1.4" points="2888.85,-190.88 2892,-199.88 2895.15,-190.88 2888.85,-190.88"/>
</g>
<!-- tempo -->
<g id="node45" class="node">
<title>tempo</title>
<path fill="white" stroke="#b8c2cc" d="M2769.8,-311.72C2769.8,-311.72 2682.2,-311.72 2682.2,-311.72 2676.2,-311.72 2670.2,-305.72 2670.2,-299.72 2670.2,-299.72 2670.2,-214.28 2670.2,-214.28 2670.2,-208.28 2676.2,-202.28 2682.2,-202.28 2682.2,-202.28 2769.8,-202.28 2769.8,-202.28 2775.8,-202.28 2781.8,-208.28 2781.8,-214.28 2781.8,-214.28 2781.8,-299.72 2781.8,-299.72 2781.8,-305.72 2775.8,-311.72 2769.8,-311.72"/>
<image xlink:href="D:\Projects\Services\architecture\icons\tempo.png" width="111.6px" height="14.858px" preserveAspectRatio="xMinYMin meet" x="2670.2" y="-311.72"/>
<text xml:space="preserve" text-anchor="middle" x="2726" y="-225.93" font-family="Segoe UI" font-size="13.00">Tempo</text>
<text xml:space="preserve" text-anchor="middle" x="2726" y="-207.93" font-family="Segoe UI" font-size="13.00">traces</text>
</g>
<!-- tempo&#45;&gt;grafana -->
<g id="edge39" class="edge">
<title>tempo&#45;&gt;grafana</title>
<path fill="none" stroke="#7f8c8d" stroke-width="1.4" stroke-dasharray="5,2" d="M2782.2,-257C2782.2,-257 2828.38,-257 2828.38,-257"/>
<polygon fill="#7f8c8d" stroke="#7f8c8d" stroke-width="1.4" points="2828.38,-260.15 2837.38,-257 2828.38,-253.85 2828.38,-260.15"/>
</g>
<!-- ci_gitops_anchor&#45;&gt;infra_repo -->
<!-- ci_gitops_anchor&#45;&gt;infra_repo -->
<g id="edge53" class="edge">
<title>ci_gitops_anchor&#45;&gt;infra_repo</title>
<path fill="none" stroke="#2f5b8a" stroke-width="2.1" d="M1292,-1275.57C1292,-1275.57 1292,-1157.69 1292,-1157.69"/>
<polygon fill="#2f5b8a" stroke="#2f5b8a" stroke-width="2.1" points="1295.15,-1157.69 1292,-1148.69 1288.85,-1157.69 1295.15,-1157.69"/>
</g>
<!-- gitops_runtime_anchor&#45;&gt;k8s -->
<!-- gitops_runtime_anchor&#45;&gt;k8s -->
<g id="edge55" class="edge">
<title>gitops_runtime_anchor&#45;&gt;k8s</title>
<path fill="none" stroke="#2f5b8a" stroke-width="2.1" d="M1655.3,-956C1650.92,-956 1627.6,-956 1627.6,-956 1627.6,-956 1627.6,-889.53 1627.6,-889.53"/>
<polygon fill="#2f5b8a" stroke="#2f5b8a" stroke-width="2.1" points="1630.75,-889.53 1627.6,-880.53 1624.45,-889.53 1630.75,-889.53"/>
</g>
<!-- validation_anchor -->
<!-- runtime_split_anchor&#45;&gt;validation_anchor -->
<!-- runtime_split_anchor&#45;&gt;validation_anchor -->
<g id="edge57" class="edge">
<title>runtime_split_anchor&#45;&gt;validation_anchor</title>
<path fill="none" stroke="#2f5b8a" stroke-width="1.6" d="M2083.67,-629.43C2083.67,-637.37 2083.67,-722 2083.67,-722 2083.67,-722 1885.3,-722 1885.3,-722 1885.3,-722 1885.3,-445 1885.3,-445 1885.3,-445 2012.18,-445 2012.18,-445"/>
<polygon fill="#2f5b8a" stroke="#2f5b8a" stroke-width="1.6" points="2012.18,-448.15 2021.18,-445 2012.18,-441.85 2012.18,-448.15"/>
</g>
<!-- observability_anchor -->
<!-- runtime_split_anchor&#45;&gt;observability_anchor -->
<!-- runtime_split_anchor&#45;&gt;observability_anchor -->
<g id="edge59" class="edge">
<title>runtime_split_anchor&#45;&gt;observability_anchor</title>
<path fill="none" stroke="#7f8c8d" stroke-width="1.3" stroke-dasharray="5,2" d="M2084.66,-629C2091.14,-629 2143,-629 2143,-629 2143,-629 2143,-456.51 2143,-456.51"/>
<polygon fill="#7f8c8d" stroke="#7f8c8d" stroke-width="1.3" points="2146.15,-456.51 2143,-447.51 2139.85,-456.51 2146.15,-456.51"/>
</g>
<!-- validation_anchor&#45;&gt;validation -->
<!-- validation_anchor&#45;&gt;validation -->
<g id="edge58" class="edge">
<title>validation_anchor&#45;&gt;validation</title>
<path fill="none" stroke="#2f5b8a" stroke-width="1.8" d="M2024.28,-444C2027.03,-444 2049,-444 2049,-444 2049,-444 2049,-326.61 2049,-326.61"/>
<polygon fill="#2f5b8a" stroke="#2f5b8a" stroke-width="1.8" points="2052.15,-326.61 2049,-317.61 2045.85,-326.61 2052.15,-326.61"/>
</g>
<!-- observability_anchor&#45;&gt;prometheus -->
<!-- observability_anchor&#45;&gt;prometheus -->
<g id="edge60" class="edge">
<title>observability_anchor&#45;&gt;prometheus</title>
<path fill="none" stroke="#7f8c8d" stroke-width="1.3" stroke-dasharray="5,2" d="M2142.45,-445C2139.98,-445 2130.1,-445 2130.1,-445 2130.1,-445 2130.1,-323.1 2130.1,-323.1"/>
<polygon fill="#7f8c8d" stroke="#7f8c8d" stroke-width="1.3" points="2133.25,-323.1 2130.1,-314.1 2126.95,-323.1 2133.25,-323.1"/>
</g>
</g>
</svg>
