<?xml version="1.0" encoding="UTF-8" standalone="no"?>
<!DOCTYPE svg PUBLIC "-//W3C//DTD SVG 1.1//EN"
 "http://www.w3.org/Graphics/SVG/1.1/DTD/svg11.dtd">
<!-- Generated by graphviz version 14.1.4 (20260321.0153)
 -->
<!-- Title: LeninKart Platform Pages: 1 -->
<svg width="3267pt" height="9449pt"
 viewBox="48.00 48.00 3219.00 9400.00" xmlns="http://www.w3.org/2000/svg" xmlns:xlink="http://www.w3.org/1999/xlink">
<g id="graph0" class="graph" transform="scale(3.05556 3.05556) rotate(0) translate(44.64 3047.69)">
<title>LeninKart Platform</title>
<polygon fill="white" stroke="none" points="-28.8,28.8 -28.8,-3031.85 1008.8,-3031.85 1008.8,28.8 -28.8,28.8"/>
<text xml:space="preserve" text-anchor="middle" x="490" y="-2980.05" font-family="Segoe UI" font-size="20.00" fill="#2d3436">LeninKart Platform</text>
<g id="clust1" class="cluster">
<title>cluster_Request Layer</title>
<path fill="#e5f5fd" stroke="#aeb6be" d="M163,-2611.7C163,-2611.7 239,-2611.7 239,-2611.7 245,-2611.7 251,-2617.7 251,-2623.7 251,-2623.7 251,-2948.05 251,-2948.05 251,-2954.05 245,-2960.05 239,-2960.05 239,-2960.05 163,-2960.05 163,-2960.05 157,-2960.05 151,-2954.05 151,-2948.05 151,-2948.05 151,-2623.7 151,-2623.7 151,-2617.7 157,-2611.7 163,-2611.7"/>
<text xml:space="preserve" text-anchor="middle" x="196.12" y="-2944.65" font-family="Sans-Serif" font-size="12.00" fill="#2d3436">Request Layer</text>
</g>
<g id="clust2" class="cluster">
<title>cluster_CI / Control Plane</title>
<path fill="#e5f5fd" stroke="#aeb6be" d="M119,-1599.4C119,-1599.4 328,-1599.4 328,-1599.4 334,-1599.4 340,-1605.4 340,-1611.4 340,-1611.4 340,-2565.7 340,-2565.7 340,-2571.7 334,-2577.7 328,-2577.7 328,-2577.7 119,-2577.7 119,-2577.7 113,-2577.7 107,-2571.7 107,-2565.7 107,-2565.7 107,-1611.4 107,-1611.4 107,-1605.4 113,-1599.4 119,-1599.4"/>
<text xml:space="preserve" text-anchor="middle" x="162.62" y="-2562.3" font-family="Sans-Serif" font-size="12.00" fill="#2d3436">CI / Control Plane</text>
</g>
<g id="clust3" class="cluster">
<title>cluster_GitOps</title>
<path fill="#e5f5fd" stroke="#aeb6be" d="M352,-1411.6C352,-1411.6 532,-1411.6 532,-1411.6 538,-1411.6 544,-1417.6 544,-1423.6 544,-1423.6 544,-1935.75 544,-1935.75 544,-1941.75 538,-1947.75 532,-1947.75 532,-1947.75 352,-1947.75 352,-1947.75 346,-1947.75 340,-1941.75 340,-1935.75 340,-1935.75 340,-1423.6 340,-1423.6 340,-1417.6 346,-1411.6 352,-1411.6"/>
<text xml:space="preserve" text-anchor="middle" x="365.62" y="-1932.35" font-family="Sans-Serif" font-size="12.00" fill="#2d3436">GitOps</text>
</g>
<g id="clust4" class="cluster">
<title>cluster_Kubernetes Runtime</title>
<path fill="#e5f5fd" stroke="#aeb6be" d="M20,-615.9C20,-615.9 362,-615.9 362,-615.9 368,-615.9 374,-621.9 374,-627.9 374,-627.9 374,-1350.1 374,-1350.1 374,-1356.1 368,-1362.1 362,-1362.1 362,-1362.1 20,-1362.1 20,-1362.1 14,-1362.1 8,-1356.1 8,-1350.1 8,-1350.1 8,-627.9 8,-627.9 8,-621.9 14,-615.9 20,-615.9"/>
<text xml:space="preserve" text-anchor="middle" x="68.88" y="-1346.7" font-family="Sans-Serif" font-size="12.00" fill="#2d3436">Kubernetes Runtime</text>
</g>
<g id="clust5" class="cluster">
<title>cluster_External Systems</title>
<path fill="#e5f5fd" stroke="#aeb6be" d="M386,-615.9C386,-615.9 467,-615.9 467,-615.9 473,-615.9 479,-621.9 479,-627.9 479,-627.9 479,-764.45 479,-764.45 479,-770.45 473,-776.45 467,-776.45 467,-776.45 386,-776.45 386,-776.45 380,-776.45 374,-770.45 374,-764.45 374,-764.45 374,-627.9 374,-627.9 374,-621.9 380,-615.9 386,-615.9"/>
<text xml:space="preserve" text-anchor="middle" x="426.62" y="-761.05" font-family="Sans-Serif" font-size="12.00" fill="#2d3436">External Systems</text>
</g>
<g id="clust6" class="cluster">
<title>cluster_Validation</title>
<path fill="#e5f5fd" stroke="#aeb6be" d="M352,-195.8C352,-195.8 561,-195.8 561,-195.8 567,-195.8 573,-201.8 573,-207.8 573,-207.8 573,-554.4 573,-554.4 573,-560.4 567,-566.4 561,-566.4 561,-566.4 352,-566.4 352,-566.4 346,-566.4 340,-560.4 340,-554.4 340,-554.4 340,-207.8 340,-207.8 340,-201.8 346,-195.8 352,-195.8"/>
<text xml:space="preserve" text-anchor="middle" x="373.88" y="-551" font-family="Sans-Serif" font-size="12.00" fill="#2d3436">Validation</text>
</g>
<g id="clust7" class="cluster">
<title>cluster_Observability</title>
<path fill="#e5f5fd" stroke="#aeb6be" d="M618,-8C618,-8 960,-8 960,-8 966,-8 972,-14 972,-20 972,-20 972,-344.35 972,-344.35 972,-350.35 966,-356.35 960,-356.35 960,-356.35 618,-356.35 618,-356.35 612,-356.35 606,-350.35 606,-344.35 606,-344.35 606,-20 606,-20 606,-14 612,-8 618,-8"/>
<text xml:space="preserve" text-anchor="middle" x="648.12" y="-340.95" font-family="Sans-Serif" font-size="12.00" fill="#2d3436">Observability</text>
</g>
<!-- ed9925391b1040b5bec49024fae9c683 -->
<g id="node1" class="node">
<title>ed9925391b1040b5bec49024fae9c683</title>
<image xlink:href="C:\Users\hp\AppData\Local\Programs\Python\Python313\Lib\site-packages\resources/generic/blank\blank.png" width="100.8px" height="100.8px" preserveAspectRatio="xMinYMin meet" x="150.6" y="-2918.3"/>
<text xml:space="preserve" text-anchor="middle" x="201" y="-2805.35" font-family="Segoe UI" font-size="12.00" fill="#2d3436">Operator</text>
</g>
<!-- 22278cbd1f7a408281a95c6d84c6ac3d -->
<g id="node2" class="node">
<title>22278cbd1f7a408281a95c6d84c6ac3d</title>
<image xlink:href="D:\Projects\Services\architecture\icons\jira.png" width="100.8px" height="100.8px" preserveAspectRatio="xMinYMin meet" x="150.6" y="-2730.5"/>
<text xml:space="preserve" text-anchor="middle" x="201" y="-2617.55" font-family="Segoe UI" font-size="12.00" fill="#2d3436">Jira</text>
</g>
<!-- ed9925391b1040b5bec49024fae9c683&#45;&gt;22278cbd1f7a408281a95c6d84c6ac3d -->
<g id="edge1" class="edge">
<title>ed9925391b1040b5bec49024fae9c683&#45;&gt;22278cbd1f7a408281a95c6d84c6ac3d</title>
<path fill="none" stroke="#7b8894" stroke-width="1.3" d="M201,-2799.57C201,-2799.57 201,-2760.35 201,-2760.35"/>
<polygon fill="#7b8894" stroke="#7b8894" stroke-width="1.3" points="204.5,-2760.35 201,-2750.35 197.5,-2760.35 204.5,-2760.35"/>
</g>
<!-- 45842d56f04d48cdbe3046ff0ff3c358 -->
<g id="node3" class="node">
<title>45842d56f04d48cdbe3046ff0ff3c358</title>
<image xlink:href="D:\Projects\Services\architecture\icons\github.png" width="100.8px" height="100.8px" preserveAspectRatio="xMinYMin meet" x="150.6" y="-2535.95"/>
<text xml:space="preserve" text-anchor="middle" x="201" y="-2423" font-family="Segoe UI" font-size="12.00" fill="#2d3436">GitHub</text>
</g>
<!-- 22278cbd1f7a408281a95c6d84c6ac3d&#45;&gt;45842d56f04d48cdbe3046ff0ff3c358 -->
<g id="edge25" class="edge">
<title>22278cbd1f7a408281a95c6d84c6ac3d&#45;&gt;45842d56f04d48cdbe3046ff0ff3c358</title>
<path fill="none" stroke="#7b8894" stroke-width="1.3" d="M201,-2611.78C201,-2611.78 201,-2565.67 201,-2565.67"/>
<polygon fill="#7b8894" stroke="#7b8894" stroke-width="1.3" points="204.5,-2565.67 201,-2555.67 197.5,-2565.67 204.5,-2565.67"/>
</g>
<!-- e4bc55441a294b02a4487e8c1f340f01 -->
<g id="node4" class="node">
<title>e4bc55441a294b02a4487e8c1f340f01</title>
<image xlink:href="C:\Users\hp\AppData\Local\Programs\Python\Python313\Lib\site-packages\resources/generic/blank\blank.png" width="100.8px" height="100.8px" preserveAspectRatio="xMinYMin meet" x="106.6" y="-2318.25"/>
<text xml:space="preserve" text-anchor="middle" x="157" y="-2208.15" font-family="Segoe UI" font-size="12.00" fill="#2d3436">Security Gate</text>
<text xml:space="preserve" text-anchor="middle" x="157" y="-2190.9" font-family="Segoe UI" font-size="12.00" fill="#2d3436">SonarQube / Trivy</text>
</g>
<!-- 45842d56f04d48cdbe3046ff0ff3c358&#45;&gt;e4bc55441a294b02a4487e8c1f340f01 -->
<g id="edge2" class="edge">
<title>45842d56f04d48cdbe3046ff0ff3c358&#45;&gt;e4bc55441a294b02a4487e8c1f340f01</title>
<path fill="none" stroke="#7b8894" stroke-width="1.3" d="M179,-2417.27C179,-2417.27 179,-2362.38 179,-2362.38"/>
<polygon fill="#7b8894" stroke="#7b8894" stroke-width="1.3" points="182.5,-2362.38 179,-2352.38 175.5,-2362.38 182.5,-2362.38"/>
<text xml:space="preserve" text-anchor="middle" x="198.5" y="-2379.8" font-family="Sans-Serif" font-size="13.00" fill="#2d3436">quality</text>
</g>
<!-- 849a26491d834f29a6a2d9ead0bafc59 -->
<g id="node6" class="node">
<title>849a26491d834f29a6a2d9ead0bafc59</title>
<image xlink:href="C:\Users\hp\AppData\Local\Programs\Python\Python313\Lib\site-packages\resources/generic/blank\blank.png" width="100.8px" height="100.8px" preserveAspectRatio="xMinYMin meet" x="239.6" y="-2318.25"/>
<text xml:space="preserve" text-anchor="middle" x="290" y="-2205.3" font-family="Segoe UI" font-size="12.00" fill="#2d3436">Runner</text>
</g>
<!-- 45842d56f04d48cdbe3046ff0ff3c358&#45;&gt;849a26491d834f29a6a2d9ead0bafc59 -->
<g id="edge4" class="edge">
<title>45842d56f04d48cdbe3046ff0ff3c358&#45;&gt;849a26491d834f29a6a2d9ead0bafc59</title>
<path fill="none" stroke="#7b8894" stroke-width="1.3" d="M245.5,-2417.27C245.5,-2417.27 245.5,-2347.86 245.5,-2347.86"/>
<polygon fill="#7b8894" stroke="#7b8894" stroke-width="1.3" points="249,-2347.86 245.5,-2337.86 242,-2347.86 249,-2347.86"/>
</g>
<!-- 1a50a0f21e404fd69e2f038707fc0a7c -->
<g id="node5" class="node">
<title>1a50a0f21e404fd69e2f038707fc0a7c</title>
<image xlink:href="D:\Projects\Services\architecture\icons\docker.png" width="100.8px" height="100.8px" preserveAspectRatio="xMinYMin meet" x="106.6" y="-2116.05"/>
<text xml:space="preserve" text-anchor="middle" x="157" y="-2003.1" font-family="Segoe UI" font-size="12.00" fill="#2d3436">Docker Images</text>
</g>
<!-- e4bc55441a294b02a4487e8c1f340f01&#45;&gt;1a50a0f21e404fd69e2f038707fc0a7c -->
<g id="edge3" class="edge">
<title>e4bc55441a294b02a4487e8c1f340f01&#45;&gt;1a50a0f21e404fd69e2f038707fc0a7c</title>
<path fill="none" stroke="#7b8894" stroke-width="1.3" d="M157,-2185.32C157,-2185.32 157,-2145.7 157,-2145.7"/>
<polygon fill="#7b8894" stroke="#7b8894" stroke-width="1.3" points="160.5,-2145.7 157,-2135.7 153.5,-2145.7 160.5,-2145.7"/>
</g>
<!-- 6d07e5ce2fff420b86a50e3da92b659b -->
<g id="node7" class="node">
<title>6d07e5ce2fff420b86a50e3da92b659b</title>
<image xlink:href="C:\Users\hp\AppData\Local\Programs\Python\Python313\Lib\site-packages\resources/generic/blank\blank.png" width="100.8px" height="100.8px" preserveAspectRatio="xMinYMin meet" x="239.6" y="-2116.05"/>
<text xml:space="preserve" text-anchor="middle" x="290" y="-2003.1" font-family="Segoe UI" font-size="12.00" fill="#2d3436">deployment&#45;poc</text>
</g>
<!-- 849a26491d834f29a6a2d9ead0bafc59&#45;&gt;6d07e5ce2fff420b86a50e3da92b659b -->
<g id="edge5" class="edge">
<title>849a26491d834f29a6a2d9ead0bafc59&#45;&gt;6d07e5ce2fff420b86a50e3da92b659b</title>
<path fill="none" stroke="#7b8894" stroke-width="1.3" d="M290,-2199.68C290,-2199.68 290,-2145.84 290,-2145.84"/>
<polygon fill="#7b8894" stroke="#7b8894" stroke-width="1.3" points="293.5,-2145.84 290,-2135.84 286.5,-2145.84 293.5,-2145.84"/>
</g>
<!-- 64fb402e913c43cbac8816ecaf792473 -->
<g id="node8" class="node">
<title>64fb402e913c43cbac8816ecaf792473</title>
<image xlink:href="C:\Users\hp\AppData\Local\Programs\Python\Python313\Lib\site-packages\resources/generic/blank\blank.png" width="100.8px" height="100.8px" preserveAspectRatio="xMinYMin meet" x="206.6" y="-1906"/>
<text xml:space="preserve" text-anchor="middle" x="257" y="-1793.05" font-family="Segoe UI" font-size="12.00" fill="#2d3436">Lock Manager</text>
</g>
<!-- 6d07e5ce2fff420b86a50e3da92b659b&#45;&gt;64fb402e913c43cbac8816ecaf792473 -->
<g id="edge6" class="edge">
<title>6d07e5ce2fff420b86a50e3da92b659b&#45;&gt;64fb402e913c43cbac8816ecaf792473</title>
<path fill="none" stroke="#7b8894" stroke-width="1.3" d="M273.5,-1997.45C273.5,-1997.45 273.5,-1935.78 273.5,-1935.78"/>
<polygon fill="#7b8894" stroke="#7b8894" stroke-width="1.3" points="277,-1935.78 273.5,-1925.78 270,-1935.78 277,-1935.78"/>
</g>
<!-- c7bd0254df7548e0951b9e758f8c4e30 -->
<g id="node10" class="node">
<title>c7bd0254df7548e0951b9e758f8c4e30</title>
<image xlink:href="D:\Projects\Services\architecture\icons\github.png" width="100.8px" height="100.8px" preserveAspectRatio="xMinYMin meet" x="339.6" y="-1906"/>
<text xml:space="preserve" text-anchor="middle" x="390" y="-1793.05" font-family="Segoe UI" font-size="12.00" fill="#2d3436">leninkart&#45;infra</text>
</g>
<!-- 6d07e5ce2fff420b86a50e3da92b659b&#45;&gt;c7bd0254df7548e0951b9e758f8c4e30 -->
<g id="edge26" class="edge">
<title>6d07e5ce2fff420b86a50e3da92b659b&#45;&gt;c7bd0254df7548e0951b9e758f8c4e30</title>
<path fill="none" stroke="#7b8894" stroke-width="1.3" d="M331.55,-1997.29C331.55,-1936.11 331.55,-1856 331.55,-1856 331.55,-1856 332.36,-1856 332.36,-1856"/>
<polygon fill="#7b8894" stroke="#7b8894" stroke-width="1.3" points="327.71,-1859.5 337.71,-1856 327.71,-1852.5 327.71,-1859.5"/>
<text xml:space="preserve" text-anchor="middle" x="325.5" y="-1959.9" font-family="Sans-Serif" font-size="13.00" fill="#2d3436">GitOps</text>
</g>
<!-- 6d07e5ce2fff420b86a50e3da92b659b&#45;&gt;c7bd0254df7548e0951b9e758f8c4e30 -->
<g id="edge36" class="edge">
<title>6d07e5ce2fff420b86a50e3da92b659b&#45;&gt;c7bd0254df7548e0951b9e758f8c4e30</title>
<path fill="none" stroke="#cd2626" stroke-width="1.3" stroke-dasharray="5,2" d="M323.5,-1997.49C323.5,-1948.11 323.5,-1890 323.5,-1890 323.5,-1890 327.97,-1890 327.97,-1890"/>
<polygon fill="#cd2626" stroke="#cd2626" stroke-width="1.3" points="327.97,-1893.5 337.97,-1890 327.97,-1886.5 327.97,-1893.5"/>
<text xml:space="preserve" text-anchor="middle" x="412" y="-1959.9" font-family="Sans-Serif" font-size="13.00" fill="#2d3436">Git revert</text>
</g>
<!-- dea7efdbaa9d4c5c9a90e22e606fcf4b -->
<g id="node9" class="node">
<title>dea7efdbaa9d4c5c9a90e22e606fcf4b</title>
<image xlink:href="C:\Users\hp\AppData\Local\Programs\Python\Python313\Lib\site-packages\resources/generic/blank\blank.png" width="100.8px" height="100.8px" preserveAspectRatio="xMinYMin meet" x="206.6" y="-1718.2"/>
<text xml:space="preserve" text-anchor="middle" x="257" y="-1605.25" font-family="Segoe UI" font-size="12.00" fill="#2d3436">Jira Lifecycle</text>
</g>
<!-- 64fb402e913c43cbac8816ecaf792473&#45;&gt;dea7efdbaa9d4c5c9a90e22e606fcf4b -->
<g id="edge7" class="edge">
<title>64fb402e913c43cbac8816ecaf792473&#45;&gt;dea7efdbaa9d4c5c9a90e22e606fcf4b</title>
<path fill="none" stroke="#7b8894" stroke-width="1.3" d="M257,-1787.27C257,-1787.27 257,-1748.05 257,-1748.05"/>
<polygon fill="#7b8894" stroke="#7b8894" stroke-width="1.3" points="260.5,-1748.05 257,-1738.05 253.5,-1748.05 260.5,-1748.05"/>
</g>
<!-- 737eca46ba6946b38c0c6c1c3341ba52 -->
<g id="node11" class="node">
<title>737eca46ba6946b38c0c6c1c3341ba52</title>
<image xlink:href="C:\Users\hp\AppData\Local\Programs\Python\Python313\Lib\site-packages\resources/generic/blank\blank.png" width="100.8px" height="100.8px" preserveAspectRatio="xMinYMin meet" x="339.6" y="-1718.2"/>
<text xml:space="preserve" text-anchor="middle" x="390" y="-1605.25" font-family="Segoe UI" font-size="12.00" fill="#2d3436">Desired State</text>
</g>
<!-- c7bd0254df7548e0951b9e758f8c4e30&#45;&gt;737eca46ba6946b38c0c6c1c3341ba52 -->
<g id="edge8" class="edge">
<title>c7bd0254df7548e0951b9e758f8c4e30&#45;&gt;737eca46ba6946b38c0c6c1c3341ba52</title>
<path fill="none" stroke="#7b8894" stroke-width="1.3" d="M390,-1787.27C390,-1787.27 390,-1748.05 390,-1748.05"/>
<polygon fill="#7b8894" stroke="#7b8894" stroke-width="1.3" points="393.5,-1748.05 390,-1738.05 386.5,-1748.05 393.5,-1748.05"/>
</g>
<!-- 8c9d0b8d6ce649eeaa5ea66116ef4cee -->
<g id="node12" class="node">
<title>8c9d0b8d6ce649eeaa5ea66116ef4cee</title>
<image xlink:href="D:\Projects\Services\architecture\icons\argocd.png" width="100.8px" height="100.8px" preserveAspectRatio="xMinYMin meet" x="339.6" y="-1530.4"/>
<text xml:space="preserve" text-anchor="middle" x="390" y="-1417.45" font-family="Segoe UI" font-size="12.00" fill="#2d3436">ArgoCD</text>
</g>
<!-- c7bd0254df7548e0951b9e758f8c4e30&#45;&gt;8c9d0b8d6ce649eeaa5ea66116ef4cee -->
<g id="edge37" class="edge">
<title>c7bd0254df7548e0951b9e758f8c4e30&#45;&gt;8c9d0b8d6ce649eeaa5ea66116ef4cee</title>
<path fill="none" stroke="#cd2626" stroke-width="1.3" stroke-dasharray="5,2" d="M339.86,-1821C326.37,-1821 315.45,-1821 315.45,-1821 315.45,-1821 315.45,-1480 315.45,-1480 315.45,-1480 327.89,-1480 327.89,-1480"/>
<polygon fill="#cd2626" stroke="#cd2626" stroke-width="1.3" points="327.89,-1483.5 337.89,-1480 327.89,-1476.5 327.89,-1483.5"/>
<text xml:space="preserve" text-anchor="middle" x="523.88" y="-1663.7" font-family="Sans-Serif" font-size="13.00" fill="#2d3436">restore</text>
</g>
<!-- 737eca46ba6946b38c0c6c1c3341ba52&#45;&gt;8c9d0b8d6ce649eeaa5ea66116ef4cee -->
<g id="edge9" class="edge">
<title>737eca46ba6946b38c0c6c1c3341ba52&#45;&gt;8c9d0b8d6ce649eeaa5ea66116ef4cee</title>
<path fill="none" stroke="#7b8894" stroke-width="1.3" d="M390,-1599.47C390,-1599.47 390,-1560.25 390,-1560.25"/>
<polygon fill="#7b8894" stroke="#7b8894" stroke-width="1.3" points="393.5,-1560.25 390,-1550.25 386.5,-1560.25 393.5,-1560.25"/>
</g>
<!-- 9b375d37deca4b41b10bf5f4022937a1 -->
<g id="node13" class="node">
<title>9b375d37deca4b41b10bf5f4022937a1</title>
<image xlink:href="D:\Projects\Services\architecture\icons\kubernetes.png" width="100.8px" height="97.8051px" preserveAspectRatio="xMinYMin meet" x="273.6" y="-1318.85"/>
<text xml:space="preserve" text-anchor="middle" x="324" y="-1207.4" font-family="Segoe UI" font-size="12.00" fill="#2d3436">Kubernetes</text>
</g>
<!-- 8c9d0b8d6ce649eeaa5ea66116ef4cee&#45;&gt;9b375d37deca4b41b10bf5f4022937a1 -->
<g id="edge27" class="edge">
<title>8c9d0b8d6ce649eeaa5ea66116ef4cee&#45;&gt;9b375d37deca4b41b10bf5f4022937a1</title>
<path fill="none" stroke="#7b8894" stroke-width="1.3" d="M357,-1411.8C357,-1411.8 357,-1350.13 357,-1350.13"/>
<polygon fill="#7b8894" stroke="#7b8894" stroke-width="1.3" points="360.5,-1350.13 357,-1340.13 353.5,-1350.13 360.5,-1350.13"/>
<text xml:space="preserve" text-anchor="middle" x="381.12" y="-1374.25" font-family="Sans-Serif" font-size="13.00" fill="#2d3436">sync</text>
</g>
<!-- 4adcfec452674b3cabdc7304cc80fc53 -->
<g id="node14" class="node">
<title>4adcfec452674b3cabdc7304cc80fc53</title>
<image xlink:href="C:\Users\hp\AppData\Local\Programs\Python\Python313\Lib\site-packages\resources/generic/blank\blank.png" width="100.8px" height="100.8px" preserveAspectRatio="xMinYMin meet" x="140.6" y="-1117.05"/>
<text xml:space="preserve" text-anchor="middle" x="191" y="-1004.1" font-family="Segoe UI" font-size="12.00" fill="#2d3436">Ingress</text>
</g>
<!-- 9b375d37deca4b41b10bf5f4022937a1&#45;&gt;4adcfec452674b3cabdc7304cc80fc53 -->
<g id="edge10" class="edge">
<title>9b375d37deca4b41b10bf5f4022937a1&#45;&gt;4adcfec452674b3cabdc7304cc80fc53</title>
<path fill="none" stroke="#7b8894" stroke-width="1.3" d="M307.2,-1201.95C307.2,-1188.79 307.2,-1179 307.2,-1179 307.2,-1179 174.2,-1179 174.2,-1179 174.2,-1179 174.2,-1146.89 174.2,-1146.89"/>
<polygon fill="#7b8894" stroke="#7b8894" stroke-width="1.3" points="177.7,-1146.89 174.2,-1136.89 170.7,-1146.89 177.7,-1146.89"/>
</g>
<!-- b56211adafbf47b094383651775b9374 -->
<g id="node23" class="node">
<title>b56211adafbf47b094383651775b9374</title>
<image xlink:href="C:\Users\hp\AppData\Local\Programs\Python\Python313\Lib\site-packages\resources/generic/blank\blank.png" width="100.8px" height="100.8px" preserveAspectRatio="xMinYMin meet" x="472.6" y="-524.65"/>
<text xml:space="preserve" text-anchor="middle" x="523" y="-411.7" font-family="Segoe UI" font-size="12.00" fill="#2d3436">Validation Engine</text>
</g>
<!-- 9b375d37deca4b41b10bf5f4022937a1&#45;&gt;b56211adafbf47b094383651775b9374 -->
<g id="edge30" class="edge">
<title>9b375d37deca4b41b10bf5f4022937a1&#45;&gt;b56211adafbf47b094383651775b9374</title>
<path fill="none" stroke="#7b8894" stroke-width="1.3" d="M374.11,-1270C428.42,-1270 507.4,-1270 507.4,-1270 507.4,-1270 507.4,-554.41 507.4,-554.41"/>
<polygon fill="#7b8894" stroke="#7b8894" stroke-width="1.3" points="510.9,-554.41 507.4,-544.41 503.9,-554.41 510.9,-554.41"/>
<text xml:space="preserve" text-anchor="middle" x="545.12" y="-874.75" font-family="Sans-Serif" font-size="13.00" fill="#2d3436">validate</text>
</g>
<!-- eeaf647c6ae043dab08e87a8c03f9fbd -->
<g id="node15" class="node">
<title>eeaf647c6ae043dab08e87a8c03f9fbd</title>
<image xlink:href="C:\Users\hp\AppData\Local\Programs\Python\Python313\Lib\site-packages\resources/generic/blank\blank.png" width="100.8px" height="100.8px" preserveAspectRatio="xMinYMin meet" x="7.6" y="-929.25"/>
<text xml:space="preserve" text-anchor="middle" x="58" y="-816.3" font-family="Segoe UI" font-size="12.00" fill="#2d3436">Frontend</text>
</g>
<!-- 4adcfec452674b3cabdc7304cc80fc53&#45;&gt;eeaf647c6ae043dab08e87a8c03f9fbd -->
<g id="edge11" class="edge">
<title>4adcfec452674b3cabdc7304cc80fc53&#45;&gt;eeaf647c6ae043dab08e87a8c03f9fbd</title>
<path fill="none" stroke="#7b8894" stroke-width="1.3" d="M160.76,-998.48C160.76,-990.43 160.76,-985 160.76,-985 160.76,-985 74.8,-985 74.8,-985 74.8,-985 74.8,-958.94 74.8,-958.94"/>
<polygon fill="#7b8894" stroke="#7b8894" stroke-width="1.3" points="78.3,-958.94 74.8,-948.94 71.3,-958.94 78.3,-958.94"/>
</g>
<!-- 175f89820c6144e7853894f3c8b85d15 -->
<g id="node16" class="node">
<title>175f89820c6144e7853894f3c8b85d15</title>
<image xlink:href="C:\Users\hp\AppData\Local\Programs\Python\Python313\Lib\site-packages\resources/generic/blank\blank.png" width="100.8px" height="100.8px" preserveAspectRatio="xMinYMin meet" x="140.6" y="-929.25"/>
<text xml:space="preserve" text-anchor="middle" x="191" y="-816.3" font-family="Segoe UI" font-size="12.00" fill="#2d3436">Product API</text>
</g>
<!-- 4adcfec452674b3cabdc7304cc80fc53&#45;&gt;175f89820c6144e7853894f3c8b85d15 -->
<g id="edge12" class="edge">
<title>4adcfec452674b3cabdc7304cc80fc53&#45;&gt;175f89820c6144e7853894f3c8b85d15</title>
<path fill="none" stroke="#7b8894" stroke-width="1.3" d="M180.92,-998.32C180.92,-998.32 180.92,-959.1 180.92,-959.1"/>
<polygon fill="#7b8894" stroke="#7b8894" stroke-width="1.3" points="184.42,-959.1 180.92,-949.1 177.42,-959.1 184.42,-959.1"/>
</g>
<!-- 91b4207715fa4988a0f83e7de9390e39 -->
<g id="node17" class="node">
<title>91b4207715fa4988a0f83e7de9390e39</title>
<image xlink:href="C:\Users\hp\AppData\Local\Programs\Python\Python313\Lib\site-packages\resources/generic/blank\blank.png" width="100.8px" height="100.8px" preserveAspectRatio="xMinYMin meet" x="273.6" y="-929.25"/>
<text xml:space="preserve" text-anchor="middle" x="324" y="-816.3" font-family="Segoe UI" font-size="12.00" fill="#2d3436">Order API</text>
</g>
<!-- 4adcfec452674b3cabdc7304cc80fc53&#45;&gt;91b4207715fa4988a0f83e7de9390e39 -->
<g id="edge13" class="edge">
<title>4adcfec452674b3cabdc7304cc80fc53&#45;&gt;91b4207715fa4988a0f83e7de9390e39</title>
<path fill="none" stroke="#7b8894" stroke-width="1.3" d="M221.24,-998.5C221.24,-977.6 221.24,-960 221.24,-960 221.24,-960 324,-960 324,-960 324,-960 324,-958.7 324,-958.7"/>
<polygon fill="#7b8894" stroke="#7b8894" stroke-width="1.3" points="327.5,-958.93 324,-948.93 320.5,-958.93 327.5,-958.93"/>
</g>
<!-- aa906b374369422dbf486273f5252a24 -->
<g id="node18" class="node">
<title>aa906b374369422dbf486273f5252a24</title>
<image xlink:href="D:\Projects\Services\architecture\icons\postgres.png" width="100.8px" height="100.8px" preserveAspectRatio="xMinYMin meet" x="209.6" y="-734.7"/>
<text xml:space="preserve" text-anchor="middle" x="260" y="-621.75" font-family="Segoe UI" font-size="12.00" fill="#2d3436">Postgres</text>
</g>
<!-- 175f89820c6144e7853894f3c8b85d15&#45;&gt;aa906b374369422dbf486273f5252a24 -->
<g id="edge14" class="edge">
<title>175f89820c6144e7853894f3c8b85d15&#45;&gt;aa906b374369422dbf486273f5252a24</title>
<path fill="none" stroke="#7b8894" stroke-width="1.3" d="M220.2,-810.53C220.2,-810.53 220.2,-764.42 220.2,-764.42"/>
<polygon fill="#7b8894" stroke="#7b8894" stroke-width="1.3" points="223.7,-764.42 220.2,-754.42 216.7,-764.42 223.7,-764.42"/>
</g>
<!-- 94c6d2c963b14ae09c760973804052f6 -->
<g id="node22" class="node">
<title>94c6d2c963b14ae09c760973804052f6</title>
<image xlink:href="D:\Projects\Services\architecture\icons\kafka.png" width="100.8px" height="100.8px" preserveAspectRatio="xMinYMin meet" x="373.6" y="-734.7"/>
<text xml:space="preserve" text-anchor="middle" x="424" y="-621.75" font-family="Segoe UI" font-size="12.00" fill="#2d3436">Kafka Runtime</text>
</g>
<!-- 175f89820c6144e7853894f3c8b85d15&#45;&gt;94c6d2c963b14ae09c760973804052f6 -->
<g id="edge28" class="edge">
<title>175f89820c6144e7853894f3c8b85d15&#45;&gt;94c6d2c963b14ae09c760973804052f6</title>
<path fill="none" stroke="#7b8894" stroke-width="1.3" d="M230.8,-810.53C230.8,-794.51 230.8,-782 230.8,-782 230.8,-782 407.4,-782 407.4,-782 407.4,-782 407.4,-764.65 407.4,-764.65"/>
<polygon fill="#7b8894" stroke="#7b8894" stroke-width="1.3" points="410.9,-764.65 407.4,-754.65 403.9,-764.65 410.9,-764.65"/>
</g>
<!-- 91b4207715fa4988a0f83e7de9390e39&#45;&gt;aa906b374369422dbf486273f5252a24 -->
<g id="edge15" class="edge">
<title>91b4207715fa4988a0f83e7de9390e39&#45;&gt;aa906b374369422dbf486273f5252a24</title>
<path fill="none" stroke="#7b8894" stroke-width="1.3" d="M292,-810.53C292,-810.53 292,-764.42 292,-764.42"/>
<polygon fill="#7b8894" stroke="#7b8894" stroke-width="1.3" points="295.5,-764.42 292,-754.42 288.5,-764.42 295.5,-764.42"/>
</g>
<!-- 91b4207715fa4988a0f83e7de9390e39&#45;&gt;94c6d2c963b14ae09c760973804052f6 -->
<g id="edge29" class="edge">
<title>91b4207715fa4988a0f83e7de9390e39&#45;&gt;94c6d2c963b14ae09c760973804052f6</title>
<path fill="none" stroke="#7b8894" stroke-width="1.3" d="M356.6,-810.7C356.6,-754.51 356.6,-684 356.6,-684 356.6,-684 361.64,-684 361.64,-684"/>
<polygon fill="#7b8894" stroke="#7b8894" stroke-width="1.3" points="361.64,-687.5 371.64,-684 361.64,-680.5 361.64,-687.5"/>
</g>
<!-- e056d7b364d84fe9b582d8fd6988284a -->
<g id="node19" class="node">
<title>e056d7b364d84fe9b582d8fd6988284a</title>
<image xlink:href="D:\Projects\Services\architecture\icons\vault.png" width="100.8px" height="100.8px" preserveAspectRatio="xMinYMin meet" x="140.6" y="-1320.35"/>
<text xml:space="preserve" text-anchor="middle" x="191" y="-1207.4" font-family="Segoe UI" font-size="12.00" fill="#2d3436">Vault</text>
</g>
<!-- 4506ceb666344e8da56248d69779519e -->
<g id="node20" class="node">
<title>4506ceb666344e8da56248d69779519e</title>
<image xlink:href="C:\Users\hp\AppData\Local\Programs\Python\Python313\Lib\site-packages\resources/generic/blank\blank.png" width="100.8px" height="100.8px" preserveAspectRatio="xMinYMin meet" x="273.6" y="-1117.05"/>
<text xml:space="preserve" text-anchor="middle" x="324" y="-1004.1" font-family="Segoe UI" font-size="12.00" fill="#2d3436">Secrets Store</text>
</g>
<!-- e056d7b364d84fe9b582d8fd6988284a&#45;&gt;4506ceb666344e8da56248d69779519e -->
<g id="edge16" class="edge">
<title>e056d7b364d84fe9b582d8fd6988284a&#45;&gt;4506ceb666344e8da56248d69779519e</title>
<path fill="none" stroke="#7b8894" stroke-width="1.3" stroke-dasharray="1,5" d="M207.8,-1201.64C207.8,-1177.85 207.8,-1157 207.8,-1157 207.8,-1157 340.8,-1157 340.8,-1157 340.8,-1157 340.8,-1146.63 340.8,-1146.63"/>
<polygon fill="#7b8894" stroke="#7b8894" stroke-width="1.3" points="344.3,-1146.63 340.8,-1136.63 337.3,-1146.63 344.3,-1146.63"/>
<text xml:space="preserve" text-anchor="middle" x="320.25" y="-1164.2" font-family="Sans-Serif" font-size="13.00" fill="#2d3436">secrets</text>
</g>
<!-- 4506ceb666344e8da56248d69779519e&#45;&gt;175f89820c6144e7853894f3c8b85d15 -->
<g id="edge17" class="edge">
<title>4506ceb666344e8da56248d69779519e&#45;&gt;175f89820c6144e7853894f3c8b85d15</title>
<path fill="none" stroke="#7b8894" stroke-width="1.3" stroke-dasharray="1,5" d="M298.8,-998.59C298.8,-984.07 298.8,-973 298.8,-973 298.8,-973 201.08,-973 201.08,-973 201.08,-973 201.08,-958.99 201.08,-958.99"/>
<polygon fill="#7b8894" stroke="#7b8894" stroke-width="1.3" points="204.58,-958.99 201.08,-948.99 197.58,-958.99 204.58,-958.99"/>
</g>
<!-- 4506ceb666344e8da56248d69779519e&#45;&gt;91b4207715fa4988a0f83e7de9390e39 -->
<g id="edge18" class="edge">
<title>4506ceb666344e8da56248d69779519e&#45;&gt;91b4207715fa4988a0f83e7de9390e39</title>
<path fill="none" stroke="#7b8894" stroke-width="1.3" stroke-dasharray="1,5" d="M349.2,-998.32C349.2,-998.32 349.2,-959.1 349.2,-959.1"/>
<polygon fill="#7b8894" stroke="#7b8894" stroke-width="1.3" points="352.7,-959.1 349.2,-949.1 345.7,-959.1 352.7,-959.1"/>
</g>
<!-- 36b8fc4ac1c94a96914ba161e0afe2da -->
<g id="node21" class="node">
<title>36b8fc4ac1c94a96914ba161e0afe2da</title>
<image xlink:href="C:\Users\hp\AppData\Local\Programs\Python\Python313\Lib\site-packages\resources/generic/blank\blank.png" width="100.8px" height="100.8px" preserveAspectRatio="xMinYMin meet" x="7.6" y="-1117.05"/>
<text xml:space="preserve" text-anchor="middle" x="58" y="-1004.1" font-family="Segoe UI" font-size="12.00" fill="#2d3436">Traffic Generator</text>
</g>
<!-- 36b8fc4ac1c94a96914ba161e0afe2da&#45;&gt;eeaf647c6ae043dab08e87a8c03f9fbd -->
<g id="edge19" class="edge">
<title>36b8fc4ac1c94a96914ba161e0afe2da&#45;&gt;eeaf647c6ae043dab08e87a8c03f9fbd</title>
<path fill="none" stroke="#7b8894" stroke-width="1.3" d="M41.2,-998.32C41.2,-998.32 41.2,-959.1 41.2,-959.1"/>
<polygon fill="#7b8894" stroke="#7b8894" stroke-width="1.3" points="44.7,-959.1 41.2,-949.1 37.7,-959.1 44.7,-959.1"/>
</g>
<!-- 94c6d2c963b14ae09c760973804052f6&#45;&gt;b56211adafbf47b094383651775b9374 -->
<g id="edge31" class="edge">
<title>94c6d2c963b14ae09c760973804052f6&#45;&gt;b56211adafbf47b094383651775b9374</title>
<path fill="none" stroke="#7b8894" stroke-width="1.3" d="M456.5,-616.19C456.5,-547.33 456.5,-451 456.5,-451 456.5,-451 460.97,-451 460.97,-451"/>
<polygon fill="#7b8894" stroke="#7b8894" stroke-width="1.3" points="460.97,-454.5 470.97,-451 460.97,-447.5 460.97,-454.5"/>
<text xml:space="preserve" text-anchor="middle" x="463.12" y="-578.55" font-family="Sans-Serif" font-size="13.00" fill="#2d3436">validate</text>
</g>
<!-- b56211adafbf47b094383651775b9374&#45;&gt;6d07e5ce2fff420b86a50e3da92b659b -->
<g id="edge35" class="edge">
<title>b56211adafbf47b094383651775b9374&#45;&gt;6d07e5ce2fff420b86a50e3da92b659b</title>
<path fill="none" stroke="#cd2626" stroke-width="1.3" stroke-dasharray="5,2" d="M540.4,-542.65C540.4,-847.32 540.4,-2066 540.4,-2066 540.4,-2066 352.34,-2066 352.34,-2066"/>
<polygon fill="#cd2626" stroke="#cd2626" stroke-width="1.3" points="352.34,-2062.5 342.34,-2066 352.34,-2069.5 352.34,-2062.5"/>
<text xml:space="preserve" text-anchor="middle" x="633.62" y="-1265.85" font-family="Sans-Serif" font-size="13.00" fill="#2d3436">failure</text>
</g>
<!-- 41b9773763de4617a9f16a08391161b4 -->
<g id="node24" class="node">
<title>41b9773763de4617a9f16a08391161b4</title>
<image xlink:href="C:\Users\hp\AppData\Local\Programs\Python\Python313\Lib\site-packages\resources/generic/blank\blank.png" width="100.8px" height="100.8px" preserveAspectRatio="xMinYMin meet" x="339.6" y="-314.6"/>
<text xml:space="preserve" text-anchor="middle" x="390" y="-201.65" font-family="Segoe UI" font-size="12.00" fill="#2d3436">Proof Scope</text>
</g>
<!-- b56211adafbf47b094383651775b9374&#45;&gt;41b9773763de4617a9f16a08391161b4 -->
<g id="edge20" class="edge">
<title>b56211adafbf47b094383651775b9374&#45;&gt;41b9773763de4617a9f16a08391161b4</title>
<path fill="none" stroke="#7b8894" stroke-width="1.3" d="M472.8,-497C441.45,-497 407,-497 407,-497 407,-497 407,-344.44 407,-344.44"/>
<polygon fill="#7b8894" stroke="#7b8894" stroke-width="1.3" points="410.5,-344.44 407,-334.44 403.5,-344.44 410.5,-344.44"/>
</g>
<!-- 507395349d194fb3b4cb09a540bf7618 -->
<g id="node25" class="node">
<title>507395349d194fb3b4cb09a540bf7618</title>
<image xlink:href="C:\Users\hp\AppData\Local\Programs\Python\Python313\Lib\site-packages\resources/generic/blank\blank.png" width="100.8px" height="100.8px" preserveAspectRatio="xMinYMin meet" x="472.6" y="-314.6"/>
<text xml:space="preserve" text-anchor="middle" x="523" y="-201.65" font-family="Segoe UI" font-size="12.00" fill="#2d3436">Validation Reports</text>
</g>
<!-- b56211adafbf47b094383651775b9374&#45;&gt;507395349d194fb3b4cb09a540bf7618 -->
<g id="edge21" class="edge">
<title>b56211adafbf47b094383651775b9374&#45;&gt;507395349d194fb3b4cb09a540bf7618</title>
<path fill="none" stroke="#7b8894" stroke-width="1.3" d="M523,-406.05C523,-406.05 523,-344.38 523,-344.38"/>
<polygon fill="#7b8894" stroke="#7b8894" stroke-width="1.3" points="526.5,-344.38 523,-334.38 519.5,-344.38 526.5,-344.38"/>
</g>
<!-- e28febe0b80940238dc500e23f37f66d -->
<g id="node26" class="node">
<title>e28febe0b80940238dc500e23f37f66d</title>
<image xlink:href="D:\Projects\Services\architecture\icons\prometheus.png" width="100.8px" height="100.8px" preserveAspectRatio="xMinYMin meet" x="871.6" y="-314.6"/>
<text xml:space="preserve" text-anchor="middle" x="922" y="-201.65" font-family="Segoe UI" font-size="12.00" fill="#2d3436">Prometheus</text>
</g>
<!-- b56211adafbf47b094383651775b9374&#45;&gt;e28febe0b80940238dc500e23f37f66d -->
<g id="edge32" class="edge">
<title>b56211adafbf47b094383651775b9374&#45;&gt;e28febe0b80940238dc500e23f37f66d</title>
<path fill="none" stroke="#7b8894" stroke-width="1.3" d="M573.13,-508C680.29,-508 922,-508 922,-508 922,-508 922,-344.4 922,-344.4"/>
<polygon fill="#7b8894" stroke="#7b8894" stroke-width="1.3" points="925.5,-344.4 922,-334.4 918.5,-344.4 925.5,-344.4"/>
<text xml:space="preserve" text-anchor="middle" x="882" y="-368.5" font-family="Sans-Serif" font-size="13.00" fill="#2d3436">metrics</text>
</g>
<!-- e8421e5e5593462fa2e9fbbe429b70c2 -->
<g id="node28" class="node">
<title>e8421e5e5593462fa2e9fbbe429b70c2</title>
<image xlink:href="D:\Projects\Services\architecture\icons\loki.png" width="100.8px" height="59.5636px" preserveAspectRatio="xMinYMin meet" x="605.6" y="-293.982"/>
<text xml:space="preserve" text-anchor="middle" x="656" y="-201.65" font-family="Segoe UI" font-size="12.00" fill="#2d3436">Loki</text>
</g>
<!-- b56211adafbf47b094383651775b9374&#45;&gt;e8421e5e5593462fa2e9fbbe429b70c2 -->
<g id="edge33" class="edge">
<title>b56211adafbf47b094383651775b9374&#45;&gt;e8421e5e5593462fa2e9fbbe429b70c2</title>
<path fill="none" stroke="#7b8894" stroke-width="1.3" d="M573.28,-440C610.94,-440 656,-440 656,-440 656,-440 656,-344.39 656,-344.39"/>
<polygon fill="#7b8894" stroke="#7b8894" stroke-width="1.3" points="659.5,-344.39 656,-334.39 652.5,-344.39 659.5,-344.39"/>
<text xml:space="preserve" text-anchor="middle" x="619.62" y="-368.5" font-family="Sans-Serif" font-size="13.00" fill="#2d3436">logs</text>
</g>
<!-- 82714afc66ff4614a11dfb5792c5f052 -->
<g id="node29" class="node">
<title>82714afc66ff4614a11dfb5792c5f052</title>
<image xlink:href="D:\Projects\Services\architecture\icons\tempo.png" width="100.8px" height="13.5172px" preserveAspectRatio="xMinYMin meet" x="738.6" y="-270.959"/>
<text xml:space="preserve" text-anchor="middle" x="789" y="-201.65" font-family="Segoe UI" font-size="12.00" fill="#2d3436">Tempo</text>
</g>
<!-- b56211adafbf47b094383651775b9374&#45;&gt;82714afc66ff4614a11dfb5792c5f052 -->
<g id="edge34" class="edge">
<title>b56211adafbf47b094383651775b9374&#45;&gt;82714afc66ff4614a11dfb5792c5f052</title>
<path fill="none" stroke="#7b8894" stroke-width="1.3" d="M573.35,-474C650.46,-474 789,-474 789,-474 789,-474 789,-344.28 789,-344.28"/>
<polygon fill="#7b8894" stroke="#7b8894" stroke-width="1.3" points="792.5,-344.28 789,-334.28 785.5,-344.28 792.5,-344.28"/>
<text xml:space="preserve" text-anchor="middle" x="745.25" y="-368.5" font-family="Sans-Serif" font-size="13.00" fill="#2d3436">traces</text>
</g>
<!-- bc2d37fc31334c6b91ad0a5193767134 -->
<g id="node27" class="node">
<title>bc2d37fc31334c6b91ad0a5193767134</title>
<image xlink:href="D:\Projects\Services\architecture\icons\grafana.png" width="100.8px" height="100.8px" preserveAspectRatio="xMinYMin meet" x="738.6" y="-126.8"/>
<text xml:space="preserve" text-anchor="middle" x="789" y="-13.85" font-family="Segoe UI" font-size="12.00" fill="#2d3436">Grafana</text>
</g>
<!-- e28febe0b80940238dc500e23f37f66d&#45;&gt;bc2d37fc31334c6b91ad0a5193767134 -->
<g id="edge22" class="edge">
<title>e28febe0b80940238dc500e23f37f66d&#45;&gt;bc2d37fc31334c6b91ad0a5193767134</title>
<path fill="none" stroke="#7b8894" stroke-width="1.3" d="M922,-195.99C922,-142.13 922,-76 922,-76 922,-76 851.25,-76 851.25,-76"/>
<polygon fill="#7b8894" stroke="#7b8894" stroke-width="1.3" points="851.25,-72.5 841.25,-76 851.25,-79.5 851.25,-72.5"/>
</g>
<!-- e8421e5e5593462fa2e9fbbe429b70c2&#45;&gt;bc2d37fc31334c6b91ad0a5193767134 -->
<g id="edge23" class="edge">
<title>e8421e5e5593462fa2e9fbbe429b70c2&#45;&gt;bc2d37fc31334c6b91ad0a5193767134</title>
<path fill="none" stroke="#7b8894" stroke-width="1.3" d="M656,-195.99C656,-142.13 656,-76 656,-76 656,-76 726.75,-76 726.75,-76"/>
<polygon fill="#7b8894" stroke="#7b8894" stroke-width="1.3" points="726.75,-79.5 736.75,-76 726.75,-72.5 726.75,-79.5"/>
</g>
<!-- 82714afc66ff4614a11dfb5792c5f052&#45;&gt;bc2d37fc31334c6b91ad0a5193767134 -->
<g id="edge24" class="edge">
<title>82714afc66ff4614a11dfb5792c5f052&#45;&gt;bc2d37fc31334c6b91ad0a5193767134</title>
<path fill="none" stroke="#7b8894" stroke-width="1.3" d="M789,-195.87C789,-195.87 789,-156.65 789,-156.65"/>
<polygon fill="#7b8894" stroke="#7b8894" stroke-width="1.3" points="792.5,-156.65 789,-146.65 785.5,-156.65 792.5,-156.65"/>
</g>
</g>
</svg>
