<svg xmlns="http://www.w3.org/2000/svg" width="1080" height="1350" viewBox="0 0 1080 1350"><defs>
  <linearGradient id="bg" x1="0" y1="0" x2="1" y2="1"><stop offset="0%" stop-color="#07101f"/><stop offset="55%" stop-color="#0d1c39"/><stop offset="100%" stop-color="#12214a"/></linearGradient>
  <linearGradient id="cyan" x1="0" y1="0" x2="1" y2="0"><stop offset="0%" stop-color="#2dd4bf"/><stop offset="100%" stop-color="#5eead4"/></linearGradient>
  <linearGradient id="blue" x1="0" y1="0" x2="1" y2="1"><stop offset="0%" stop-color="#12284a"/><stop offset="100%" stop-color="#1a3f6f"/></linearGradient>
  <linearGradient id="purple" x1="0" y1="0" x2="1" y2="1"><stop offset="0%" stop-color="#2a2358"/><stop offset="100%" stop-color="#40308a"/></linearGradient>
  <linearGradient id="amber" x1="0" y1="0" x2="1" y2="1"><stop offset="0%" stop-color="#4f3519"/><stop offset="100%" stop-color="#825927"/></linearGradient>
  <linearGradient id="green" x1="0" y1="0" x2="1" y2="1"><stop offset="0%" stop-color="#164031"/><stop offset="100%" stop-color="#21654c"/></linearGradient>
  <linearGradient id="obs" x1="0" y1="0" x2="1" y2="1"><stop offset="0%" stop-color="#153055"/><stop offset="100%" stop-color="#1e4b80"/></linearGradient>
  <linearGradient id="red" x1="0" y1="0" x2="1" y2="1"><stop offset="0%" stop-color="#5b2323"/><stop offset="100%" stop-color="#8c3131"/></linearGradient>
  <linearGradient id="note" x1="0" y1="0" x2="1" y2="1"><stop offset="0%" stop-color="#10233f"/><stop offset="100%" stop-color="#163255"/></linearGradient>
  <filter id="shadow" x="-20%" y="-20%" width="140%" height="140%"><feDropShadow dx="0" dy="16" stdDeviation="18" flood-color="#020617" flood-opacity="0.35"/></filter>
  <marker id="arrow" markerWidth="14" markerHeight="14" refX="11" refY="4" orient="auto"><path d="M0,0 L11,4 L0,8 Z" fill="#9bdcff"/></marker>
  <marker id="rollbackArrow" markerWidth="14" markerHeight="14" refX="11" refY="4" orient="auto"><path d="M0,0 L11,4 L0,8 Z" fill="#f87171"/></marker>
  <style>
    .title{font:700 44px 'Segoe UI',Arial,sans-serif;fill:#eef4ff}
    .subtitle{font:22px 'Segoe UI',Arial,sans-serif;fill:#b7c4dd}
    .section{font:700 18px 'Segoe UI',Arial,sans-serif;fill:#053233;letter-spacing:.9px}
    .boxTitle{font:700 30px 'Segoe UI',Arial,sans-serif;fill:#f8fbff}
    .boxSub{font:600 18px 'Segoe UI',Arial,sans-serif;fill:#cad7ec}
    .body{font:17px 'Segoe UI',Arial,sans-serif;fill:#d7e0f2}
    .small{font:15px 'Segoe UI',Arial,sans-serif;fill:#c8d4e8}
    .label{font:700 15px 'Segoe UI',Arial,sans-serif;fill:#9edcff}
    .rollback{font:700 15px 'Segoe UI',Arial,sans-serif;fill:#fca5a5}
  </style>
</defs><rect width="100%" height="100%" fill="url(#bg)"/><circle cx="935" cy="120" r="215" fill="#38bdf8" opacity="0.06"/><circle cx="140" cy="1180" r="170" fill="#14b8a6" opacity="0.05"/><text x="56" y="78" class="title">LeninKart Platform Overview</text><text x="56" y="112" class="subtitle">CI to deployment to validation in one production-style flow</text><g filter="url(#shadow)"><path d="M56 142 L240 142 L266 160 L240 178 L56 178 L74 160 Z" fill="url(#cyan)"/></g><text x="80" y="166" class="section">PIPELINE OVERVIEW</text><g filter="url(#shadow)"><rect x="70" y="220" width="170" height="120" rx="24" fill="url(#blue)" stroke="#3c5f8e" stroke-width="1.8"/></g><text x="94" y="262" class="boxTitle">Developer</text><text x="94" y="288" class="boxSub">change source</text><rect x="94" y="304" width="48" height="48" rx="12" fill="#f8fbff" opacity="0.97"/><text x="106" y="335" style="font:700 18px Segoe UI,Arial,sans-serif;fill:#0d1c39">DEV</text><text x="154" y="336" class="body">code + trigger</text><g filter="url(#shadow)"><rect x="270" y="220" width="190" height="120" rx="24" fill="url(#blue)" stroke="#3c5f8e" stroke-width="1.8"/></g><text x="294" y="262" class="boxTitle">GitHub Actions</text><text x="294" y="288" class="boxSub">service CI</text><rect x="294" y="304" width="48" height="48" rx="12" fill="#f8fbff" opacity="0.97"/><text x="306" y="335" style="font:700 18px Segoe UI,Arial,sans-serif;fill:#0d1c39">CI</text><text x="354" y="336" class="body">build + test</text><g filter="url(#shadow)"><rect x="490" y="205" width="230" height="150" rx="24" fill="url(#purple)" stroke="#5f4aa8" stroke-width="1.8"/></g><text x="514" y="247" class="boxTitle">Security Gate</text><text x="514" y="273" class="boxSub">quality + security</text><rect x="514" y="289" width="48" height="48" rx="12" fill="#f8fbff" opacity="0.97"/><text x="526" y="320" style="font:700 18px Segoe UI,Arial,sans-serif;fill:#0d1c39">SEC</text><text x="574" y="321" class="body">SonarQube</text><text x="574" y="345" class="body">Gitleaks | Trivy</text><g filter="url(#shadow)"><rect x="750" y="220" width="180" height="120" rx="24" fill="url(#blue)" stroke="#3c5f8e" stroke-width="1.8"/></g><text x="774" y="262" class="boxTitle">Docker Build</text><text x="774" y="288" class="boxSub">artifact stage</text><rect x="774" y="304" width="48" height="48" rx="12" fill="#f8fbff" opacity="0.97"/><text x="786" y="335" style="font:700 18px Segoe UI,Arial,sans-serif;fill:#0d1c39">IMG</text><text x="834" y="336" class="body">build + push</text><path d="M240 280 L270 280" stroke="#9bdcff" stroke-width="4" fill="none" marker-end="url(#arrow)"/><path d="M460 280 L490 280" stroke="#9bdcff" stroke-width="4" fill="none" marker-end="url(#arrow)"/><path d="M720 280 L750 280" stroke="#9bdcff" stroke-width="4" fill="none" marker-end="url(#arrow)"/><g filter="url(#shadow)"><rect x="90" y="430" width="220" height="125" rx="24" fill="url(#amber)" stroke="#8a6130" stroke-width="1.8"/></g><text x="114" y="472" class="boxTitle">Metadata Layer</text><text x="114" y="498" class="boxSub">latest_tags.yaml</text><rect x="114" y="514" width="48" height="48" rx="12" fill="#f8fbff" opacity="0.97"/><text x="126" y="545" style="font:700 18px Segoe UI,Arial,sans-serif;fill:#0d1c39">TAG</text><text x="174" y="546" class="body">version source</text><g filter="url(#shadow)"><rect x="350" y="430" width="160" height="125" rx="24" fill="url(#blue)" stroke="#3c5f8e" stroke-width="1.8"/></g><text x="374" y="472" class="boxTitle">Jira</text><text x="374" y="498" class="boxSub">deploy request</text><rect x="374" y="514" width="48" height="48" rx="12" fill="#f8fbff" opacity="0.97"/><text x="386" y="545" style="font:700 18px Segoe UI,Arial,sans-serif;fill:#0d1c39">JR</text><text x="434" y="546" class="body">request ticket</text><g filter="url(#shadow)"><rect x="550" y="410" width="250" height="165" rx="24" fill="url(#purple)" stroke="#5f4aa8" stroke-width="1.8"/></g><text x="574" y="452" class="boxTitle">deployment-poc</text><text x="574" y="478" class="boxSub">control plane</text><rect x="574" y="494" width="48" height="48" rx="12" fill="#f8fbff" opacity="0.97"/><text x="586" y="525" style="font:700 18px Segoe UI,Arial,sans-serif;fill:#0d1c39">CP</text><text x="634" y="526" class="body">resolve version</text><text x="634" y="550" class="body">orchestrate deploy</text><text x="634" y="574" class="body">push GitOps state</text><g filter="url(#shadow)"><rect x="840" y="430" width="160" height="125" rx="24" fill="url(#amber)" stroke="#8a6130" stroke-width="1.8"/></g><text x="864" y="472" class="boxTitle">ArgoCD</text><text x="864" y="498" class="boxSub">sync engine</text><rect x="864" y="514" width="48" height="48" rx="12" fill="#f8fbff" opacity="0.97"/><text x="876" y="545" style="font:700 18px Segoe UI,Arial,sans-serif;fill:#0d1c39">AR</text><text x="924" y="546" class="body">reconcile</text><path d="M310 492 L350 492" stroke="#9bdcff" stroke-width="4" fill="none" marker-end="url(#arrow)"/><path d="M510 492 L550 492" stroke="#9bdcff" stroke-width="4" fill="none" marker-end="url(#arrow)"/><path d="M800 492 L840 492" stroke="#9bdcff" stroke-width="4" fill="none" marker-end="url(#arrow)"/><g filter="url(#shadow)"><rect x="80" y="675" width="250" height="155" rx="24" fill="url(#green)" stroke="#4b7a68" stroke-width="1.8"/></g><text x="104" y="717" class="boxTitle">Kubernetes</text><text x="104" y="743" class="boxSub">k3d-leninkart-dev</text><rect x="104" y="759" width="48" height="48" rx="12" fill="#f8fbff" opacity="0.97"/><text x="116" y="790" style="font:700 18px Segoe UI,Arial,sans-serif;fill:#0d1c39">K8</text><text x="164" y="791" class="body">frontend | product</text><text x="164" y="815" class="body">order-service</text><g filter="url(#shadow)"><rect x="395" y="675" width="250" height="155" rx="24" fill="url(#purple)" stroke="#5f4aa8" stroke-width="1.8"/></g><text x="419" y="717" class="boxTitle">project-validation</text><text x="419" y="743" class="boxSub">proof engine</text><rect x="419" y="759" width="48" height="48" rx="12" fill="#f8fbff" opacity="0.97"/><text x="431" y="790" style="font:700 18px Segoe UI,Arial,sans-serif;fill:#0d1c39">PV</text><text x="479" y="791" class="body">E2E verification</text><text x="479" y="815" class="body">screenshots + reports</text><g filter="url(#shadow)"><rect x="710" y="655" width="300" height="195" rx="24" fill="url(#obs)" stroke="#456b98" stroke-width="1.8"/></g><text x="734" y="697" class="boxTitle">Observability</text><text x="734" y="723" class="boxSub">metrics, logs, traces</text><rect x="734" y="739" width="48" height="48" rx="12" fill="#f8fbff" opacity="0.97"/><text x="746" y="770" style="font:700 18px Segoe UI,Arial,sans-serif;fill:#0d1c39">OBS</text><text x="794" y="771" class="body">Prometheus | Grafana</text><text x="794" y="795" class="body">Loki | Tempo</text><text x="794" y="819" class="body">Kafka metrics</text><path d="M920 555 L920 630 L205 630 L205 675" stroke="#9bdcff" stroke-width="4" fill="none" marker-end="url(#arrow)"/><path d="M330 752 L395 752" stroke="#9bdcff" stroke-width="4" fill="none" marker-end="url(#arrow)"/><path d="M645 752 L710 752" stroke="#9bdcff" stroke-width="4" fill="none" marker-end="url(#arrow)"/><text x="80" y="900" class="small">Artifacts move only after SonarQube, Gitleaks, and Trivy pass.</text><text x="80" y="928" class="small">deployment-poc resolves versions from metadata and writes desired state into leninkart-infra.</text></svg>