<svg xmlns="http://www.w3.org/2000/svg" width="2200" height="1600" viewBox="0 0 2200 1600"><defs><marker id="arrow" markerWidth="10" markerHeight="10" refX="8" refY="5" orient="auto" markerUnits="strokeWidth"><path d="M 0 0 L 10 5 L 0 10 z" fill="#5E6D81"/></marker></defs><rect x="0" y="0" width="2200" height="1600" rx="0" fill="#FFFFFF" stroke="#FFFFFF" stroke-width="0" /><text x="1100.0" y="36" font-family="Arial" font-size="20" font-weight="700" fill="#142132" text-anchor="middle"><tspan x="1100.0" dy="0">LeninKart Platform Architecture (Discovered)</tspan></text><rect x="40" y="100" width="190" height="280" rx="18" fill="#F8FAFC" stroke="#D8E0EA" stroke-width="1.4" /><text x="58" y="128" font-family="Arial" font-size="16" font-weight="700" fill="#142132" text-anchor="start"><tspan x="58" dy="0">1. Entry Layer</tspan></text><rect x="260" y="70" width="620" height="470" rx="18" fill="#F8FAFC" stroke="#D8E0EA" stroke-width="1.4" /><text x="278" y="98" font-family="Arial" font-size="16" font-weight="700" fill="#142132" text-anchor="start"><tspan x="278" dy="0">2. CI / Control Plane</tspan></text><rect x="920" y="135" width="320" height="270" rx="18" fill="#F8FAFC" stroke="#D8E0EA" stroke-width="1.4" /><text x="938" y="163" font-family="Arial" font-size="16" font-weight="700" fill="#142132" text-anchor="start"><tspan x="938" dy="0">3. GitOps / Reconciliation</tspan></text><rect x="1280" y="60" width="620" height="840" rx="18" fill="#F8FAFC" stroke="#D8E0EA" stroke-width="1.4" /><text x="1298" y="88" font-family="Arial" font-size="16" font-weight="700" fill="#142132" text-anchor="start"><tspan x="1298" dy="0">4. Kubernetes Runtime</tspan></text><rect x="1970" y="280" width="190" height="180" rx="18" fill="#F8FAFC" stroke="#D8E0EA" stroke-width="1.4" /><text x="1988" y="308" font-family="Arial" font-size="16" font-weight="700" fill="#142132" text-anchor="start"><tspan x="1988" dy="0">5. External Runtime</tspan></text><rect x="1920" y="452" width="210" height="350" rx="18" fill="#F8FAFC" stroke="#D8E0EA" stroke-width="1.4" /><text x="1938" y="480" font-family="Arial" font-size="16" font-weight="700" fill="#142132" text-anchor="start"><tspan x="1938" dy="0">6. Validation</tspan></text><rect x="1340" y="960" width="720" height="320" rx="18" fill="#F8FAFC" stroke="#D8E0EA" stroke-width="1.4" /><text x="1358" y="988" font-family="Arial" font-size="16" font-weight="700" fill="#142132" text-anchor="start"><tspan x="1358" dy="0">7. Observability</tspan></text><rect x="40" y="620" width="1180" height="910" rx="18" fill="#F8FAFC" stroke="#D8E0EA" stroke-width="1.4" /><text x="58" y="648" font-family="Arial" font-size="16" font-weight="700" fill="#142132" text-anchor="start"><tspan x="58" dy="0">8. Jira Lifecycle (Lock ? Deploy ? Validate ? Release)</tspan></text><rect x="1310" y="110" width="460" height="675" rx="18" fill="#F8FAFC" stroke="#D8E0EA" stroke-width="1.4" /><text x="1328" y="138" font-family="Arial" font-size="16" font-weight="700" fill="#142132" text-anchor="start"><tspan x="1328" dy="0">dev namespace</tspan></text><rect x="1785" y="135" width="90" height="120" rx="18" fill="#F8FAFC" stroke="#D8E0EA" stroke-width="1.4" /><text x="1803" y="163" font-family="Arial" font-size="16" font-weight="700" fill="#142132" text-anchor="start"><tspan x="1803" dy="0">vault ns</tspan></text><rect x="1785" y="275" width="90" height="120" rx="18" fill="#F8FAFC" stroke="#D8E0EA" stroke-width="1.4" /><text x="1803" y="303" font-family="Arial" font-size="16" font-weight="700" fill="#142132" text-anchor="start"><tspan x="1803" dy="0">eso ns</tspan></text><rect x="65" y="150" width="140" height="90" rx="12" fill="#FFFFFF" stroke="#7B8CA3" stroke-width="1.4" /><line x1="79" y1="198" x2="191" y2="198" stroke="#E7EDF5" stroke-width="1"/><text x="135.0" y="220" font-family="Arial" font-size="13" font-weight="600" fill="#142132" text-anchor="middle"><tspan x="135.0" dy="0">Jira Ticket</tspan></text><text x="135.0" y="246" font-family="Arial" font-size="11" font-weight="400" fill="#536275" text-anchor="middle"><tspan x="135.0" dy="0">app | component | env | version</tspan></text><rect x="65" y="260" width="140" height="90" rx="12" fill="#FFFFFF" stroke="#7B8CA3" stroke-width="1.4" /><line x1="79" y1="308" x2="191" y2="308" stroke="#E7EDF5" stroke-width="1"/><text x="135.0" y="330" font-family="Arial" font-size="13" font-weight="600" fill="#142132" text-anchor="middle"><tspan x="135.0" dy="0">Workflow Dispatch</tspan></text><text x="135.0" y="356" font-family="Arial" font-size="11" font-weight="400" fill="#536275" text-anchor="middle"><tspan x="135.0" dy="0">deploy | unlock | create ticket</tspan></text><rect x="290" y="120" width="125" height="90" rx="12" fill="#FFFFFF" stroke="#7B8CA3" stroke-width="1.4" /><line x1="304" y1="168" x2="401" y2="168" stroke="#E7EDF5" stroke-width="1"/><text x="352.5" y="190" font-family="Arial" font-size="13" font-weight="600" fill="#142132" text-anchor="middle"><tspan x="352.5" dy="0">Frontend Repo</tspan></text><text x="352.5" y="216" font-family="Arial" font-size="11" font-weight="400" fill="#536275" text-anchor="middle"><tspan x="352.5" dy="0">CI workflow</tspan></text><rect x="445" y="120" width="125" height="90" rx="12" fill="#FFFFFF" stroke="#7B8CA3" stroke-width="1.4" /><line x1="459" y1="168" x2="556" y2="168" stroke="#E7EDF5" stroke-width="1"/><text x="507.5" y="190" font-family="Arial" font-size="13" font-weight="600" fill="#142132" text-anchor="middle"><tspan x="507.5" dy="0">Product Repo</tspan></text><text x="507.5" y="216" font-family="Arial" font-size="11" font-weight="400" fill="#536275" text-anchor="middle"><tspan x="507.5" dy="0">CI workflow</tspan></text><rect x="600" y="120" width="125" height="90" rx="12" fill="#FFFFFF" stroke="#7B8CA3" stroke-width="1.4" /><line x1="614" y1="168" x2="711" y2="168" stroke="#E7EDF5" stroke-width="1"/><text x="662.5" y="190" font-family="Arial" font-size="13" font-weight="600" fill="#142132" text-anchor="middle"><tspan x="662.5" dy="0">Order Repo</tspan></text><text x="662.5" y="216" font-family="Arial" font-size="11" font-weight="400" fill="#536275" text-anchor="middle"><tspan x="662.5" dy="0">CI workflow</tspan></text><rect x="405" y="250" width="220" height="125" rx="12" fill="#FFFFFF" stroke="#7B8CA3" stroke-width="1.4" /><line x1="419" y1="298" x2="611" y2="298" stroke="#E7EDF5" stroke-width="1"/><text x="515.0" y="320" font-family="Arial" font-size="13" font-weight="600" fill="#142132" text-anchor="middle"><tspan x="515.0" dy="0">Build + Scan</tspan></text><text x="515.0" y="346" font-family="Arial" font-size="11" font-weight="400" fill="#536275" text-anchor="middle"><tspan x="515.0" dy="0">tests | SonarQube</tspan><tspan x="515.0" dy="15">Gitleaks | Trivy</tspan><tspan x="515.0" dy="15">Docker build + push</tspan></text><rect x="660" y="262" width="140" height="90" rx="12" fill="#FFFFFF" stroke="#7B8CA3" stroke-width="1.4" /><line x1="674" y1="310" x2="786" y2="310" stroke="#E7EDF5" stroke-width="1"/><text x="730.0" y="332" font-family="Arial" font-size="13" font-weight="600" fill="#142132" text-anchor="middle"><tspan x="730.0" dy="0">latest_tags.yaml</tspan></text><text x="730.0" y="358" font-family="Arial" font-size="11" font-weight="400" fill="#536275" text-anchor="middle"><tspan x="730.0" dy="0">latest image tags</tspan></text><rect x="360" y="405" width="285" height="135" rx="12" fill="#FFFFFF" stroke="#7B8CA3" stroke-width="1.4" /><line x1="374" y1="453" x2="631" y2="453" stroke="#E7EDF5" stroke-width="1"/><text x="502.5" y="475" font-family="Arial" font-size="13" font-weight="600" fill="#142132" text-anchor="middle"><tspan x="502.5" dy="0">deployment-poc</tspan></text><text x="502.5" y="501" font-family="Arial" font-size="11" font-weight="400" fill="#536275" text-anchor="middle"><tspan x="502.5" dy="0">resolve target | prechecks</tspan><tspan x="502.5" dy="15">GitOps commit | ArgoCD sync</tspan><tspan x="502.5" dy="15">URL postcheck</tspan></text><rect x="670" y="418" width="135" height="110" rx="12" fill="#FFFFFF" stroke="#7B8CA3" stroke-width="1.4" /><line x1="684" y1="466" x2="791" y2="466" stroke="#E7EDF5" stroke-width="1"/><text x="737.5" y="488" font-family="Arial" font-size="13" font-weight="600" fill="#142132" text-anchor="middle"><tspan x="737.5" dy="0">Deploy State + Locks</tspan></text><text x="737.5" y="514" font-family="Arial" font-size="11" font-weight="400" fill="#536275" text-anchor="middle"><tspan x="737.5" dy="0">last success</tspan><tspan x="737.5" dy="15">unlock | rollback</tspan></text><rect x="955" y="175" width="120" height="96" rx="12" fill="#FFFFFF" stroke="#7B8CA3" stroke-width="1.4" /><line x1="969" y1="223" x2="1061" y2="223" stroke="#E7EDF5" stroke-width="1"/><text x="1015.0" y="245" font-family="Arial" font-size="13" font-weight="600" fill="#142132" text-anchor="middle"><tspan x="1015.0" dy="0">leninkart-infra</tspan></text><text x="1015.0" y="271" font-family="Arial" font-size="11" font-weight="400" fill="#536275" text-anchor="middle"><tspan x="1015.0" dy="0">dev branch</tspan></text><rect x="1095" y="175" width="120" height="96" rx="12" fill="#FFFFFF" stroke="#7B8CA3" stroke-width="1.4" /><line x1="1109" y1="223" x2="1201" y2="223" stroke="#E7EDF5" stroke-width="1"/><text x="1155.0" y="245" font-family="Arial" font-size="13" font-weight="600" fill="#142132" text-anchor="middle"><tspan x="1155.0" dy="0">ArgoCD Root</tspan></text><text x="1155.0" y="271" font-family="Arial" font-size="11" font-weight="400" fill="#536275" text-anchor="middle"><tspan x="1155.0" dy="0">leninkart-root</tspan></text><rect x="995" y="295" width="180" height="96" rx="12" fill="#FFFFFF" stroke="#7B8CA3" stroke-width="1.4" /><line x1="1009" y1="343" x2="1161" y2="343" stroke="#E7EDF5" stroke-width="1"/><text x="1085.0" y="365" font-family="Arial" font-size="13" font-weight="600" fill="#142132" text-anchor="middle"><tspan x="1085.0" dy="0">Managed Apps</tspan></text><text x="1085.0" y="391" font-family="Arial" font-size="11" font-weight="400" fill="#536275" text-anchor="middle"><tspan x="1085.0" dy="0">frontend | product | order | postgres | vault | obs</tspan></text><rect x="1450" y="160" width="185" height="125" rx="12" fill="#FFFFFF" stroke="#7B8CA3" stroke-width="1.4" /><line x1="1464" y1="208" x2="1621" y2="208" stroke="#E7EDF5" stroke-width="1"/><text x="1542.5" y="230" font-family="Arial" font-size="13" font-weight="600" fill="#142132" text-anchor="middle"><tspan x="1542.5" dy="0">NGINX Ingress</tspan></text><text x="1542.5" y="256" font-family="Arial" font-size="11" font-weight="400" fill="#536275" text-anchor="middle"><tspan x="1542.5" dy="0">/ -&gt; frontend</tspan><tspan x="1542.5" dy="15">/auth,/api/products -&gt; product</tspan><tspan x="1542.5" dy="15">/api/orders -&gt; order</tspan></text><rect x="1330" y="340" width="125" height="96" rx="12" fill="#FFFFFF" stroke="#7B8CA3" stroke-width="1.4" /><line x1="1344" y1="388" x2="1441" y2="388" stroke="#E7EDF5" stroke-width="1"/><text x="1392.5" y="410" font-family="Arial" font-size="13" font-weight="600" fill="#142132" text-anchor="middle"><tspan x="1392.5" dy="0">Frontend Service</tspan></text><text x="1392.5" y="436" font-family="Arial" font-size="11" font-weight="400" fill="#536275" text-anchor="middle"><tspan x="1392.5" dy="0">ClusterIP :80</tspan></text><rect x="1480" y="340" width="125" height="96" rx="12" fill="#FFFFFF" stroke="#7B8CA3" stroke-width="1.4" /><line x1="1494" y1="388" x2="1591" y2="388" stroke="#E7EDF5" stroke-width="1"/><text x="1542.5" y="410" font-family="Arial" font-size="13" font-weight="600" fill="#142132" text-anchor="middle"><tspan x="1542.5" dy="0">Product Service</tspan></text><text x="1542.5" y="436" font-family="Arial" font-size="11" font-weight="400" fill="#536275" text-anchor="middle"><tspan x="1542.5" dy="0">ClusterIP :8081</tspan></text><rect x="1630" y="340" width="125" height="96" rx="12" fill="#FFFFFF" stroke="#7B8CA3" stroke-width="1.4" /><line x1="1644" y1="388" x2="1741" y2="388" stroke="#E7EDF5" stroke-width="1"/><text x="1692.5" y="410" font-family="Arial" font-size="13" font-weight="600" fill="#142132" text-anchor="middle"><tspan x="1692.5" dy="0">Order Service</tspan></text><text x="1692.5" y="436" font-family="Arial" font-size="11" font-weight="400" fill="#536275" text-anchor="middle"><tspan x="1692.5" dy="0">ClusterIP :8080</tspan></text><rect x="1330" y="475" width="125" height="90" rx="12" fill="#FFFFFF" stroke="#7B8CA3" stroke-width="1.4" /><line x1="1344" y1="523" x2="1441" y2="523" stroke="#E7EDF5" stroke-width="1"/><text x="1392.5" y="545" font-family="Arial" font-size="13" font-weight="600" fill="#142132" text-anchor="middle"><tspan x="1392.5" dy="0">Frontend Deployment</tspan></text><rect x="1480" y="475" width="125" height="90" rx="12" fill="#FFFFFF" stroke="#7B8CA3" stroke-width="1.4" /><line x1="1494" y1="523" x2="1591" y2="523" stroke="#E7EDF5" stroke-width="1"/><text x="1542.5" y="545" font-family="Arial" font-size="13" font-weight="600" fill="#142132" text-anchor="middle"><tspan x="1542.5" dy="0">Product Deployment</tspan></text><rect x="1630" y="475" width="125" height="90" rx="12" fill="#FFFFFF" stroke="#7B8CA3" stroke-width="1.4" /><line x1="1644" y1="523" x2="1741" y2="523" stroke="#E7EDF5" stroke-width="1"/><text x="1692.5" y="545" font-family="Arial" font-size="13" font-weight="600" fill="#142132" text-anchor="middle"><tspan x="1692.5" dy="0">Order Deployment</tspan></text><rect x="1330" y="600" width="125" height="90" rx="12" fill="#FFFFFF" stroke="#7B8CA3" stroke-width="1.4" /><line x1="1344" y1="648" x2="1441" y2="648" stroke="#E7EDF5" stroke-width="1"/><text x="1392.5" y="670" font-family="Arial" font-size="13" font-weight="600" fill="#142132" text-anchor="middle"><tspan x="1392.5" dy="0">Frontend Pods</tspan></text><rect x="1480" y="600" width="125" height="110" rx="12" fill="#FFFFFF" stroke="#7B8CA3" stroke-width="1.4" /><line x1="1494" y1="648" x2="1591" y2="648" stroke="#E7EDF5" stroke-width="1"/><text x="1542.5" y="670" font-family="Arial" font-size="13" font-weight="600" fill="#142132" text-anchor="middle"><tspan x="1542.5" dy="0">Product Pods</tspan></text><text x="1542.5" y="696" font-family="Arial" font-size="11" font-weight="400" fill="#536275" text-anchor="middle"><tspan x="1542.5" dy="0">metrics + OTLP</tspan></text><rect x="1630" y="600" width="125" height="110" rx="12" fill="#FFFFFF" stroke="#7B8CA3" stroke-width="1.4" /><line x1="1644" y1="648" x2="1741" y2="648" stroke="#E7EDF5" stroke-width="1"/><text x="1692.5" y="670" font-family="Arial" font-size="13" font-weight="600" fill="#142132" text-anchor="middle"><tspan x="1692.5" dy="0">Order Pods</tspan></text><text x="1692.5" y="696" font-family="Arial" font-size="11" font-weight="400" fill="#536275" text-anchor="middle"><tspan x="1692.5" dy="0">metrics + OTLP</tspan></text><rect x="1475" y="750" width="150" height="110" rx="12" fill="#FFFFFF" stroke="#7B8CA3" stroke-width="1.4" /><line x1="1489" y1="798" x2="1611" y2="798" stroke="#E7EDF5" stroke-width="1"/><text x="1550.0" y="820" font-family="Arial" font-size="13" font-weight="600" fill="#142132" text-anchor="middle"><tspan x="1550.0" dy="0">PostgreSQL</tspan></text><text x="1550.0" y="846" font-family="Arial" font-size="11" font-weight="400" fill="#536275" text-anchor="middle"><tspan x="1550.0" dy="0">StatefulSet + Service :5432</tspan></text><rect x="1310" y="750" width="135" height="110" rx="12" fill="#FFFFFF" stroke="#7B8CA3" stroke-width="1.4" /><line x1="1324" y1="798" x2="1431" y2="798" stroke="#E7EDF5" stroke-width="1"/><text x="1377.5" y="820" font-family="Arial" font-size="13" font-weight="600" fill="#142132" text-anchor="middle"><tspan x="1377.5" dy="0">vault-backend</tspan></text><text x="1377.5" y="846" font-family="Arial" font-size="11" font-weight="400" fill="#536275" text-anchor="middle"><tspan x="1377.5" dy="0">ClusterSecretStore</tspan></text><rect x="1788" y="151" width="82" height="82" rx="12" fill="#FFFFFF" stroke="#7B8CA3" stroke-width="1.4" /><line x1="1802" y1="199" x2="1856" y2="199" stroke="#E7EDF5" stroke-width="1"/><text x="1829.0" y="221" font-family="Arial" font-size="13" font-weight="600" fill="#142132" text-anchor="middle"><tspan x="1829.0" dy="0">Vault</tspan></text><text x="1829.0" y="247" font-family="Arial" font-size="11" font-weight="400" fill="#536275" text-anchor="middle"><tspan x="1829.0" dy="0">Svc :8200</tspan></text><rect x="1784" y="289" width="92" height="82" rx="12" fill="#FFFFFF" stroke="#7B8CA3" stroke-width="1.4" /><line x1="1798" y1="337" x2="1862" y2="337" stroke="#E7EDF5" stroke-width="1"/><text x="1830.0" y="359" font-family="Arial" font-size="13" font-weight="600" fill="#142132" text-anchor="middle"><tspan x="1830.0" dy="0">External Secrets</tspan></text><text x="1830.0" y="385" font-family="Arial" font-size="11" font-weight="400" fill="#536275" text-anchor="middle"><tspan x="1830.0" dy="0">sync secrets</tspan></text><rect x="1992" y="315" width="145" height="112" rx="12" fill="#FFFFFF" stroke="#7B8CA3" stroke-width="1.4" /><line x1="2006" y1="363" x2="2123" y2="363" stroke="#E7EDF5" stroke-width="1"/><text x="2064.5" y="385" font-family="Arial" font-size="13" font-weight="600" fill="#142132" text-anchor="middle"><tspan x="2064.5" dy="0">Kafka Platform</tspan></text><text x="2064.5" y="411" font-family="Arial" font-size="11" font-weight="400" fill="#536275" text-anchor="middle"><tspan x="2064.5" dy="0">Docker Compose broker :9092</tspan><tspan x="2064.5" dy="15">JMX exporter :7071</tspan></text><rect x="1960" y="515" width="130" height="72" rx="12" fill="#FFFFFF" stroke="#7B8CA3" stroke-width="1.4" /><line x1="1974" y1="563" x2="2076" y2="563" stroke="#E7EDF5" stroke-width="1"/><text x="2025.0" y="585" font-family="Arial" font-size="13" font-weight="600" fill="#142132" text-anchor="middle"><tspan x="2025.0" dy="0">Validation Job</tspan></text><text x="2025.0" y="611" font-family="Arial" font-size="11" font-weight="400" fill="#536275" text-anchor="middle"><tspan x="2025.0" dy="0">project-validation</tspan></text><rect x="1960" y="605" width="130" height="92" rx="12" fill="#FFFFFF" stroke="#7B8CA3" stroke-width="1.4" /><line x1="1974" y1="653" x2="2076" y2="653" stroke="#E7EDF5" stroke-width="1"/><text x="2025.0" y="675" font-family="Arial" font-size="13" font-weight="600" fill="#142132" text-anchor="middle"><tspan x="2025.0" dy="0">Test Execution</tspan></text><text x="2025.0" y="701" font-family="Arial" font-size="11" font-weight="400" fill="#536275" text-anchor="middle"><tspan x="2025.0" dy="0">app | infra | vault | observability | messaging</tspan></text><rect x="1960" y="715" width="130" height="66" rx="12" fill="#FFFFFF" stroke="#7B8CA3" stroke-width="1.4" /><line x1="1974" y1="763" x2="2076" y2="763" stroke="#E7EDF5" stroke-width="1"/><text x="2025.0" y="785" font-family="Arial" font-size="13" font-weight="600" fill="#142132" text-anchor="middle"><tspan x="2025.0" dy="0">Result</tspan></text><text x="2025.0" y="811" font-family="Arial" font-size="11" font-weight="400" fill="#536275" text-anchor="middle"><tspan x="2025.0" dy="0">PASS / FAIL proof</tspan></text><rect x="1410" y="1060" width="110" height="86" rx="12" fill="#FFFFFF" stroke="#7B8CA3" stroke-width="1.4" /><line x1="1424" y1="1108" x2="1506" y2="1108" stroke="#E7EDF5" stroke-width="1"/><text x="1465.0" y="1130" font-family="Arial" font-size="13" font-weight="600" fill="#142132" text-anchor="middle"><tspan x="1465.0" dy="0">Promtail</tspan></text><text x="1465.0" y="1156" font-family="Arial" font-size="11" font-weight="400" fill="#536275" text-anchor="middle"><tspan x="1465.0" dy="0">log shipper</tspan></text><rect x="1550" y="1060" width="110" height="86" rx="12" fill="#FFFFFF" stroke="#7B8CA3" stroke-width="1.4" /><line x1="1564" y1="1108" x2="1646" y2="1108" stroke="#E7EDF5" stroke-width="1"/><text x="1605.0" y="1130" font-family="Arial" font-size="13" font-weight="600" fill="#142132" text-anchor="middle"><tspan x="1605.0" dy="0">Prometheus</tspan></text><text x="1605.0" y="1156" font-family="Arial" font-size="11" font-weight="400" fill="#536275" text-anchor="middle"><tspan x="1605.0" dy="0">metrics store</tspan></text><rect x="1690" y="1060" width="110" height="86" rx="12" fill="#FFFFFF" stroke="#7B8CA3" stroke-width="1.4" /><line x1="1704" y1="1108" x2="1786" y2="1108" stroke="#E7EDF5" stroke-width="1"/><text x="1745.0" y="1130" font-family="Arial" font-size="13" font-weight="600" fill="#142132" text-anchor="middle"><tspan x="1745.0" dy="0">Loki</tspan></text><text x="1745.0" y="1156" font-family="Arial" font-size="11" font-weight="400" fill="#536275" text-anchor="middle"><tspan x="1745.0" dy="0">logs store</tspan></text><rect x="1830" y="1060" width="110" height="86" rx="12" fill="#FFFFFF" stroke="#7B8CA3" stroke-width="1.4" /><line x1="1844" y1="1108" x2="1926" y2="1108" stroke="#E7EDF5" stroke-width="1"/><text x="1885.0" y="1130" font-family="Arial" font-size="13" font-weight="600" fill="#142132" text-anchor="middle"><tspan x="1885.0" dy="0">Tempo</tspan></text><text x="1885.0" y="1156" font-family="Arial" font-size="11" font-weight="400" fill="#536275" text-anchor="middle"><tspan x="1885.0" dy="0">trace store</tspan></text><rect x="1960" y="1060" width="95" height="86" rx="12" fill="#FFFFFF" stroke="#7B8CA3" stroke-width="1.4" /><line x1="1974" y1="1108" x2="2041" y2="1108" stroke="#E7EDF5" stroke-width="1"/><text x="2007.5" y="1130" font-family="Arial" font-size="13" font-weight="600" fill="#142132" text-anchor="middle"><tspan x="2007.5" dy="0">Grafana</tspan></text><text x="2007.5" y="1156" font-family="Arial" font-size="11" font-weight="400" fill="#536275" text-anchor="middle"><tspan x="2007.5" dy="0">dashboards</tspan></text><rect x="80" y="690" width="180" height="88" rx="12" fill="#FFFFFF" stroke="#7B8CA3" stroke-width="1.4" /><text x="170.0" y="730" font-family="Arial" font-size="13" font-weight="600" fill="#142132" text-anchor="middle"><tspan x="170.0" dy="0">Jira Ticket</tspan></text><text x="170.0" y="756" font-family="Arial" font-size="11" font-weight="400" fill="#536275" text-anchor="middle"><tspan x="170.0" dy="0">component | env | version | status</tspan></text><rect x="80" y="810" width="180" height="88" rx="12" fill="#FFFFFF" stroke="#7B8CA3" stroke-width="1.4" /><text x="170.0" y="850" font-family="Arial" font-size="13" font-weight="600" fill="#142132" text-anchor="middle"><tspan x="170.0" dy="0">Workflow Dispatch</tspan></text><text x="170.0" y="876" font-family="Arial" font-size="11" font-weight="400" fill="#536275" text-anchor="middle"><tspan x="170.0" dy="0">deploy | unlock | create ticket</tspan></text><rect x="80" y="930" width="180" height="88" rx="12" fill="#FFFFFF" stroke="#7B8CA3" stroke-width="1.4" /><text x="170.0" y="970" font-family="Arial" font-size="13" font-weight="600" fill="#142132" text-anchor="middle"><tspan x="170.0" dy="0">Acquire Lock</tspan></text><text x="170.0" y="996" font-family="Arial" font-size="11" font-weight="400" fill="#536275" text-anchor="middle"><tspan x="170.0" dy="0">deployment lock active</tspan></text><rect x="330" y="930" width="190" height="98" rx="12" fill="#FFFFFF" stroke="#7B8CA3" stroke-width="1.4" /><text x="425.0" y="970" font-family="Arial" font-size="13" font-weight="600" fill="#142132" text-anchor="middle"><tspan x="425.0" dy="0">Build + Scan</tspan></text><text x="425.0" y="996" font-family="Arial" font-size="11" font-weight="400" fill="#536275" text-anchor="middle"><tspan x="425.0" dy="0">test | SonarQube | Gitleaks | Trivy</tspan></text><rect x="330" y="1055" width="190" height="98" rx="12" fill="#FFFFFF" stroke="#7B8CA3" stroke-width="1.4" /><text x="425.0" y="1095" font-family="Arial" font-size="13" font-weight="600" fill="#142132" text-anchor="middle"><tspan x="425.0" dy="0">Build Image + Push</tspan></text><text x="425.0" y="1121" font-family="Arial" font-size="11" font-weight="400" fill="#536275" text-anchor="middle"><tspan x="425.0" dy="0">Docker build ? registry</tspan></text><rect x="330" y="1180" width="190" height="88" rx="12" fill="#FFFFFF" stroke="#7B8CA3" stroke-width="1.4" /><text x="425.0" y="1220" font-family="Arial" font-size="13" font-weight="600" fill="#142132" text-anchor="middle"><tspan x="425.0" dy="0">Update latest_tags.yaml</tspan></text><text x="425.0" y="1246" font-family="Arial" font-size="11" font-weight="400" fill="#536275" text-anchor="middle"><tspan x="425.0" dy="0">resolve version</tspan></text><rect x="585" y="930" width="170" height="88" rx="12" fill="#FFFFFF" stroke="#7B8CA3" stroke-width="1.4" /><text x="670.0" y="970" font-family="Arial" font-size="13" font-weight="600" fill="#142132" text-anchor="middle"><tspan x="670.0" dy="0">GitOps Commit</tspan></text><text x="670.0" y="996" font-family="Arial" font-size="11" font-weight="400" fill="#536275" text-anchor="middle"><tspan x="670.0" dy="0">update manifests</tspan></text><rect x="585" y="1055" width="170" height="88" rx="12" fill="#FFFFFF" stroke="#7B8CA3" stroke-width="1.4" /><text x="670.0" y="1095" font-family="Arial" font-size="13" font-weight="600" fill="#142132" text-anchor="middle"><tspan x="670.0" dy="0">ArgoCD Sync</tspan></text><text x="670.0" y="1121" font-family="Arial" font-size="11" font-weight="400" fill="#536275" text-anchor="middle"><tspan x="670.0" dy="0">deploy to cluster</tspan></text><rect x="565" y="1180" width="210" height="98" rx="12" fill="#FFFFFF" stroke="#7B8CA3" stroke-width="1.4" /><text x="670.0" y="1220" font-family="Arial" font-size="13" font-weight="600" fill="#142132" text-anchor="middle"><tspan x="670.0" dy="0">Deploy State + Locks</tspan></text><text x="670.0" y="1246" font-family="Arial" font-size="11" font-weight="400" fill="#536275" text-anchor="middle"><tspan x="670.0" dy="0">lock active | last success tracked</tspan></text><rect x="845" y="980" width="175" height="98" rx="12" fill="#FFFFFF" stroke="#7B8CA3" stroke-width="1.4" /><text x="932.5" y="1020" font-family="Arial" font-size="13" font-weight="600" fill="#142132" text-anchor="middle"><tspan x="932.5" dy="0">Validation</tspan></text><text x="932.5" y="1046" font-family="Arial" font-size="11" font-weight="400" fill="#536275" text-anchor="middle"><tspan x="932.5" dy="0">Playwright | runtime checks</tspan></text><polygon points="930.0,1120 990,1180.0 930.0,1240 870,1180.0" fill="#FFFFFF" stroke="#7B8CA3" stroke-width="1.4"/><text x="930.0" y="1170.0" font-family="Arial" font-size="12" font-weight="700" fill="#142132" text-anchor="middle"><tspan x="930.0" dy="0">Decision</tspan></text><text x="930.0" y="1194.0" font-family="Arial" font-size="10" font-weight="400" fill="#536275" text-anchor="middle"><tspan x="930.0" dy="0">PASS / FAIL</tspan></text><rect x="1050" y="980" width="140" height="74" rx="12" fill="#FFFFFF" stroke="#7B8CA3" stroke-width="1.4" /><text x="1120.0" y="1020" font-family="Arial" font-size="13" font-weight="600" fill="#142132" text-anchor="middle"><tspan x="1120.0" dy="0">Release Lock</tspan></text><rect x="1050" y="1080" width="140" height="74" rx="12" fill="#FFFFFF" stroke="#7B8CA3" stroke-width="1.4" /><text x="1120.0" y="1120" font-family="Arial" font-size="13" font-weight="600" fill="#142132" text-anchor="middle"><tspan x="1120.0" dy="0">Mark Success</tspan></text><rect x="1025" y="1180" width="190" height="88" rx="12" fill="#FFFFFF" stroke="#7B8CA3" stroke-width="1.4" /><text x="1120.0" y="1220" font-family="Arial" font-size="13" font-weight="600" fill="#142132" text-anchor="middle"><tspan x="1120.0" dy="0">Update Jira Status</tspan></text><text x="1120.0" y="1246" font-family="Arial" font-size="11" font-weight="400" fill="#536275" text-anchor="middle"><tspan x="1120.0" dy="0">SUCCESS</tspan></text><rect x="840" y="1288" width="190" height="88" rx="12" fill="#FFFFFF" stroke="#7B8CA3" stroke-width="1.4" /><text x="935.0" y="1328" font-family="Arial" font-size="13" font-weight="600" fill="#142132" text-anchor="middle"><tspan x="935.0" dy="0">Rollback to Last Success</tspan></text><rect x="1050" y="1288" width="140" height="88" rx="12" fill="#FFFFFF" stroke="#7B8CA3" stroke-width="1.4" /><text x="1120.0" y="1328" font-family="Arial" font-size="13" font-weight="600" fill="#142132" text-anchor="middle"><tspan x="1120.0" dy="0">Unlock</tspan></text><text x="1120.0" y="1354" font-family="Arial" font-size="11" font-weight="400" fill="#536275" text-anchor="middle"><tspan x="1120.0" dy="0">controlled</tspan></text><rect x="930" y="1405" width="190" height="88" rx="12" fill="#FFFFFF" stroke="#7B8CA3" stroke-width="1.4" /><text x="1025.0" y="1445" font-family="Arial" font-size="13" font-weight="600" fill="#142132" text-anchor="middle"><tspan x="1025.0" dy="0">Update Jira Status</tspan></text><text x="1025.0" y="1471" font-family="Arial" font-size="11" font-weight="400" fill="#536275" text-anchor="middle"><tspan x="1025.0" dy="0">FAILED</tspan></text><path d="M 205 195 L 335 195 L 335 452 L 360 452" fill="none" stroke="#5E6D81" stroke-width="2" stroke-linecap="round" stroke-linejoin="round" marker-end="url(#arrow)"/><text x="285" y="432" font-family="Arial" font-size="10" font-weight="400" fill="#536275" text-anchor="middle"><tspan x="285" dy="0">deployment request</tspan></text><path d="M 205 305 L 315 305 L 315 486 L 360 486" fill="none" stroke="#5E6D81" stroke-width="2" stroke-linecap="round" stroke-linejoin="round" marker-end="url(#arrow)"/><text x="276" y="294" font-family="Arial" font-size="10" font-weight="400" fill="#536275" text-anchor="middle"><tspan x="276" dy="0">manual trigger</tspan></text><path d="M 352 210 L 352 250 L 430 250" fill="none" stroke="#5E6D81" stroke-width="2" stroke-linecap="round" stroke-linejoin="round" marker-end="url(#arrow)"/><path d="M 507 210 L 507 250 L 515 250" fill="none" stroke="#5E6D81" stroke-width="2" stroke-linecap="round" stroke-linejoin="round" marker-end="url(#arrow)"/><path d="M 662 210 L 662 250 L 605 250" fill="none" stroke="#5E6D81" stroke-width="2" stroke-linecap="round" stroke-linejoin="round" marker-end="url(#arrow)"/><path d="M 625 312 L 660 312" fill="none" stroke="#5E6D81" stroke-width="2" stroke-linecap="round" stroke-linejoin="round" marker-end="url(#arrow)"/><text x="642" y="299" font-family="Arial" font-size="10" font-weight="400" fill="#536275" text-anchor="middle"><tspan x="642" dy="0">publish latest tags</tspan></text><path d="M 800 307 L 835 307 L 835 452 L 645 452" fill="none" stroke="#5E6D81" stroke-width="2" stroke-linecap="round" stroke-linejoin="round" marker-end="url(#arrow)"/><text x="820" y="294" font-family="Arial" font-size="10" font-weight="400" fill="#536275" text-anchor="middle"><tspan x="820" dy="0">resolve version</tspan></text><path d="M 645 452 L 920 452 L 920 223 L 955 223" fill="none" stroke="#5E6D81" stroke-width="2" stroke-linecap="round" stroke-linejoin="round" marker-end="url(#arrow)"/><text x="845" y="438" font-family="Arial" font-size="10" font-weight="400" fill="#536275" text-anchor="middle"><tspan x="845" dy="0">commit values-dev tag</tspan></text><path d="M 1075 223 L 1095 223" fill="none" stroke="#5E6D81" stroke-width="2" stroke-linecap="round" stroke-linejoin="round" marker-end="url(#arrow)"/><text x="1080" y="212" font-family="Arial" font-size="10" font-weight="400" fill="#536275" text-anchor="middle"><tspan x="1080" dy="0">dev branch</tspan></text><path d="M 1155 271 L 1155 295" fill="none" stroke="#5E6D81" stroke-width="2" stroke-linecap="round" stroke-linejoin="round" marker-end="url(#arrow)"/><text x="1170" y="289" font-family="Arial" font-size="10" font-weight="400" fill="#536275" text-anchor="middle"><tspan x="1170" dy="0">app-of-apps</tspan></text><path d="M 738 528 L 738 593 L 705 593 L 705 528" fill="none" stroke="#9AA8BA" stroke-width="2" stroke-linecap="round" stroke-linejoin="round" stroke-dasharray="7 6" marker-end="url(#arrow)"/><text x="748" y="608" font-family="Arial" font-size="10" font-weight="400" fill="#9AA8BA" text-anchor="middle"><tspan x="748" dy="0">lock / last success</tspan></text><path d="M 645 480 L 920 480 L 920 202 L 955 202" fill="none" stroke="#C0392B" stroke-width="2" stroke-linecap="round" stroke-linejoin="round" stroke-dasharray="7 6" marker-end="url(#arrow)"/><text x="925" y="190" font-family="Arial" font-size="10" font-weight="400" fill="#C0392B" text-anchor="middle"><tspan x="925" dy="0">rollback to last success</tspan></text><path d="M 1175 343 L 1260 343 L 1260 222 L 1450 222" fill="none" stroke="#5E6D81" stroke-width="2" stroke-linecap="round" stroke-linejoin="round" marker-end="url(#arrow)"/><text x="1275" y="330" font-family="Arial" font-size="10" font-weight="400" fill="#536275" text-anchor="middle"><tspan x="1275" dy="0">sync runtime</tspan></text><path d="M 1175 343 L 1270 343 L 1270 192 L 1788 192" fill="none" stroke="#9AA8BA" stroke-width="2" stroke-linecap="round" stroke-linejoin="round" stroke-dasharray="7 6" marker-end="url(#arrow)"/><path d="M 1175 343 L 1270 343 L 1270 330 L 1784 330" fill="none" stroke="#9AA8BA" stroke-width="2" stroke-linecap="round" stroke-linejoin="round" stroke-dasharray="7 6" marker-end="url(#arrow)"/><path d="M 1175 343 L 1270 343 L 1270 1103 L 1550 1103" fill="none" stroke="#9AA8BA" stroke-width="2" stroke-linecap="round" stroke-linejoin="round" stroke-dasharray="7 6" marker-end="url(#arrow)"/><path d="M 1392 285 L 1392 340" fill="none" stroke="#5E6D81" stroke-width="2" stroke-linecap="round" stroke-linejoin="round" marker-end="url(#arrow)"/><path d="M 1542 285 L 1542 340" fill="none" stroke="#5E6D81" stroke-width="2" stroke-linecap="round" stroke-linejoin="round" marker-end="url(#arrow)"/><path d="M 1692 285 L 1692 340" fill="none" stroke="#5E6D81" stroke-width="2" stroke-linecap="round" stroke-linejoin="round" marker-end="url(#arrow)"/><path d="M 1392 436 L 1392 475" fill="none" stroke="#5E6D81" stroke-width="2" stroke-linecap="round" stroke-linejoin="round" marker-end="url(#arrow)"/><path d="M 1542 436 L 1542 475" fill="none" stroke="#5E6D81" stroke-width="2" stroke-linecap="round" stroke-linejoin="round" marker-end="url(#arrow)"/><path d="M 1692 436 L 1692 475" fill="none" stroke="#5E6D81" stroke-width="2" stroke-linecap="round" stroke-linejoin="round" marker-end="url(#arrow)"/><path d="M 1392 565 L 1392 600" fill="none" stroke="#5E6D81" stroke-width="2" stroke-linecap="round" stroke-linejoin="round" marker-end="url(#arrow)"/><path d="M 1542 565 L 1542 600" fill="none" stroke="#5E6D81" stroke-width="2" stroke-linecap="round" stroke-linejoin="round" marker-end="url(#arrow)"/><path d="M 1692 565 L 1692 600" fill="none" stroke="#5E6D81" stroke-width="2" stroke-linecap="round" stroke-linejoin="round" marker-end="url(#arrow)"/><path d="M 1542 710 L 1542 750" fill="none" stroke="#5E6D81" stroke-width="2" stroke-linecap="round" stroke-linejoin="round" marker-end="url(#arrow)"/><path d="M 1692 710 L 1692 750 L 1625 750" fill="none" stroke="#5E6D81" stroke-width="2" stroke-linecap="round" stroke-linejoin="round" marker-end="url(#arrow)"/><text x="1526" y="738" font-family="Arial" font-size="10" font-weight="400" fill="#536275" text-anchor="middle"><tspan x="1526" dy="0">JDBC :5432</tspan></text><text x="1656" y="738" font-family="Arial" font-size="10" font-weight="400" fill="#536275" text-anchor="middle"><tspan x="1656" dy="0">JDBC :5432</tspan></text><path d="M 1542 655 L 1542 690 L 1918 690" fill="none" stroke="#5E6D81" stroke-width="2" stroke-linecap="round" stroke-linejoin="round"/><path d="M 1692 655 L 1692 720 L 1918 720" fill="none" stroke="#5E6D81" stroke-width="2" stroke-linecap="round" stroke-linejoin="round"/><path d="M 1918 705 L 1918 440 L 1992 440 L 1992 371" fill="none" stroke="#5E6D81" stroke-width="2" stroke-linecap="round" stroke-linejoin="round" marker-end="url(#arrow)"/><text x="1950" y="430" font-family="Arial" font-size="10" font-weight="400" fill="#536275" text-anchor="middle"><tspan x="1950" dy="0">bootstrap :9092</tspan></text><path d="M 1830 227 L 1830 805 L 1378 805" fill="none" stroke="#9AA8BA" stroke-width="2" stroke-linecap="round" stroke-linejoin="round" stroke-dasharray="7 6" marker-end="url(#arrow)"/><text x="1730" y="240" font-family="Arial" font-size="10" font-weight="400" fill="#9AA8BA" text-anchor="middle"><tspan x="1730" dy="0">Vault provider</tspan></text><path d="M 1830 367 L 1830 835 L 1378 835" fill="none" stroke="#9AA8BA" stroke-width="2" stroke-linecap="round" stroke-linejoin="round" stroke-dasharray="7 6" marker-end="url(#arrow)"/><text x="1740" y="382" font-family="Arial" font-size="10" font-weight="400" fill="#9AA8BA" text-anchor="middle"><tspan x="1740" dy="0">uses store</tspan></text><path d="M 1378 860 L 1378 710 L 1542 710" fill="none" stroke="#9AA8BA" stroke-width="2" stroke-linecap="round" stroke-linejoin="round" stroke-dasharray="7 6" marker-end="url(#arrow)"/><path d="M 1378 860 L 1378 710 L 1692 710" fill="none" stroke="#9AA8BA" stroke-width="2" stroke-linecap="round" stroke-linejoin="round" stroke-dasharray="7 6" marker-end="url(#arrow)"/><path d="M 1378 860 L 1378 1103 L 1960 1103" fill="none" stroke="#9AA8BA" stroke-width="2" stroke-linecap="round" stroke-linejoin="round" stroke-dasharray="7 6" marker-end="url(#arrow)"/><path d="M 645 452 L 1915 452 L 1915 551 L 1960 551" fill="none" stroke="#9AA8BA" stroke-width="2" stroke-linecap="round" stroke-linejoin="round" stroke-dasharray="7 6" marker-end="url(#arrow)"/><path d="M 2025 587 L 2025 605" fill="none" stroke="#5E6D81" stroke-width="2" stroke-linecap="round" stroke-linejoin="round" marker-end="url(#arrow)"/><path d="M 2025 697 L 2025 715" fill="none" stroke="#5E6D81" stroke-width="2" stroke-linecap="round" stroke-linejoin="round" marker-end="url(#arrow)"/><path d="M 1520 1103 L 1690 1103" fill="none" stroke="#9AA8BA" stroke-width="2" stroke-linecap="round" stroke-linejoin="round" stroke-dasharray="7 6" marker-end="url(#arrow)"/><path d="M 1542 710 L 1542 1103 L 1550 1103" fill="none" stroke="#9AA8BA" stroke-width="2" stroke-linecap="round" stroke-linejoin="round" stroke-dasharray="7 6" marker-end="url(#arrow)"/><path d="M 1692 710 L 1692 1103 L 1550 1103" fill="none" stroke="#9AA8BA" stroke-width="2" stroke-linecap="round" stroke-linejoin="round" stroke-dasharray="7 6" marker-end="url(#arrow)"/><text x="1545" y="930" font-family="Arial" font-size="10" font-weight="400" fill="#9AA8BA" text-anchor="middle"><tspan x="1545" dy="0">metrics</tspan></text><path d="M 2065 371 L 2065 1103 L 1550 1103" fill="none" stroke="#9AA8BA" stroke-width="2" stroke-linecap="round" stroke-linejoin="round" stroke-dasharray="7 6" marker-end="url(#arrow)"/><text x="2032" y="930" font-family="Arial" font-size="10" font-weight="400" fill="#9AA8BA" text-anchor="middle"><tspan x="2032" dy="0">JMX :7071</tspan></text><path d="M 1800 1103 L 1830 1103" fill="none" stroke="#5E6D81" stroke-width="2" stroke-linecap="round" stroke-linejoin="round" marker-end="url(#arrow)"/><path d="M 1940 1103 L 1960 1103" fill="none" stroke="#5E6D81" stroke-width="2" stroke-linecap="round" stroke-linejoin="round" marker-end="url(#arrow)"/><path d="M 170 778 L 170 810" fill="none" stroke="#5E6D81" stroke-width="2" stroke-linecap="round" stroke-linejoin="round" marker-end="url(#arrow)"/><path d="M 170 898 L 170 930" fill="none" stroke="#5E6D81" stroke-width="2" stroke-linecap="round" stroke-linejoin="round" marker-end="url(#arrow)"/><path d="M 260 974 L 330 974" fill="none" stroke="#5E6D81" stroke-width="2" stroke-linecap="round" stroke-linejoin="round" marker-end="url(#arrow)"/><path d="M 425 1028 L 425 1055" fill="none" stroke="#5E6D81" stroke-width="2" stroke-linecap="round" stroke-linejoin="round" marker-end="url(#arrow)"/><path d="M 425 1153 L 425 1180" fill="none" stroke="#5E6D81" stroke-width="2" stroke-linecap="round" stroke-linejoin="round" marker-end="url(#arrow)"/><path d="M 520 1224 L 585 1224 L 585 974" fill="none" stroke="#5E6D81" stroke-width="2" stroke-linecap="round" stroke-linejoin="round" marker-end="url(#arrow)"/><path d="M 670 1018 L 670 1055" fill="none" stroke="#5E6D81" stroke-width="2" stroke-linecap="round" stroke-linejoin="round" marker-end="url(#arrow)"/><path d="M 670 1143 L 670 1180" fill="none" stroke="#5E6D81" stroke-width="2" stroke-linecap="round" stroke-linejoin="round" marker-end="url(#arrow)"/><path d="M 775 1229 L 845 1229 L 845 1029" fill="none" stroke="#5E6D81" stroke-width="2" stroke-linecap="round" stroke-linejoin="round" marker-end="url(#arrow)"/><path d="M 932 1078 L 932 1120" fill="none" stroke="#5E6D81" stroke-width="2" stroke-linecap="round" stroke-linejoin="round" marker-end="url(#arrow)"/><path d="M 990 1180 L 1050 1180 L 1050 1017" fill="none" stroke="#5E6D81" stroke-width="2" stroke-linecap="round" stroke-linejoin="round" marker-end="url(#arrow)"/><path d="M 1120 1054 L 1120 1080" fill="none" stroke="#5E6D81" stroke-width="2" stroke-linecap="round" stroke-linejoin="round" marker-end="url(#arrow)"/><path d="M 1120 1154 L 1120 1180" fill="none" stroke="#5E6D81" stroke-width="2" stroke-linecap="round" stroke-linejoin="round" marker-end="url(#arrow)"/><path d="M 930 1240 L 930 1288" fill="none" stroke="#5E6D81" stroke-width="2" stroke-linecap="round" stroke-linejoin="round" marker-end="url(#arrow)"/><path d="M 1030 1332 L 1050 1332" fill="none" stroke="#5E6D81" stroke-width="2" stroke-linecap="round" stroke-linejoin="round" marker-end="url(#arrow)"/><path d="M 1120 1376 L 1120 1405" fill="none" stroke="#5E6D81" stroke-width="2" stroke-linecap="round" stroke-linejoin="round" marker-end="url(#arrow)"/><path d="M 170 930 L 170 734" fill="none" stroke="#9AA8BA" stroke-width="1.4" stroke-linecap="round" stroke-linejoin="round" stroke-dasharray="7 6" marker-end="url(#arrow)"/><text x="270" y="952" font-family="Arial" font-size="10" font-weight="400" fill="#9AA8BA" text-anchor="middle"><tspan x="270" dy="0">status update</tspan></text><path d="M 425 930 L 425 724 L 170 724" fill="none" stroke="#9AA8BA" stroke-width="1.4" stroke-linecap="round" stroke-linejoin="round" stroke-dasharray="7 6" marker-end="url(#arrow)"/><text x="425" y="918" font-family="Arial" font-size="10" font-weight="400" fill="#9AA8BA" text-anchor="middle"><tspan x="425" dy="0">deployment heartbeat</tspan></text><path d="M 670 1055 L 670 694 L 170 694" fill="none" stroke="#9AA8BA" stroke-width="1.4" stroke-linecap="round" stroke-linejoin="round" stroke-dasharray="7 6" marker-end="url(#arrow)"/><text x="770" y="1048" font-family="Arial" font-size="10" font-weight="400" fill="#9AA8BA" text-anchor="middle"><tspan x="770" dy="0">state sync</tspan></text><path d="M 932 980 L 932 666 L 170 666" fill="none" stroke="#9AA8BA" stroke-width="1.4" stroke-linecap="round" stroke-linejoin="round" stroke-dasharray="7 6" marker-end="url(#arrow)"/><text x="1030" y="972" font-family="Arial" font-size="10" font-weight="400" fill="#9AA8BA" text-anchor="middle"><tspan x="1030" dy="0">status update</tspan></text><path d="M 935 1288 L 935 638 L 170 638" fill="none" stroke="#9AA8BA" stroke-width="1.4" stroke-linecap="round" stroke-linejoin="round" stroke-dasharray="7 6" marker-end="url(#arrow)"/><text x="1035" y="1278" font-family="Arial" font-size="10" font-weight="400" fill="#9AA8BA" text-anchor="middle"><tspan x="1035" dy="0">state sync</tspan></text><path d="M 1025 1449 L 240 1449 L 240 734 L 170 734" fill="none" stroke="#C0392B" stroke-width="1.6" stroke-linecap="round" stroke-linejoin="round" stroke-dasharray="7 6" marker-end="url(#arrow)"/><text x="555" y="1436" font-family="Arial" font-size="10" font-weight="400" fill="#C0392B" text-anchor="middle"><tspan x="555" dy="0">fix ? re-run</tspan></text></svg>