<svg xmlns="http://www.w3.org/2000/svg" width="1080" height="1350" viewBox="0 0 1080 1350"><defs><linearGradient id="bg" x1="0" y1="0" x2="1" y2="1"><stop offset="0%" stop-color="#07101f"/><stop offset="55%" stop-color="#0d1c39"/><stop offset="100%" stop-color="#12214a"/></linearGradient><linearGradient id="cyan" x1="0" y1="0" x2="1" y2="0"><stop offset="0%" stop-color="#2dd4bf"/><stop offset="100%" stop-color="#5eead4"/></linearGradient><linearGradient id="blue" x1="0" y1="0" x2="1" y2="1"><stop offset="0%" stop-color="#12284a"/><stop offset="100%" stop-color="#1a3f6f"/></linearGradient><linearGradient id="purple" x1="0" y1="0" x2="1" y2="1"><stop offset="0%" stop-color="#2a2358"/><stop offset="100%" stop-color="#40308a"/></linearGradient><linearGradient id="amber" x1="0" y1="0" x2="1" y2="1"><stop offset="0%" stop-color="#4f3519"/><stop offset="100%" stop-color="#825927"/></linearGradient><linearGradient id="red" x1="0" y1="0" x2="1" y2="1"><stop offset="0%" stop-color="#5b2323"/><stop offset="100%" stop-color="#8c3131"/></linearGradient><linearGradient id="note" x1="0" y1="0" x2="1" y2="1"><stop offset="0%" stop-color="#10233f"/><stop offset="100%" stop-color="#163255"/></linearGradient><filter id="shadow" x="-20%" y="-20%" width="140%" height="140%"><feDropShadow dx="0" dy="16" stdDeviation="18" flood-color="#020617" flood-opacity="0.35"/></filter><marker id="arrow" markerWidth="14" markerHeight="14" refX="11" refY="4" orient="auto"><path d="M0,0 L11,4 L0,8 Z" fill="#9bdcff"/></marker><style>.title{font:700 44px Segoe UI,Arial,sans-serif;fill:#eef4ff}.subtitle{font:22px Segoe UI,Arial,sans-serif;fill:#b7c4dd}.section{font:700 18px Segoe UI,Arial,sans-serif;fill:#053233;letter-spacing:.9px}.boxTitle{font:700 28px Segoe UI,Arial,sans-serif;fill:#f8fbff}.boxSub{font:600 18px Segoe UI,Arial,sans-serif;fill:#cad7ec}.body{font:17px Segoe UI,Arial,sans-serif;fill:#d7e0f2}.small{font:15px Segoe UI,Arial,sans-serif;fill:#c8d4e8}.label{font:700 15px Segoe UI,Arial,sans-serif;fill:#9edcff}</style></defs><rect width="100%" height="100%" fill="url(#bg)"/><circle cx="935" cy="120" r="215" fill="#38bdf8" opacity="0.06"/><circle cx="140" cy="1180" r="170" fill="#14b8a6" opacity="0.05"/><text x="56" y="78" class="title">Runtime, Validation, and Rollback</text><text x="56" y="112" class="subtitle">Workloads, proof coverage, observability, and automated recovery</text><g filter="url(#shadow)"><path d="M56 142 L390 142 L416 160 L390 178 L56 178 L74 160 Z" fill="url(#cyan)"/></g><text x="80" y="166" class="section">RUNTIME + VALIDATION + ROLLBACK</text><g filter="url(#shadow)"><rect x="56" y="220" width="420" height="290" rx="24" fill="url(#green)" stroke="#4b7a68" stroke-width="1.8"/></g><text x="80" y="262" class="boxTitle">k3d-leninkart-dev</text><text x="80" y="288" class="boxSub">runtime cluster</text><rect x="80" y="304" width="48" height="48" rx="12" fill="#f8fbff" opacity="0.97"/><text x="92" y="335" style="font:700 18px Segoe UI,Arial,sans-serif;fill:#0d1c39">K8</text><text x="140" y="336" class="body">frontend | product-service</text><text x="140" y="360" class="body">order-service | ingress</text><text x="140" y="384" class="body">postgres | external-secrets</text><g filter="url(#shadow)"><rect x="520" y="220" width="200" height="126" rx="24" fill="url(#purple)" stroke="#5f4aa8" stroke-width="1.8"/></g><text x="544" y="262" class="boxTitle">Vault</text><text x="544" y="288" class="boxSub">secret source</text><rect x="544" y="304" width="48" height="48" rx="12" fill="#f8fbff" opacity="0.97"/><text x="556" y="335" style="font:700 18px Segoe UI,Arial,sans-serif;fill:#0d1c39">VT</text><text x="604" y="336" class="body">dynamic injection</text><g filter="url(#shadow)"><rect x="760" y="220" width="264" height="240" rx="24" fill="url(#purple)" stroke="#5f4aa8" stroke-width="1.8"/></g><text x="784" y="262" class="boxTitle">project-validation</text><text x="784" y="288" class="boxSub">end-to-end proof engine</text><rect x="784" y="304" width="48" height="48" rx="12" fill="#f8fbff" opacity="0.97"/><text x="796" y="335" style="font:700 18px Segoe UI,Arial,sans-serif;fill:#0d1c39">PV</text><text x="844" y="336" class="body">GitHub proof</text><text x="844" y="360" class="body">GitOps + ArgoCD proof</text><text x="844" y="384" class="body">UI + Vault proof</text><text x="844" y="408" class="body">Kafka proof</text><g filter="url(#shadow)"><rect x="520" y="455" width="220" height="140" rx="24" fill="url(#purple)" stroke="#5f4aa8" stroke-width="1.8"/></g><text x="544" y="497" class="boxTitle">deployment-poc</text><text x="544" y="523" class="boxSub">rollback trigger</text><rect x="544" y="539" width="48" height="48" rx="12" fill="#f8fbff" opacity="0.97"/><text x="556" y="570" style="font:700 18px Segoe UI,Arial,sans-serif;fill:#0d1c39">CP</text><text x="604" y="571" class="body">revert GitOps state</text><g filter="url(#shadow)"><rect x="760" y="520" width="264" height="260" rx="24" fill="url(#obs)" stroke="#456b98" stroke-width="1.8"/></g><text x="784" y="562" class="boxTitle">Observability</text><text x="784" y="588" class="boxSub">monitoring + evidence</text><rect x="784" y="604" width="48" height="48" rx="12" fill="#f8fbff" opacity="0.97"/><text x="796" y="635" style="font:700 18px Segoe UI,Arial,sans-serif;fill:#0d1c39">OB</text><text x="844" y="636" class="body">Prometheus metrics</text><text x="844" y="660" class="body">Grafana dashboards</text><text x="844" y="684" class="body">Loki logs</text><text x="844" y="708" class="body">Tempo traces</text><rect x="780" y="720" width="70" height="42" rx="12" fill="#173b62" stroke="#5c83af" stroke-width="1.4"/><text x="798" y="748" class="small">Kafka</text><rect x="860" y="720" width="70" height="42" rx="12" fill="#173b62" stroke="#5c83af" stroke-width="1.4"/><text x="873" y="748" class="small">Grafana</text><rect x="940" y="720" width="62" height="42" rx="12" fill="#173b62" stroke="#5c83af" stroke-width="1.4"/><text x="957" y="748" class="small">Loki</text><path d="M476 330 L520 283" stroke="#9bdcff" stroke-width="4" fill="none" marker-end="url(#arrow)"/><text x="540" y="275" class="label">secret injection</text><path d="M476 410 L760 410" stroke="#9bdcff" stroke-width="4" fill="none" marker-end="url(#arrow)"/><text x="560" y="398" class="label">runtime verification</text><path d="M892 460 L892 520" stroke="#9bdcff" stroke-width="4" fill="none" marker-end="url(#arrow)"/><g filter="url(#shadow)"><rect x="90" y="1045" width="900" height="125" rx="24" fill="url(#red)" stroke="#aa5050" stroke-width="1.8"/></g><text x="118" y="1090" class="boxTitle">Automated Rollback</text><text x="118" y="1118" class="boxSub">on validation failure</text><text x="118" y="1152" class="body">validation failure -> deployment-poc -> GitOps revert -> ArgoCD restores stable state</text><path d="M892 460 C 850 670, 720 900, 510 1045" stroke="#f87171" stroke-width="4" fill="none" stroke-dasharray="12 10" marker-end="url(#rollbackArrow)"/><path d="M630 595 C 660 780, 620 925, 450 1045" stroke="#f87171" stroke-width="4" fill="none" stroke-dasharray="12 10" marker-end="url(#rollbackArrow)"/><text x="650" y="855" class="rollback">failure path</text></svg>